<svg id="Layer_1" data-name="Layer 1" xmlns="http://www.w3.org/2000/svg" viewBox="0 0 309.4255 354.729"><title>rubik kocka</title><path d="M161.8576,417.4532c0-27.75.0643-55.5-.07-83.2492-.02-4.1064,1.2957-6.61,4.9341-8.6994q72.4117-41.5876,144.6468-83.4823c3.7173-2.1559,6.6289-2.1542,10.34-.0015q72.2145,41.8893,144.595,83.4923c3.4381,1.9772,4.9168,4.3109,4.9093,8.3478q-.1553,83.8118-.0008,167.6238c.0077,4.1654-1.509,6.5531-5.0922,8.6124q-72.3835,41.5981-144.6,83.4859c-3.5814,2.0766-6.4058,2.069-10.0125-.0229q-72.558-42.0828-145.2839-83.876c-3.2444-1.866-4.4329-4.1956-4.42-7.8566C161.9028,473.703,161.8577,445.578,161.8576,417.4532Zm143.7707-57.0521a18.7965,18.7965,0,0,0-1.5827-1.218c-11.7581-6.79-23.4934-13.6208-35.3348-20.2625a5.1354,5.1354,0,0,0-4.2622.1313c-9.7825,5.4685-19.4578,11.1289-29.1605,16.74-2.4493,1.4164-4.8825,2.86-7.6726,4.4967,12.7389,7.3486,25.0161,14.4684,37.36,21.4713a3.9821,3.9821,0,0,0,3.3254.0932C280.6491,374.8558,292.9256,367.7313,305.6283,360.4011Zm21.5566-.1451c12.8537,7.4269,25.0184,14.4918,37.2458,21.4466a4.0249,4.0249,0,0,0,3.3352.2274c12.4481-7.05,24.82-14.2347,37.2877-21.4328-.4134-.4749-.6029-.8428-.9044-1.0174-12.0725-6.9927-24.133-14.0072-36.2822-20.8645a4.4764,4.4764,0,0,0-3.6338.3247c-5.4665,2.9794-10.8282,6.1512-16.2206,9.2661C341.2371,352.12,334.4669,356.0425,327.1849,360.256Zm-49.8162,28.739c12.8959,7.4526,25.264,14.6787,37.7611,21.6742,1.0031.5614,3.0954-.1089,4.3421-.81,9.4567-5.3193,18.833-10.7815,28.2241-16.2171,2.5486-1.4751,5.0618-3.0115,7.898-4.7027-12.7194-7.34-25.01-14.4821-37.3847-21.4734a4.4136,4.4136,0,0,0-3.6753.1512C302.2794,374.5626,290.1005,381.6418,277.3687,388.995Zm.0109-115.0164c11.7667,6.8153,23.2016,13.1968,34.3551,20.037,3.6288,2.2255,6.2834,2.1,9.7166-.1209,5.544-3.5867,11.3928-6.7025,17.1143-10.0145,5.55-3.2128,11.1022-6.4224,17.1-9.8915-12.8822-7.4411-25.27-14.6312-37.7234-21.7063a3.6643,3.6643,0,0,0-3.0533.144C302.5409,259.4431,290.25,266.5593,277.38,273.9786Zm50.1589,28.5663a8.8516,8.8516,0,0,0,1.2522,1.1388c11.8846,6.87,23.7491,13.7763,35.7247,20.4843a5.19,5.19,0,0,0,4.2661-.3107c9.04-5.0579,17.9719-10.31,26.9406-15.4956,3.11-1.7984,6.2308-3.5793,9.7659-5.609-12.9364-7.4722-25.3384-14.6794-37.82-21.7451a4.092,4.092,0,0,0-3.3513.3394C352.1752,288.2634,340.0937,295.2845,327.5385,302.5449Zm-50.1961,28.9474c13.1177,7.5593,25.477,14.7344,37.931,21.7411.8459.4759,2.5847.0068,3.6025-.5661,8.3585-4.7045,16.6459-9.5355,24.952-14.333,3.7329-2.1562,7.4593-4.3235,11.1534-6.4652-.2516-.5483-.2895-.8607-.4535-.9559q-18.2589-10.5993-36.5639-21.1185a3.173,3.173,0,0,0-2.6537-.09C302.8747,316.7675,290.4913,323.9224,277.3424,331.4923Zm-49.6289-28.8244c1.3675.8591,2.2857,1.4774,3.2417,2.03,10.9958,6.3579,22.04,12.6337,32.9609,19.1179,2.1552,1.28,3.6831,1.1311,5.7232-.0675,11.0614-6.4988,22.2005-12.865,33.304-19.292.8383-.4853,1.6083-1.0884,2.713-1.844-12.71-7.3316-25.0912-14.5157-37.55-21.5628a4.04,4.04,0,0,0-3.331.277C252.5489,288.2838,240.383,295.3479,227.7135,302.6679Zm149.7146,28.5569a8.0159,8.0159,0,0,0,1.1059,1.14c11.9821,6.9484,23.9457,13.93,36.0132,20.7273.9507.5355,2.8515.1675,3.9379-.4436,9.6819-5.446,19.281-11.0392,28.9017-16.594,2.4357-1.4063,4.8614-2.83,7.29-4.2446-.3426-.5713-.4136-.859-.5915-.9621-12.0953-7.01-24.1863-14.0281-36.3321-20.95a3.5751,3.5751,0,0,0-2.9825-.1333C402.4062,316.7829,390.105,323.912,377.4281,331.2248Zm-121.8878.586c-.413-.5992-.5024-.8693-.6866-.9761-12.0743-7.0045-24.13-14.0419-36.2877-20.8992-.9526-.5372-2.8463-.2116-3.9187.3933-11.3944,6.4279-22.7142,12.9881-34.0422,19.5333a29.9625,29.9625,0,0,0-2.4947,1.8354c12.6974,7.3267,24.98,14.4448,37.32,21.4605a3.5544,3.5544,0,0,0,2.977.0241C230.75,346.1613,243.0319,339.0355,255.54,331.8108Zm16.86,124.1675a15.2461,15.2461,0,0,0-.2742,1.83c-.0133,13.6166-.0877,27.2342.1035,40.8481.0185,1.31,1.4146,3.0757,2.6564,3.8191,8.9874,5.38,18.0971,10.5565,27.174,15.787,2.8815,1.66,5.781,3.2894,8.8308,5.023a7.6059,7.6059,0,0,0,.3471-1.3895c.0173-13.7414.0816-27.4835-.0792-41.2231a5.2173,5.2173,0,0,0-2.3333-3.6291c-8.4481-5.0716-17.0156-9.9446-25.5533-14.8666C279.745,460.1438,276.1989,458.1427,272.4006,455.9783ZM410.852,369.4248c-13.0188,7.5333-25.3258,14.6134-37.5563,21.8232a4.0166,4.0166,0,0,0-1.55,2.9686c-.0989,13.4917-.0657,26.9843-.0456,40.4767a10.6978,10.6978,0,0,0,.31,1.783,3.9586,3.9586,0,0,0,1.2632-.1575c12.0028-6.9051,24.0079-13.8067,35.9536-20.81a3.615,3.615,0,0,0,1.5566-2.5952C410.8805,398.6982,410.852,384.4813,410.852,369.4248Zm-49.9649,86.9914a4.3729,4.3729,0,0,0-1.1453.1275c-12.1161,6.95-24.2528,13.8658-36.2819,20.9638-.9577.565-1.63,2.3918-1.6492,3.6443-.1388,8.9931-.0744,17.9894-.0745,26.9846v15.4524c12.994-7.4977,25.403-14.6229,37.7437-21.8644a3.6672,3.6672,0,0,0,1.3485-2.7354C360.9132,484.8791,360.8871,470.7686,360.8871,456.4162Zm10.798,95.4489a12.5464,12.5464,0,0,0,1.5859-.5529c11.8806-6.8288,23.7879-13.6128,35.5764-20.5973a5.2408,5.2408,0,0,0,1.9239-3.89c.14-13.3472.0861-26.6964.0726-40.045a19.5737,19.5737,0,0,0-.289-2.1468c-12.8061,7.3812-25.2,14.4973-37.5377,21.71a3.2783,3.2783,0,0,0-1.2766,2.427C371.6633,522.9778,371.6851,537.1862,371.6851,551.8651ZM460.556,340.7589c-12.9722,7.4754-25.1871,14.4545-37.299,21.608a4.789,4.789,0,0,0-1.736,3.5655c-.1226,13.2315-.0825,26.4646-.06,39.6973a19.3236,19.3236,0,0,0,.4111,2.6565c12.6627-7.3067,24.9794-14.3607,37.1992-21.5785.86-.5082,1.3922-2.2171,1.4195-3.3831.14-5.9888.0652-11.9828.0652-17.9749C460.5561,357.4006,460.556,349.4515,460.556,340.7589Zm-199.63,95.896a9.2639,9.2639,0,0,0,.3662-1.6721c.0215-13.6167.1012-27.2345-.0977-40.8482-.0187-1.2832-1.5449-2.986-2.8178-3.74-10.8391-6.42-21.78-12.6689-32.6967-18.9567-1.0131-.5835-2.0757-1.0809-3.5349-1.8353,0,14.7759-.0635,28.8814.1136,42.9838.0151,1.2018,1.3776,2.8162,2.5467,3.5072,11.0567,6.5356,22.2041,12.9182,33.3376,19.3235A30.0558,30.0558,0,0,0,260.9263,436.6549Zm-49.37,29.3466c0-14.4312-.0832-28.15.0718-41.8663.03-2.67-.9636-3.9477-3.1612-5.1869-10.9715-6.1866-21.8445-12.548-32.76-18.8343-.9261-.5334-1.9094-.9672-3.2593-1.6445,0,14.7285-.0277,28.9516.0659,43.1738a3.6032,3.6032,0,0,0,1.5059,2.6158C186.2652,451.4361,198.5728,458.5077,211.556,466.0015Zm99.7069.0479c0-14.8591.0616-28.9723-.11-43.0826a5.2232,5.2232,0,0,0-2.4558-3.5373c-11.28-6.6577-22.6538-13.1582-34.0135-19.6809a21.4494,21.4494,0,0,0-2.575-1.0269c0,13.0132.2482,25.6262-.1257,38.2207-.1436,4.8388,1.2045,7.5236,5.5984,9.86C288.7816,452.7564,299.6413,459.3505,311.2629,466.0494Zm149.2931-67.274a6.5733,6.5733,0,0,0-1.4489.3277c-11.9937,6.906-24.006,13.7811-35.9122,20.8353-.96.569-1.6432,2.37-1.674,3.6174-.1633,6.6153-.0769,13.2368-.0769,19.8562,0,7.3194,0,14.6388,0,22.4012.886-.3935,1.33-.5447,1.7285-.7742,11.78-6.7839,23.5879-13.5226,35.2809-20.4542a5.2149,5.2149,0,0,0,2.0111-3.8178c.172-9.239.0914-18.4827.0915-27.7248C460.5561,408.346,460.556,403.65,460.556,398.7754Zm-99.6651-.48c-13.1415,7.5766-25.4564,14.6124-37.6573,21.8407-.9159.5427-1.4243,2.4571-1.4344,3.7392-.1031,12.9836-.0676,25.9682-.0526,38.9526.0011.9056.1488,1.8111.2629,3.11,12.7075-7.3335,25.0282-14.3807,37.2387-21.614.9439-.5592,1.547-2.4184,1.5709-3.6873.1437-7.6131.0716-15.23.0717-22.8461C360.8909,411.5834,360.8909,405.3766,360.8909,398.2953ZM172.4473,455.7119c0,14.9555-.0546,29.1792.107,43.4.0124,1.0982,1.3163,2.5671,2.4057,3.2083,11.2814,6.6394,22.6393,13.149,33.9875,19.6745a25.1362,25.1362,0,0,0,2.6049,1.1014c0-14.5877.0281-28.8119-.067-43.0352a3.616,3.616,0,0,0-1.5293-2.6139C197.7129,470.27,185.4084,463.1964,172.4473,455.7119Zm288.1074.0494c-12.3817,7.1355-24.0933,13.9721-35.9105,20.6209-2.3477,1.3209-3.3092,2.7282-3.2727,5.5053.1656,12.612.0675,25.2275.0816,37.8417.0012,1.05.1312,2.0994.2347,3.6487,12.8311-7.3968,25.2457-14.5174,37.5885-21.76a3.7122,3.7122,0,0,0,1.2252-2.7909C460.5787,484.7187,460.5547,470.61,460.5547,455.7613ZM260.9622,552.0137a17.0088,17.0088,0,0,0,.3444-2.1924c.0172-13.4727.09-26.9466-.1-40.4166-.0187-1.32-1.3884-3.11-2.6276-3.8469-11.0279-6.5566-22.1642-12.9313-33.2812-19.3376-.8887-.5121-1.872-.86-3.1509-1.4373,0,14.6677-.0535,28.76.1015,42.8493a4.8846,4.8846,0,0,0,2.2848,3.2975c7.4777,4.4783,15.0662,8.7715,22.6192,13.1242C251.65,546.6461,256.1479,549.2388,260.9622,552.0137ZM310.9806,580.82a16.2293,16.2293,0,0,0,.2685-1.8539c.0123-13.6105.0732-27.2217-.09-40.83a5.1543,5.1543,0,0,0-2.33-3.5789c-10.5053-6.24-21.1125-12.3082-31.6979-18.4128-1.4681-.8467-2.9782-1.6207-4.716-2.5621a13.8278,13.8278,0,0,0-.2867,1.7888c-.0144,13.61-.0765,27.2217.0876,40.83a5.1762,5.1762,0,0,0,2.3513,3.58c10.068,5.9933,20.24,11.8114,30.3885,17.67C306.8518,578.5452,308.7769,579.59,310.9806,580.82Zm10.7631.2734c13.0485-7.5277,25.3668-14.57,37.5726-21.8026.9321-.5522,1.4972-2.4445,1.5079-3.72.1084-12.9852.0722-25.9716.0529-38.9577-.0014-.9056-.19-1.8109-.3379-3.124-12.6995,7.3339-24.9954,14.4117-37.2453,21.5681a3.2092,3.2092,0,0,0-1.4853,2.22C321.7205,551.6069,321.7437,565.9369,321.7437,581.0934ZM172.8968,341.018a6.7868,6.7868,0,0,0-.4145,1.3963c-.0225,13.8566-.082,27.7139.065,41.5689a4.8191,4.8191,0,0,0,2.2811,3.2406c9.0049,5.3368,18.1047,10.5134,27.1762,15.7378,2.9828,1.7179,5.9661,3.4352,9.1079,5.2442a6.6776,6.6776,0,0,0,.4057-1.3779c.0223-13.8567.0925-27.7141-.0788-41.5686-.0147-1.1869-1.4-2.7712-2.5685-3.4641-9.3265-5.5321-18.753-10.8957-28.1515-16.3063C178.1694,344.0209,175.6105,342.5683,172.8968,341.018Zm237.9563,86.2894a19.9229,19.9229,0,0,0-1.8809.7722c-11.7857,6.7791-23.5979,13.5139-35.2918,20.4481a5.2224,5.2224,0,0,0-1.9216,3.8735c-.1416,12.994-.0924,25.99-.07,38.9857a27.5891,27.5891,0,0,0,.4024,3.1406c12.72-7.3445,25.032-14.4186,37.2773-21.6055a3.6514,3.6514,0,0,0,1.4221-2.699C410.88,456.1151,410.8531,442.0064,410.8531,427.3074ZM261.31,494.703c0-15.1034.0475-29.3364-.1019-43.5674-.0105-.9991-1.2771-2.322-2.2965-2.9217-11.2915-6.6431-22.6471-13.1773-33.9957-19.7229-.7065-.4075-1.5-.6648-2.7734-1.2185v4.0936c0,9.6214.7193,19.3126-.2071,28.844-.8847,9.1024,2.201,14.2133,10.4391,18.078C242.1326,482.8657,251.2122,488.8892,261.31,494.703Z" transform="translate(-161.787 -240.4058)" fill="#fff"/></svg>