<?xml version="1.0" encoding="utf-8"?>
<!-- Generator: Adobe Illustrator 25.0.0, SVG Export Plug-In . SVG Version: 6.00 Build 0)  -->
<svg version="1.1" id="Layer_1" xmlns="http://www.w3.org/2000/svg" xmlns:xlink="http://www.w3.org/1999/xlink" x="0px" y="0px"
	 viewBox="0 0 384 384" style="enable-background:new 0 0 384 384;" xml:space="preserve">
<style type="text/css">
	.st0{fill:#FFFFFF;}
</style>
<path class="st0" d="M188.7,384c-4.4-2-6.9-5.7-8.8-10c-7.2-16.1-14.7-32.2-22-48.3c-0.5-1.1-1-2.3-1.9-4.3c23.4,6.3,48,6.3,71.4,0
	c-0.8,2-1.3,3.2-1.8,4.3c-7.4,16.1-14.8,32.1-22,48.3c-1.9,4.4-4.4,8-8.8,10L188.7,384z"/>
<path class="st0" d="M0,189.4c2-4.4,5.7-6.9,10-8.8c15.8-7.1,31.5-14.4,47.2-21.6c1.5-0.7,2.9-1.3,5.3-2.3c-6.3,23.4-6.3,48,0,71.3
	c-1.8-0.7-2.9-1.1-4-1.6c-17-7.8-34-15.4-50.9-23.5c-3.1-1.5-5.2-4.9-7.8-7.5L0,189.4z"/>
<path class="st0" d="M303.2,192.2c0.1,61.5-50,111.7-111.6,111.7c-61.4,0-111.4-50-111.5-111.4C80,131,130.2,80.8,191.7,80.8
	C253.2,80.9,303,130.7,303.2,192.2z"/>
<path class="st0" d="M75.1,126.6c-5.7-15.4-11.2-30.1-16.7-44.8c-1.6-4.4-3.4-8.8-4.9-13.3s-0.7-8.4,2.7-11.7
	c2.9-3.1,7.4-4.1,11.4-2.5c18.9,6.9,37.8,14,56.7,21c0.4,0.2,0.7,0.5,1.1,0.8C104.5,88.2,87.1,105.6,75.1,126.6z"/>
<path class="st0" d="M125.9,308.9l-38.8,14.4c-5.8,2.2-11.7,4.3-17.5,6.5c-4.9,1.9-9.6,1.9-13.5-2.1s-3.8-8.4-2-13.2
	c6.6-17.7,13.2-35.4,19.8-53.1c0.3-0.9,0.8-1.8,1.3-3.1C87.3,279.4,104.8,296.8,125.9,308.9z"/>
<path class="st0" d="M308.1,126.4c-12.1-21.1-29.6-38.5-50.6-50.6l36.6-13.6l20-7.4c4.8-1.8,9.4-1.7,13.1,2.2s3.9,8.2,2.1,12.9
	c-6.7,18.1-13.5,36.2-20.2,54.3C309,124.7,308.7,125.2,308.1,126.4z"/>
<path class="st0" d="M257.6,308.8c21.1-12.1,38.5-29.6,50.6-50.7c2.5,6.8,4.8,13,7.1,19.1c4.6,12.4,9.2,24.8,13.8,37.1
	c1.9,4.9,1.9,9.6-2.1,13.5s-8.4,3.8-13.2,2c-17.8-6.7-35.7-13.3-53.6-19.9C259.6,309.7,259,309.4,257.6,308.8z"/>
<path class="st0" d="M320.7,156.4c19.7,9.1,38.2,17.4,56.5,26.1c8.2,3.9,8.5,15.4,0.5,19.3c-18.5,9-37.2,17.3-56.9,26.4
	C327.1,204.8,327,180,320.7,156.4z"/>
<path class="st0" d="M227.3,63.3c-23.3-6.3-47.9-6.3-71.1,0c0.6-1.7,0.9-2.7,1.4-3.7C165.2,42.7,173,25.9,180.7,9
	c2.2-4.8,5.3-8.2,10.9-8.2s8.8,3.2,11,8c7.7,17,15.6,34,23.3,50.9C226.3,60.6,226.6,61.6,227.3,63.3z"/>
</svg>
