<svg id="Layer_1" data-name="Layer 1" xmlns="http://www.w3.org/2000/svg" viewBox="0 0 409.5458 409.5505"><title>IKONA1</title><path d="M188.9138,449.0062v4.4343q0,17.1966.0042,34.3931c.0066,5.6241,2.18,8.6173,6.1514,8.551,3.829-.064,5.8811-2.94,5.8892-8.3443q.0231-15.3961.0047-30.7925v-7.9456h31.813c0,1.7213,0,3.1635,0,4.6056.0054,11.9975-.0411,23.9955.0469,35.9924.028,3.8248,2.41,6.3353,5.687,6.474,3.0578.1293,5.672-2.2,6.1925-5.6209a21.4062,21.4062,0,0,0,.11-3.1921q.01-16.9966.0042-33.9932v-4.3245h31.6208v4.502c0,11.1978-.0162,22.3956.0194,33.5932.005,1.5884-.3,3.6255.529,4.6639,1.427,1.787,3.6353,4.0666,5.5124,4.0636s4.0759-2.2909,5.4975-4.0822c.8272-1.0424.5188-3.0764.5251-4.6649.0379-9.598.019-19.1961.0192-28.7942v-9.1994h31.6216c0,13.2294-.0213,26.1424.0107,39.0552.0126,5.0457,2.1807,7.9026,5.9155,8.0111,3.8572.1122,6.0961-2.8145,6.1062-8.1106q.033-17.3964.0074-34.793c0-1.3989,0-2.7979,0-4.1247h31.813c0,1.8046,0,3.2545,0,4.7045.0031,11.8643-.04,23.7288.0352,35.5926.0256,4.0361,2.486,6.6821,5.88,6.7253,3.3965.0433,5.8535-2.5821,6.1139-6.5742.0606-.9294.02-1.8657.02-2.7988q.0012-16.7965,0-33.5932c0-1.404,0-2.8079,0-4.4125,8.7426,0,16.8691.03,24.9951-.0207a31.0846,31.0846,0,0,0,6.3419-.4871,5.2731,5.2731,0,0,0,4.3086-5.9c-.1713-2.895-1.78-5.0329-4.9066-5.4286a41.4349,41.4349,0,0,0-5.1836-.23q-91.3816-.0161-182.7634-.009c-21.5957,0-43.1915-.0491-64.7869.0265-7.3722.0258-13.1736-2.3-16.803-9.19-2.102-3.99-5.43-4.9991-8.5677-3.2507-3.1841,1.7744-3.9807,5.0678-1.9358,9.037,5.5127,10.7009,14.58,15.4392,26.379,15.4491C164.8669,449.0139,176.5922,449.0062,188.9138,449.0062ZM124.0348,385.22c0,7.2807-.0875,13.9316.0366,20.5785.0631,3.3845,2,5.4546,5.3983,5.843,3.2525.3717,5.8672-1.76,6.4161-5.2288a30.8089,30.8089,0,0,0,.158-4.7857q.0093-119.76.007-239.52c0-11.3859,3.9177-16.1144,15.143-18.3235,3.946-.7765,6.1748-3.5231,5.5821-6.879-.5983-3.3871-3.5588-5.3127-7.5184-4.89-14.8769,1.5879-24.9829,12.5027-25.2219,27.5331-.1674,10.5272-.037,21.0591-.0394,31.5889-.0005,2.2149,0,4.43,0,6.9331h-4.8733q-15.9946,0-31.9893.0013c-1.0661,0-2.1388-.0544-3.1971.0412-3.7154.3359-6.2223,2.8255-6.19,6.0774.0336,3.3932,2.6807,5.8673,6.71,5.8936,11.729.0768,23.4587.0262,35.188.0446,1.3976.0021,2.795.1212,4.1229.1829v31.6215c-1.65,0-3.0771-.0007-4.5042,0-11.7294.0065-23.4592-.0459-35.1878.0545-3.7531.0322-6.2837,2.5677-6.3248,5.8358-.0383,3.0537,2.3391,5.5978,5.7829,6.0572a27.4126,27.4126,0,0,0,3.5936.09q16.1946.0081,32.3892.0032h4.2232v31.6208h-4.5732c-10.6631,0-21.3263-.0142-31.9893.0159a23.0935,23.0935,0,0,0-4.7624.3706c-3.1985.688-4.7015,2.9369-4.61,6.0885.0943,3.2425,2.63,5.4948,6.6257,5.552,10.1278.1453,20.2589.0659,30.3887.0751,2.9.0027,5.8,0,8.8884,0v31.621h-4.6427c-11.1963,0-22.3927-.0318-33.5887.0164-4.91.0211-7.8058,2.4211-7.7227,6.185.08,3.6254,2.837,5.8077,7.5726,5.8255,10.2631.0386,20.5264.0129,30.79.0134,2.4927,0,4.9854,0,7.6284,0V373.17c-2.0764,0-3.9134,0-5.7505,0-11.063.001-22.1261-.0363-33.1888.0225-4.3239.023-7.0616,2.4394-7.0617,5.9584,0,3.401,2.6208,5.8161,6.6438,6.0445,1.4617.083,2.9316.0233,4.3978.0235C100.3548,385.22,111.925,385.22,124.0348,385.22Z" transform="translate(-77.743 -86.8444)" fill="#fff"/><path d="M487.2889,381.2444c-2.0835,3.2982-5.1641,4.07-8.8961,4.0277-12.2542-.14-24.511-.0527-37.4111-.0527,0,1.5829,0,2.9815,0,4.38-.0012,10.3954-.0282,20.7909.0051,31.1861a27.2618,27.2618,0,0,1-7.5622,19.6029c-2.8286,2.9842-6.1546,3.4085-8.816,1.147-2.6987-2.2932-3.0127-5.7331-.2586-8.83,3.5138-3.9517,4.6268-8.422,4.623-13.5813q-.0942-128.7426-.048-257.4854c-.0008-11.9338-5.9237-17.804-18.0056-17.8057q-115.5486-.0158-231.0972-.0066c-1.4658,0-2.9355.0468-4.3969-.0391-3.8065-.2236-6.3107-2.5282-6.3864-5.7981-.0728-3.1477,2.4577-5.8564,6.15-6.112,3.4493-.2389,6.9259-.0757,10.39-.1073.922-.0085,1.8433-.0826,3.3342-.1537v-7.8885c0-9.3292.1067-18.66-.0524-27.9866-.0637-3.7335.7294-6.8128,4.0274-8.8963h4c3.1584,1.9136,4.27,4.694,4.1312,8.372-.2159,5.7074-.0569,11.429-.0568,17.1446v19.1976h31.813V127.08c0-10.6337.1051-21.2689-.057-31.9-.0559-3.6658.929-6.48,4.17-8.3352h4c3.1722,2.1611,4.0383,5.21,3.981,8.94-.1554,10.1209-.0533,20.2459-.0532,30.3693v5.3747h31.6208c0-1.67,0-3.1055,0-4.5408.0007-10.6562.05-21.3127-.0249-31.9684-.0257-3.64,1.0481-6.5085,4.4763-8.1747h3.2c3.4281,1.6662,4.5015,4.5346,4.4763,8.1747-.0749,10.7889-.0339,21.5786-.0146,32.368.0025,1.3931.1438,2.7861.2182,4.1321h31.3924c0-12.0808.091-23.9094-.0534-35.7351-.0455-3.7294.8088-6.7786,3.9811-8.94h4c3.24,1.8556,4.284,4.6662,4.1669,8.3361-.199,6.2409-.0545,12.4928-.0544,18.74v17.5h31.8132c0-12.1717.11-23.9913-.0636-35.8068-.0553-3.7745.76-6.7854,4.1379-8.77h4c3.292,2.0805,4.1024,5.1526,4.0269,8.8834-.167,8.2491-.0519,16.504-.0519,24.7565v11.2924c12.3615,0,24.1894-.079,36.0158.02,14.3951.1208,25.0043,8.1231,28.1125,21.3024a41.2114,41.2114,0,0,1,.7562,9.11c.0812,11.8091.033,23.6191.033,35.86h4.6813c10.9146,0,21.8305.0953,32.7431-.0525,3.7291-.05,6.8025.7356,8.8831,4.0275v4c-1.9177,3.1745-4.716,4.2593-8.3989,4.1319-6.1236-.2118-12.26-.0575-18.3908-.0575-6.3588,0-12.7176,0-19.2794,0v31.8131h4.5207c11.0624,0,22.1262.102,33.1862-.057,3.6714-.0528,6.5025.9131,8.3622,4.1695v4c-2.1582,3.17-5.2011,4.0833-8.9311,3.9787-6.516-.1828-13.0407-.0509-19.5618-.0509H441.312v31.6209h4.6786c10.9128,0,21.826.0522,32.7382-.0273,3.7329-.0272,6.8351.8249,8.56,4.4785v3.2c-1.7251,3.6536-4.8273,4.5053-8.56,4.4786-11.0454-.079-22.0916-.0351-33.1375-.0178-1.4146.0022-2.829.1313-4.2763.2033v31.4083c12.57,0,24.8079.0882,37.0436-.0532,3.7261-.0431,6.772.8111,8.93,3.9808v4c-1.86,3.2566-4.6908,4.2215-8.3621,4.17-11.1934-.1581-22.3905-.0641-33.5861-.0481-1.3968.002-2.7934.1248-4.1348.1889V373.17h4.4991c11.0624,0,22.1263.1081,33.1861-.06,3.6779-.0561,6.48.9606,8.3978,4.1349Z" transform="translate(-77.743 -86.8444)" fill="#fff"/><path d="M181.532,290.0309c0-26.2577.3242-52.521-.13-78.7709-.2456-14.1915,9.7476-22.1265,22.0809-22.0674,52.6474.2521,105.2967.1018,157.9453.1109,14.3861.0024,22.0076,7.5665,22.0117,21.8867.0152,52.7819-.1875,105.565.14,158.3449.0837,13.4975-8.8963,22.1128-22.0842,22.0619-52.6478-.2034-105.2969-.0757-157.9455-.0893-14.3648-.0037-22.001-7.6057-22.0119-21.9041Q181.5075,329.8173,181.532,290.0309Zm12.3145-51.7938c-.1349,1.1491-.25,1.6738-.2506,2.1985q-.0136,65.3979.0153,130.7959c.0055,5.3586,2.6855,8.0252,8.2121,8.1538,6.9291.1614,13.8652.0449,20.7979.0035a8.4683,8.4683,0,0,0,2.0265-.5881c0-6.7773-.18-13.44.0766-20.0849.1268-3.2828-.8125-5.15-3.7149-6.9962a23.1377,23.1377,0,0,1-6.881-32.006,23.4364,23.4364,0,0,1,40.4739,23.5751c-3.7552,7.1321-9.9613,10.8367-17.6736,12.4319v23.47h39.7764V298.2257c-7.3551,0-14.3993.0273-21.4431-.0082-6.243-.0314-8.081-1.8625-8.098-8.0913-.03-10.8.0553-21.6-.0957-32.3978-.0178-1.2727-.908-3.2412-1.9165-3.6767-6.3441-2.7393-10.64-7.3476-13.6419-13.435-.4887-.9912-1.7517-2.2657-2.6719-2.278C217.2692,238.1838,205.6977,238.2371,193.8465,238.2371ZM325.2918,201.538c-1.2747-.08-2.0677-.1733-2.8607-.1734q-59.75-.0111-119.5.0121c-1.3159.0007-2.9776-.1649-3.8765.5277-1.9669,1.5156-4.8346,3.3963-5.0451,5.3718-.6541,6.1361-.2394,12.3861-.2394,18.8993,11.1088,0,21.8771-.1,32.6411.07,2.7229.0431,3.8551-.7633,4.741-3.3806,3.4674-10.2446,13.7311-17.222,23.877-16.5982,12.5588.7722,22.0045,9.28,23.7235,21.3674,1.7106,12.0278-5,22.8072-17.0478,26.9011-2.1487.73-2.5515,1.7336-2.5353,3.684.0709,8.5256.0221,17.0522.0526,25.5783a14.0073,14.0073,0,0,0,.4356,2.373c14.0357,0,27.884.0493,41.73-.1058.97-.0108,2.416-1.3493,2.8028-2.3838,2.0558-5.4968,4.9366-10.4407,9.8007-13.78,3.4666-2.38,7.3808-4.1075,11.3008-6.238Zm45.946,139.5955c.0648-1.4117.1545-2.4547.1547-3.4976q.0105-63.3645.0038-126.7289c0-.7992.0088-1.6013-.0522-2.397-.292-3.8072-2.2853-6.6508-6.0614-6.7857-9.1248-.326-18.2692-.1058-27.563-.1058v62.7069c1.19.404,2.3359.7283,3.4319,1.1754,11.2836,4.6029,17.9273,12.9529,18.6363,25.1114.6763,11.5964-4.3573,20.7184-14.5827,26.4591-15.6163,8.7673-34.6986,1.261-40.77-15.7679-.3977-1.1155-1.3186-2.8451-2.0872-2.8952-4.3162-.2817-8.66-.1358-12.9616-.1358v42.8611Zm-81.9613,38.0878c1.404.0916,2.3216.2034,3.2392.2038q34.7609.0146,69.5217-.012a18.8119,18.8119,0,0,0,3.945-.4625c3.0949-.6734,5.0832-2.7723,5.2039-5.7961.2585-6.4779.0792-12.9732.0792-19.5919h-81.989Zm42.2353-70.6a16.48,16.48,0,0,0,16.4329-16.2082,16.7622,16.7622,0,0,0-16.5412-16.631,16.4834,16.4834,0,0,0-16.2954,16.3418A16.193,16.193,0,0,0,331.5118,308.6217Zm-77.078-64.9557A12.7845,12.7845,0,0,0,267.0987,230.94a12.9518,12.9518,0,0,0-12.8176-12.6478,12.687,12.687,0,0,0,.1527,25.3736Zm-20.4988,100a11.4059,11.4059,0,1,0-11.428-11.4095A11.5126,11.5126,0,0,0,233.935,343.6661Z" transform="translate(-77.743 -86.8444)" fill="#fff"/><path d="M188.9138,449.0062c-12.3216,0-24.0469.0077-35.7722-.0022-11.7986-.01-20.8663-4.7482-26.379-15.4491-2.0449-3.9692-1.2483-7.2626,1.9358-9.037,3.1372-1.7484,6.4657-.74,8.5677,3.2507,3.6294,6.89,9.4308,9.2156,16.803,9.19,21.5954-.0756,43.1912-.0265,64.7869-.0265q91.3817,0,182.7634.009a41.4349,41.4349,0,0,1,5.1836.23c3.1267.3957,4.7353,2.5336,4.9066,5.4286a5.2731,5.2731,0,0,1-4.3086,5.9,31.0846,31.0846,0,0,1-6.3419.4871c-8.126.0511-16.2525.0207-24.9951.0207,0,1.6046,0,3.0085,0,4.4125q0,16.7965,0,33.5932c0,.9331.04,1.8694-.02,2.7988-.26,3.9921-2.7174,6.6175-6.1139,6.5742-3.3935-.0432-5.8539-2.6892-5.88-6.7253-.0752-11.8638-.0321-23.7283-.0352-35.5926,0-1.45,0-2.9,0-4.7045h-31.813c0,1.3268,0,2.7258,0,4.1247q0,17.3965-.0074,34.793c-.01,5.2961-2.249,8.2228-6.1062,8.1106-3.7348-.1085-5.9029-2.9654-5.9155-8.0111-.032-12.9128-.0107-25.8258-.0107-39.0552H288.54v9.1994c0,9.5981.0187,19.1962-.0192,28.7942-.0063,1.5885.3021,3.6225-.5251,4.6649-1.4216,1.7913-3.6212,4.0792-5.4975,4.0822s-4.0854-2.2766-5.5124-4.0636c-.8291-1.0384-.524-3.0755-.529-4.6639-.0356-11.1976-.0192-22.3954-.0194-33.5932v-4.502H244.8167v4.3245q0,16.9966-.0042,33.9932a21.4062,21.4062,0,0,1-.11,3.1921c-.52,3.4211-3.1347,5.75-6.1925,5.6209-3.2772-.1387-5.659-2.6492-5.687-6.474-.088-11.9969-.0415-23.9949-.0469-35.9924-.0006-1.4421,0-2.8843,0-4.6056h-31.813v7.9456q0,15.3963-.0047,30.7925c-.0081,5.4041-2.06,8.28-5.8892,8.3443-3.971.0663-6.1448-2.9269-6.1514-8.551q-.02-17.1966-.0042-34.3931Z" transform="translate(-77.743 -86.8444)" fill="#fff"/><path d="M124.0348,385.22c-12.11,0-23.68,0-35.25,0-1.4662,0-2.9361.06-4.3978-.0235-4.023-.2284-6.6438-2.6435-6.6438-6.0445,0-3.519,2.7378-5.9354,7.0617-5.9584,11.0627-.0588,22.1258-.0215,33.1888-.0225,1.8371,0,3.6741,0,5.7505,0V341.3569c-2.643,0-5.1357,0-7.6284,0-10.2632,0-20.5265.0252-30.79-.0134-4.7356-.0178-7.4926-2.2-7.5726-5.8255-.0831-3.7639,2.8132-6.1639,7.7227-6.185,11.196-.0482,22.3924-.0159,33.5887-.0164h4.6427v-31.621c-3.0888,0-5.9886.0023-8.8884,0-10.13-.0092-20.2609.07-30.3887-.0751-3.9953-.0572-6.5314-2.3095-6.6257-5.552-.0917-3.1516,1.4113-5.4005,4.61-6.0885a23.0935,23.0935,0,0,1,4.7624-.3706c10.663-.03,21.3262-.0158,31.9893-.0159h4.5732V253.9723h-4.2232q-16.1946,0-32.3892-.0032a27.4126,27.4126,0,0,1-3.5936-.09c-3.4438-.4594-5.8212-3.0035-5.7829-6.0572.0411-3.2681,2.5717-5.8036,6.3248-5.8358,11.7286-.1,23.4584-.048,35.1878-.0545,1.4271-.0008,2.8542,0,4.5042,0V210.31c-1.3279-.0617-2.7253-.1808-4.1229-.1829-11.7293-.0184-23.459.0322-35.188-.0446-4.0293-.0263-6.6764-2.5-6.71-5.8936-.0322-3.2519,2.4747-5.7415,6.19-6.0774,1.0583-.0956,2.131-.041,3.1971-.0412q15.9947-.0031,31.9893-.0013h4.8733c0-2.5033-.0005-4.7182,0-6.9331.0024-10.53-.128-21.0617.0394-31.5889.239-15.03,10.345-25.9452,25.2219-27.5331,3.96-.4226,6.92,1.503,7.5184,4.89.5927,3.3559-1.6361,6.1025-5.5821,6.879-11.2253,2.2091-15.1426,6.9376-15.143,18.3235q-.0042,119.76-.007,239.52a30.8089,30.8089,0,0,1-.158,4.7857c-.5489,3.4687-3.1636,5.6005-6.4161,5.2288-3.3979-.3884-5.3352-2.4585-5.3983-5.843C123.9473,399.1511,124.0348,392.5,124.0348,385.22Z" transform="translate(-77.743 -86.8444)" fill="#fff"/></svg>