<svg xmlns="http://www.w3.org/2000/svg" viewBox="0 0 385.6808 385.7643"><title>IKONA4</title><g id="Layer_1" data-name="Layer 1"><path d="M280.6913,571.43c-3.7484-1.6625-7.8624-2.7986-11.1707-5.0953-7.2951-5.0644-10.5772-12.5137-10.624-21.3446-.0552-10.4194-.0743-20.84.0314-31.2586a5.6539,5.6539,0,0,0-2.5585-5.2929c-6.8056-4.9986-10.1068-11.9665-10.2622-20.3728-.104-5.6259-.02-11.2553-.02-17.922-3.32,3.2965-5.9938,5.9845-8.7043,8.6352-3.836,3.7514-6.2136,4.0162-10.6208,1.0489-5.2948-3.5647-10.5321-7.215-16.2843-11.1647-1.2681,5.8713-2.4475,11.3248-3.6228,16.7791-.29,1.3463-.4606,2.7287-.87,4.0367-.9978,3.185-3.0326,5.1181-6.5672,5.1134q-12.4283-.0163-24.8565,0c-3.8593.0023-6.052-2.04-6.85-5.6778-1.287-5.8692-2.5025-11.7541-3.7665-17.6284-.1517-.7051-.4175-1.3857-.7727-2.54-5.3091,3.6457-10.329,7.0994-15.3559,10.543-5.3207,3.6447-7.4726,3.4424-12.0866-1.159-5.4224-5.4074-10.8529-10.8069-16.2372-16.252-3.7525-3.7948-3.9914-6.2141-1.0331-10.6142,3.5622-5.2982,7.2028-10.5437,11.1425-16.2986-6.0005-1.2869-11.573-2.5372-17.17-3.6688-7.6473-1.5462-8.7505-2.81-8.7514-10.4336-.0008-7.03-.0231-14.06.0087-21.09.0209-4.6259,1.5484-6.6314,6.0486-7.6674,6.4235-1.4788,12.8793-2.8176,19.81-4.3223-3.8341-5.592-7.3792-10.7231-10.882-15.8829-3.2729-4.821-3.0764-7.1419.9742-11.224q8.2234-8.2874,16.5105-16.5114c4.049-4.0169,6.4123-4.2121,11.213-.9437,5.164,3.5157,10.2958,7.0788,15.9655,10.9818,1.349-6.4818,2.5642-12.45,3.8383-18.4058,1.26-5.8873,2.729-7.2243,8.0892-7.7671,1.4838-8.045,2.5331-16.1149,4.4992-23.9548,6.2631-24.9743,19.5433-45.7317,39.0952-62.374a118.53,118.53,0,0,1,63.4631-27.7858c7.2914-.9018,14.7678-.532,22.1509-.3663,3.4.0763,6.2171-.2812,8.9771-2.6,4.6038-3.8677,9.5462-7.3387,14.4118-10.8865,4.4412-3.2383,7.5781-2.7513,10.935,1.6555q6.6141,8.6831,13.1053,17.46c1.9077,2.581,4.07,4.4894,7.5591,3.6984,3.5041-.7943,4.6326-3.3729,5.0664-6.62.8791-6.5807,2.008-13.1288,2.8351-19.7153.9973-7.9423,3.2256-9.7426,11.0515-8.626q16.5584,2.3627,33.1276,4.6483c5.3836.7447,7.5227,3.1094,6.9422,8.632-.6806,6.4748-1.8521,12.8964-2.6591,19.36-.47,3.7661-1.8926,7.964,2.3157,10.61,4.2344,2.6623,7.3137-.3151,10.4246-2.64,5.2256-3.906,10.4061-7.8735,15.6715-11.7248,4.4956-3.2883,7.6092-2.9156,10.9664,1.4871q10.8413,14.217,21.4658,28.5987c3.2644,4.41,2.7622,7.53-1.6644,10.9262q-8.66,6.6436-17.47,13.091c-2.7707,2.027-4.5177,4.445-3.5761,7.98.919,3.45,3.7677,4.382,6.905,4.8145,7.3226,1.01,14.6974,1.7692,21.93,3.2289,2.38.48,4.3886,2.8006,6.5671,4.28v6.0264c-1.0174,6.139-2.0811,12.2708-3.0381,18.4192-.8285,5.3225-1.4612,10.676-2.32,15.9933-.722,4.4721-3.8483,6.6912-8.3612,6.0467q-11.5333-1.647-23.0508-3.4043c-2.8554-.4328-5.2851.2232-6.9058,2.7058-1.7067,2.6141-1.3867,5.28.4128,7.7154,4.3981,5.9525,8.8742,11.8473,13.2978,17.7811,4.0826,5.4764,3.7153,8.2941-1.617,12.3072q-13.3818,10.071-26.7928,20.1032c-5.6889,4.2546-8.53,3.8148-12.8492-1.9245-4.1492-5.5132-8.3126-11.0159-12.4364-16.5481-1.9123-2.5654-4.1445-4.4758-7.5973-3.5887-3.6416.9356-4.6236,3.9249-5.0961,7.1627-1.0493,7.19-2.0213,14.3914-3.0868,21.579-.79,5.3266-3.5188,7.2936-8.8417,6.5479q-17.3079-2.4247-34.6184-4.8306c-5.9581-.8389-7.9949-3.6-7.1388-9.5385,1.0189-7.0677,2.0078-14.14,3.0382-21.2056.4622-3.1691.1574-6.0818-2.8048-7.98-3.0258-1.9389-5.7131-.8325-8.29,1.1147q-8.5573,6.467-17.166,12.8661c-5.1664,3.8455-8.1618,3.4428-12.08-1.7377q-10.4427-13.8085-20.7769-27.6989c-3.408-4.5849-2.9552-7.784,1.5927-11.2622,5.68-4.3439,11.43-8.5952,17.169-12.8615,2.65-1.97,4.8616-4.2558,3.9232-7.8513-.92-3.5239-3.7388-4.6116-7.1314-5.0283-6.9616-.855-13.8911-1.9688-20.8393-2.9365-5.8559-.8155-8-3.1825-7.2569-9.1166q2.1942-17.5256,4.915-34.9839c.9326-6.0531,3.816-7.7456,10.1956-6.7832,7.0607,1.0652,14.1457,1.9711,21.2016,3.066,3.0248.4694,5.5377-.1591,7.2056-2.7943,1.7923-2.8318.9953-5.4843-.9-7.9934-4.2339-5.6057-8.5232-11.1734-12.5965-16.8944-1.5344-2.1551-2.5342-4.6909-4.0447-7.56a100.4284,100.4284,0,0,0-46.2875,11.1282c-33.72,17.3088-54.2554,44.9-59.1366,82.3519-5.5228,42.3741,9.7889,76.9508,44.1076,102.725,7.1256,5.3515,14.74,10.0491,19.3584,18.0627,3.6262,6.2918,6.0128,12.9469,6.1023,20.2686.1027,8.4089.0692,16.82.1089,25.2292.0473,9.9845,4.8519,14.8964,14.69,14.9163q23.7248.0481,47.45,0c9.8929-.02,14.5385-4.8745,14.6733-14.884.1368-10.15-.246-20.3807.9207-30.4226,1.3448-11.5759,7.7431-20.7358,17.1211-27.6956,5.3316-3.9569,10.7017-7.8619,16.2959-11.9675l8.5848,9.5506c-5.2166,3.8941-10.0679,7.8239-15.2249,11.3-10.2462,6.9066-14.9246,16.5525-14.9214,28.7114.002,7.6572.0255,15.3146-.0249,22.9715a24.26,24.26,0,0,1-10.4,20.2672,5.3439,5.3439,0,0,0-2.392,5.0015c.0817,9.7906.0443,19.5822.0334,29.3734-.0168,15.1052-5.92,23.1881-20.2516,27.7918a3.63,3.63,0,0,0-.8881.6339ZM446.5678,366.9844c-3.74-5.01-7.2938-9.71-10.7806-14.46-3.2369-4.4089-4.9728-9.3126-4.0033-14.8148,2.0421-11.59,11.8735-18.0762,23.9546-16.0625,5.276.8794,10.5905,1.5276,16.1943,2.3245,1.0066-6.7151,1.9648-13.0047,2.8834-19.3.2676-1.8338.4225-3.6842.6583-5.7876-3.9643-.5847-7.7929-1.1-11.6035-1.7259-3.4537-.5669-7.0244-.8488-10.3066-1.9576a18.9855,18.9855,0,0,1-6.445-32.2719c5.0465-4.4417,10.6081-8.2981,16.0672-12.5213l-15.2243-20.2019c-5.6394,4.1522-10.6465,8.1594-15.9744,11.6813-6.8055,4.4987-14.03,4.5769-20.872.1395-6.8127-4.4185-9.6562-10.9636-8.6171-19.0719.773-6.032,1.6256-12.0539,2.4671-18.26l-25.0735-3.5072c-.9314,6.1476-1.8033,11.8189-2.6477,17.4943-1.3164,8.848-6.1279,14.7214-14.8991,16.8264-8.7266,2.0943-15.3918-1.471-20.5987-8.3342-3.3983-4.4792-6.7609-8.9856-10.2816-13.6688l-20.2961,15.25c4.0325,5.4228,7.9712,10.3192,11.4643,15.5151,4.7142,7.0123,4.9073,14.4467.2723,21.5339-4.6512,7.112-11.5667,9.5987-19.9018,8.39-5.6579-.82-11.3243-1.582-17.2782-2.4105-1.217,8.5337-2.3789,16.681-3.5786,25.0937,6.19.9085,12.1224,1.7415,18.042,2.6564,10.705,1.6546,17.4957,10.1716,16.7174,20.947-.4369,6.0478-3.533,10.5816-8.2408,14.1506-4.6495,3.5248-9.3163,7.0268-14.1422,10.6644l15.2711,20.2873c5.28-3.9188,10.1023-7.72,15.15-11.1948,8.554-5.8881,18.8227-4.7455,25.5765,2.5772,5.0953,5.5244,5.4571,12.0938,4.3814,19.0416-.7606,4.9132-1.3924,9.8463-2.12,15.0469l25.1026,3.5661c.8028-5.6291,1.6525-10.804,2.2585-16.0073,1.1123-9.5521,6.27-16.0585,14.76-18.3534,7.7249-2.0881,15.43.9445,21.0042,8.2927,3.3989,4.4809,6.7711,8.982,10.3138,13.6845ZM244.44,453.7736c-3.57-12.7814-14.6834-17.4409-23.5849-24.4776-10.2151,17.7283-28.8367,23.6677-44.5066,19.206-15.7707-4.49-27.3774-18.9726-28.1336-34.8642a38.008,38.008,0,0,1,7.0024-24.0781c6.4816-9.324,15.5776-14.5705,26.7684-16.3909-1.0006-3.4856-2.0038-6.5856-2.7655-9.7438-.771-3.1973-1.3031-6.4522-2.076-10.3722-.4491,1.2477-.69,1.8065-.8534,2.3869-3.3628,11.9178-12.0462,15.06-22.2949,8.055-3.7011-2.53-7.39-5.0778-10.5195-7.23l-11.6879,11.8425c2.6313,3.8416,5.6538,8.0061,8.4142,12.3376,5.2716,8.2719,1.5489,17.61-7.94,19.9794-4.49,1.1213-9.0627,1.9134-13.5556,3.0255-.8464.2095-2.1039,1.2007-2.1327,1.8755-.1909,4.4783-.0989,8.9688-.0989,13.5388,5.2355,1.1429,10.1259,2.128,14.975,3.2858,10.6781,2.55,14.3145,11.8879,8.212,21.0318-2.7016,4.0482-5.4983,8.0329-7.9709,11.6369l11.6334,11.7833c4.0114-2.7465,8.1755-5.75,12.49-8.5194,8.4253-5.4072,17.7726-1.6418,20.1593,8.1116,1.2421,5.0759,2.2424,10.2109,3.4129,15.6,4.5314,0,8.9081.1138,13.268-.106.7749-.0391,1.909-1.3543,2.1434-2.2684,1.056-4.1181,1.761-8.3248,2.7515-12.4615,2.6222-10.9511,11.9244-14.5746,21.2463-8.3075,4.0272,2.7075,8.01,5.4812,12.0505,8.2506,1.054-.9963,1.8752-1.7562,2.6784-2.5346C237.2163,460.7907,240.9014,457.2094,244.44,453.7736Zm-82.9258-42.8087a24.9335,24.9335,0,0,0,19.2631,24.9714,25.3109,25.3109,0,0,0,28.7445-13.1571c1.0924-2.1832.8177-3.4666-.8147-5.1608a105.7425,105.7425,0,0,1-19.703-28.218c-1.6209-3.4311-3.7772-3.7458-6.8373-3.1191A25.2165,25.2165,0,0,0,161.5145,410.9649ZM272.128,539.6543c-1.7429,12.6953,3.55,18.9364,15.6553,18.943,6.7756.0037,13.5513.0287,20.3267-.0059,11.055-.0564,17.0744-8.0665,14.1987-18.9371Zm50.6035-25.4785H272.0229v12.0169h50.7086Z" transform="translate(-103.673 -185.6657)" fill="#fff"/><path d="M303.6016,455.9448h-12.096c-1.2165-4.98-1.9647-10.0815-3.7205-14.8084a37.3136,37.3136,0,0,0-20.2718-21.6484c-10.3323-4.6382-20.4043-9.605-28.9308-17.2224-17.5609-15.6884-27.5487-35.1594-30.4156-58.6229-3.929-32.156,13.4137-68.3052,41.5079-84.7818l6.3223,10.014c-5.7933,5.42-11.8325,10.17-16.796,15.8587-33.4043,38.2855-20.0563,98.7166,26.324,119.5426,10.05,4.5128,19.5171,9.5871,26.5127,18.4777A53.7275,53.7275,0,0,1,303.6016,455.9448Z" transform="translate(-103.673 -185.6657)" fill="#fff"/><path d="M455.1089,489.6362l-8.2685,9.9156L408.388,467.5367l8.2253-9.9631Z" transform="translate(-103.673 -185.6657)" fill="#fff"/><path d="M463.6218,424.0291v12.8267c-1.026.1047-1.9826.2858-2.94.2872-12.7774.0191-25.5558-.0647-38.3317.0737-2.8128.0305-3.63-.8049-3.6267-3.61.0092-9.578-.0964-9.5781,9.6306-9.5781Z" transform="translate(-103.673 -185.6657)" fill="#fff"/><path d="M393.4984,520.0612H380.7312a27.0523,27.0523,0,0,1-.3117-2.9c-.021-12.7755.0535-25.5516-.07-38.3259-.0263-2.7259.6658-3.69,3.555-3.6827,9.5931.0242,9.5934-.0922,9.5934,9.6061Z" transform="translate(-103.673 -185.6657)" fill="#fff"/><path d="M291.1065,488.0592V469.1854h12.5543v18.8738Z" transform="translate(-103.673 -185.6657)" fill="#fff"/><path d="M173.1449,252.5594l-7.521,10.5106-44.8682-32.06c2.5175-3.5183,4.8961-6.8422,7.5086-10.4933Z" transform="translate(-103.673 -185.6657)" fill="#fff"/><path d="M201.2241,237.0244l-12.5,3.1893c-4.374-17.0909-8.6711-33.8815-13.0992-51.184l12.4526-3.364Z" transform="translate(-103.673 -185.6657)" fill="#fff"/><path d="M161.4014,283.5035l3.16,12.5148L113.28,308.8567c-1.0651-4.3054-2.0372-8.2345-3.1026-12.5411Z" transform="translate(-103.673 -185.6657)" fill="#fff"/><path d="M430.03,297.979a51.23,51.23,0,0,1-51.2736,51.1654c-28.11-.03-51.32-23.2954-51.23-51.3538a51.252,51.252,0,0,1,102.5038.1884Zm-89.43-.0944c-.0082,20.9279,17.4071,38.3947,38.27,38.3834,20.8406-.0113,38.2467-17.5033,38.238-38.4267a38.2541,38.2541,0,1,0-76.5081.0433Z" transform="translate(-103.673 -185.6657)" fill="#fff"/></g></svg>