<?xml version="1.0" encoding="utf-8"?>
<!-- Generator: Adobe Illustrator 25.0.0, SVG Export Plug-In . SVG Version: 6.00 Build 0)  -->
<svg version="1.1" id="Layer_1" xmlns="http://www.w3.org/2000/svg" xmlns:xlink="http://www.w3.org/1999/xlink" x="0px" y="0px"
	 viewBox="0 0 120 120" style="enable-background:new 0 0 120 120;" xml:space="preserve">
<style type="text/css">
	.st0{fill:#FFFFFF;}
</style>
<g>
	<path class="st0" d="M60,88.5H42.7c-0.4,0-0.7,0-1.1,0c-0.9,0-1.7-0.7-1.7-1.6c0-0.2,0-0.5,0.1-0.7c1.3-5,2.6-9.9,4-14.8
		c0.3-1.2,0.8-1.6,2-1.6c9.4,0,18.8,0,28.2,0c1.2,0,1.7,0.4,2,1.6c1.3,4.9,2.5,9.7,3.8,14.6c0.4,1.6-0.2,2.5-1.9,2.5s-3,0-4.6,0
		L60,88.5z"/>
	<path class="st0" d="M59,36.6h2.4c0.5,2,0.2,4.1,0.4,6.2S62,47,62,49.1s0.2,4.2,0.3,6.3s0.2,4.2,0.2,6.2s0.1,4.2,0.2,6.4h-5.1
		L59,36.6z"/>
	<path class="st0" d="M67.7,95.7c-0.3,0.7-1,1.1-1.7,1H54.1c-0.7,0.1-1.4-0.3-1.7-0.9c0.3-0.4,0.6-0.8,0.9-1.2c1-1.2,2-2.5,3-3.8
		c0.4-0.6,1-0.9,1.7-0.9c1.4,0,2.7,0,4.1,0c0.5,0,1.1,0.2,1.5,0.6C65,92.2,66.3,94,67.7,95.7z"/>
	<path class="st0" d="M37.4,94.3c-0.3,0.6-1,0.9-1.7,0.8h-9.8c-0.7,0.1-1.4-0.2-1.8-0.8c0.8-0.9,1.6-1.9,2.3-2.9
		c0.8-1.7,2.8-2.6,4.6-2.2c0.1,0,0.2,0,0.4,0c1.3-0.3,2.7,0.4,3.3,1.6C35.5,92.1,36.5,93.2,37.4,94.3z"/>
	<path class="st0" d="M96.2,94.6c-0.6,0.3-1.2,0.5-1.8,0.6c-3.3,0-6.7,0-10.1,0c-0.6-0.1-1.1-0.2-1.7-0.5c0.2-0.3,0.4-0.7,0.6-1
		c1-1.2,1.9-2.5,2.9-3.6c0.4-0.4,0.9-0.6,1.4-0.7c1.2-0.1,2.3-0.1,3.5,0c0.5,0,1,0.3,1.4,0.7C93.7,91.4,94.8,92.9,96.2,94.6z"/>
	<path class="st0" d="M14.9,86.7H38l0.4,1.3H15.6c-0.3,0-0.7,0-1,0c-0.8,0-1.4-0.7-1.4-1.4c0-0.1,0-0.3,0.1-0.4
		c1.1-4.4,2.3-8.8,3.5-13.2c0.1-0.7,0.8-1.3,1.6-1.2h23.3V72H19.7c-1.6,0-1.9,0.2-2.2,1.8c-0.9,3.8-1.7,7.6-2.5,11.3
		C14.9,85.6,14.9,86.1,14.9,86.7z"/>
	<path class="st0" d="M105.2,86.7c0-0.5,0-1,0-1.5c-0.9-3.9-1.7-7.8-2.6-11.7c-0.3-1.4-0.7-1.6-2.1-1.6H78.4v-0.2h22.4
		c0.3,0,0.6,0,0.8,0c1.2,0,1.5,0.2,1.8,1.4l2.4,9.3c0.3,1.1,0.6,2.2,0.9,3.3c0.4,1.5-0.2,2.3-1.7,2.3H82.3c-0.2,0-0.3,0-0.5-0.1
		l0.2-1.2H105.2z"/>
	<path class="st0" d="M28.5,52.2h2.1l0.7,17.9h-3.6L28.5,52.2z"/>
	<path class="st0" d="M90,52.2h2.1c0.2,6,0.5,11.9,0.8,17.9h-3.6C89.5,64.1,89.7,58.2,90,52.2z"/>
	<path class="st0" d="M62.8,37.1l-0.2-0.9l0.2,0.1l2.2-3.9l15.9-2.2c0.1,0,0.2,0.1,0.3,0.2C80.8,31.1,66.8,36.1,62.8,37.1z"/>
	<path class="st0" d="M63,29.5c-1.2-0.9-2.7-1.2-4.1-0.9l-7.1-14l0.5-0.5c3.9,5,7.7,9.8,11.6,14.7L63,29.5z"/>
	<path class="st0" d="M43.8,43.4l12.4-13.6l0.6,0.8c-0.7,1.3-0.7,2.8-0.2,4.2c-0.2,0.2-0.4,0.4-0.6,0.5c-3.6,2.7-7.3,5.3-10.9,8
		C44.9,43.5,44.6,44,43.8,43.4z"/>
	<path class="st0" d="M35,82.7v2.2c-0.7,0.6-1.5,0.9-2.4,0.8c-1.2,0-2.4,0-3.6,0c-0.9,0-1.8-0.3-2.5-0.9l0.2-2.2
		C28.5,81.2,33,81.2,35,82.7z"/>
	<path class="st0" d="M103.2,84.7c-1.7,1.3-6.3,1.3-8.5,0.1l-0.3-2.1c1.5-1.4,5.8-1.5,8.2-0.2L103.2,84.7z"/>
	<path class="st0" d="M85,84.8l0.2-2.2c2-1.3,6.5-1.3,8.2,0.1v2.2C91.9,86,87,86,85,84.8z"/>
	<path class="st0" d="M16.9,84.8l0.4-2.1c1.9-1.4,6.4-1.4,8.3-0.1l-0.1,2.1c-0.7,0.6-1.7,1-2.6,1c-1.2,0-2.5,0-3.7,0
		C18.4,85.7,17.5,85.4,16.9,84.8z"/>
	<path class="st0" d="M31.8,52.5c-0.1-0.3-0.2-0.5-0.2-0.5l2-3.4l13.7-2C46.6,47.5,38.4,50.5,31.8,52.5z"/>
	<path class="st0" d="M26.1,46.5l0.6,0.5c-0.6,1.1-0.6,2.3-0.2,3.4c-1.5,1.4-10.1,7.3-10.9,7.5C15.7,57.2,23.5,48.7,26.1,46.5z"/>
	<path class="st0" d="M32.5,45.5c-0.3,0.2-0.5,0.3-0.4,0.3l-3.8-0.8c-1.5-2.3-5.6-10.7-5.4-11.8L32.5,45.5z"/>
	<path class="st0" d="M84.4,33.2l9.7,12.3l-0.3,0.3l-3.9-0.8C88.9,43.7,84.2,34.2,84.4,33.2z"/>
	<path class="st0" d="M93.3,52.5L93.1,52l2-3.4l12.5-1.9c0.1,0,0.2,0.2,0.4,0.4L93.3,52.5z"/>
	<path class="st0" d="M87.7,46.5c0.9,0.6,0,1.3,0.1,1.9s0.1,1.3,0.1,2.1c-1,1.1-9.6,7.3-10.4,7.4C77.8,57.1,85.7,48.2,87.7,46.5z"/>
	<path class="st0" d="M85.4,80.2l0.1-2c1.7-1.2,5.9-1.2,7.6,0l0.2,2C91.5,81.4,87.2,81.4,85.4,80.2z"/>
	<path class="st0" d="M18.3,78.2c1.8-1.2,6-1.3,7.7-0.1l-0.1,1.9c-1.6,1.3-6.1,1.4-7.9,0.2L18.3,78.2z"/>
	<path class="st0" d="M26.9,80.2v-2.1c1.7-1.2,5.9-1.2,7.6,0l0.2,2C32.9,81.4,28.6,81.4,26.9,80.2z"/>
	<path class="st0" d="M94.2,80.3l-0.1-2.1c1.5-1.2,5.5-1.2,7.6-0.1l0.5,1.9c-0.4,0.6-1.1,1-1.9,1c-1.3,0.1-2.6,0.1-3.8,0
		C95.7,80.9,94.9,80.6,94.2,80.3z"/>
	<path class="st0" d="M60.4,29.8c1.5,0,2.7,1.2,2.8,2.7c0,0.1,0,0.1,0,0.2c0,1.6-1.2,2.8-2.8,2.8c0,0,0,0,0,0
		c-1.6,0-2.9-1.3-2.9-2.9C57.5,31,58.8,29.7,60.4,29.8z"/>
	<path class="st0" d="M92.9,73.7l0.2,2c-2.3,1.2-5,1.3-7.3,0.1v-2C87.3,72.7,91,72.6,92.9,73.7z"/>
	<path class="st0" d="M93.9,75.8l-0.2-2c1.4-1.2,5.2-1.2,7.1-0.1l0.5,2.1C99.8,77,95.8,77.1,93.9,75.8z"/>
	<path class="st0" d="M18.9,75.9l0.4-2.1c1.7-1.2,5.5-1.2,7-0.1v1.9C24.8,77,20.8,77.1,18.9,75.9z"/>
	<path class="st0" d="M34.3,73.7l0.2,2c-1.6,1.3-5.6,1.3-7.3,0.1v-2C28.6,72.6,32.5,72.5,34.3,73.7z"/>
	<path class="st0" d="M35.1,73.8c1.3-1,5-1.2,6.5-0.3l-0.8,3.2c-1.9-0.1-3.7,0.4-5.5-0.8L35.1,73.8z"/>
	<path class="st0" d="M78.4,73.2c2.3-0.3,4.3-0.6,6.4,0.3v2.2c-1.6,1.5-3.6,0.8-5.5,0.9L78.4,73.2z"/>
	<path class="st0" d="M29.5,46.4c1.2-0.1,2.3,0.9,2.4,2.1c0,0,0,0.1,0,0.1c0.1,1.3-0.9,2.4-2.2,2.4c-0.1,0-0.1,0-0.2,0
		c-1.3,0-2.4-1-2.4-2.3c0,0,0,0,0,0C27.2,47.5,28.2,46.4,29.5,46.4C29.5,46.4,29.5,46.4,29.5,46.4z"/>
	<path class="st0" d="M88.8,48.6c0-1.2,1-2.3,2.2-2.3c0.1,0,0.1,0,0.2,0c1.3,0,2.4,1,2.4,2.3c0,0,0,0,0,0c0,1.3-1.1,2.4-2.4,2.4
		c0,0-0.1,0-0.1,0C89.7,51,88.7,50,88.8,48.6C88.8,48.7,88.8,48.7,88.8,48.6z"/>
	<path class="st0" d="M39.7,80.9c-1.4,0.3-2.9,0-4-0.8l-0.1-2c1.5-1.4,3.2-0.6,5.1-0.9L39.7,80.9z"/>
	<path class="st0" d="M79.5,77.3c1.8,0.2,3.6-0.5,5.1,0.8l-0.2,2c-1.4,0.9-1.7,1-3.9,0.8L79.5,77.3z"/>
	<path class="st0" d="M84.1,84.9l-2.3,0.9l-1.1-4c1.2-0.4,2.6-0.1,3.5,0.8L84.1,84.9z"/>
	<path class="st0" d="M38.3,85.8l-2.3-0.9l-0.3-2.3c1-1,2.2-1.1,3.6-0.9L38.3,85.8z"/>
	<path class="st0" d="M44.2,84.8c0-0.3,0-0.5,0-0.7c0.1-0.7,0.3-1.3,0.4-1.9c1-0.7,2.1-1,3.3-1c1.1,0.1,2.2,0.1,3.3,0
		c1.1-0.1,2.1,0.3,2.9,1L54,84.7c-1,0.7-2.1,1.1-3.3,1.1c-1.2,0-2.5,0-3.7,0C46,85.8,45,85.5,44.2,84.8z"/>
	<path class="st0" d="M55.3,82.2c0.9-0.7,2-1.1,3.2-1c1.1,0.1,2.2,0.1,3.3,0c1.1,0,2.1,0.3,3,1l0.2,2.5c-0.8,0.7-1.9,1.1-2.9,1.1
		c-1.2,0-2.4,0-3.6,0c-1.2,0.1-2.4-0.3-3.3-1L55.3,82.2z"/>
	<path class="st0" d="M66.1,84.7l-0.3-2.6c0.7-0.7,1.7-1.1,2.7-1.1c1.2,0,2.3,0,3.5,0c1.2,0,2.4,0.3,3.4,1l0.6,2.6
		c-0.7,0.7-1.7,1-2.7,1c-1.3,0-2.6,0-3.9,0C68.2,85.8,67,85.4,66.1,84.7z"/>
	<path class="st0" d="M64.5,77.1l0.1,2.4c-0.8,0.6-1.8,1-2.8,0.9c-1.2,0-2.5,0-3.7,0c-0.9,0-1.8-0.3-2.5-0.8v-2.4
		c0.7-0.6,1.6-1,2.5-1c1.3,0,2.5,0,3.8,0C62.9,76.2,63.7,76.5,64.5,77.1z"/>
	<path class="st0" d="M54.6,77.1l-0.2,2.4c-0.9,0.7-2,1-3.1,1c-1.2,0-2.3,0-3.5,0c-0.9,0.1-1.9-0.3-2.5-0.9l0.4-2.4
		c0.8-0.7,1.8-1,2.9-1c1.1,0,2.2,0,3.3,0C53,76.1,53.9,76.5,54.6,77.1z"/>
	<path class="st0" d="M74.8,79.4c-0.7,0.7-1.7,1-2.6,1c-1.2,0-2.4,0-3.6,0c-1.1,0-2.1-0.3-2.9-1l-0.2-2.4c0.7-0.6,1.6-1,2.5-0.9
		c1,0,2.1,0,3.1,0c1.1,0,2.2,0.3,3.1,0.9L74.8,79.4z"/>
	<path class="st0" d="M73.2,72.1l0.5,2.4c-0.6,0.7-1.4,1-2.3,1c-1.2,0-2.4,0-3.6,0c-1,0-1.9-0.3-2.6-1l-0.1-2.3c0.7-0.7,1.6-1,2.5-1
		c0.9,0,1.8,0,2.6,0C71.3,71.1,72.4,71.4,73.2,72.1z"/>
	<path class="st0" d="M46.9,72.1c2.3-1.4,6.6-1.4,8.2,0.1l-0.2,2.3c-0.8,0.6-1.7,0.9-2.7,0.9c-1.2,0-2.3,0-3.5,0
		c-0.9,0-1.7-0.3-2.3-0.9L46.9,72.1z"/>
	<path class="st0" d="M64.2,72.1l0.1,2.3c-0.7,0.6-1.7,1-2.6,0.9c-1.1,0-2.2,0-3.3,0c-0.9,0-1.7-0.3-2.4-0.8v-2.4
		c0.7-0.7,1.6-1,2.6-1c1,0,2,0,3,0C62.6,71.1,63.5,71.5,64.2,72.1z"/>
</g>
</svg>
