<?xml version="1.0" encoding="utf-8"?>
<!-- Generator: Adobe Illustrator 25.0.0, SVG Export Plug-In . SVG Version: 6.00 Build 0)  -->
<svg version="1.1" id="Layer_1" xmlns="http://www.w3.org/2000/svg" xmlns:xlink="http://www.w3.org/1999/xlink" x="0px" y="0px"
	 viewBox="0 0 135.2 71.5" style="enable-background:new 0 0 135.2 71.5;" xml:space="preserve">
<style type="text/css">
	.st0{fill:#FFFFFF;}
	.st1{fill:none;}
</style>
<polyline points="4.2,34.8 127.8,34.8 133.1,40 1.6,45.5 "/>
<circle class="st0" cx="102.1" cy="58.5" r="11.9"/>
<path d="M102.1,70.6c-6.6,0-12-5.4-12-12s5.4-12,12-12s12,5.4,12,12C114,65.2,108.7,70.6,102.1,70.6z M102.1,46.7
	c-6.5,0-11.8,5.3-11.8,11.8s5.3,11.8,11.8,11.8c6.5,0,11.8-5.3,11.8-11.8C113.9,52,108.6,46.7,102.1,46.7z"/>
<path d="M99.4,69.8c-0.2-0.9-0.2-1.8,0-2.6l0.2,0.1c-0.2,0.8-0.2,1.7,0,2.5L99.4,69.8z M107.6,66.2c-1.4,0-2.7-0.3-3.9-1l0.1-0.2
	c1.6,0.9,3.5,1.2,5.3,0.9v0.2C108.6,66.2,108.1,66.3,107.6,66.2z M96,63.7h-0.6c-1.3,0-2.6,0-3.6-1l0.1-0.1c1,1,2.2,1,3.5,1H96V63.7
	z M112,62.7c-0.1-2.1-0.2-4.2-1-5.7l0.2-0.1c0.8,1.5,0.9,3.7,1,5.8L112,62.7z M103.1,60.7l-0.1-0.2c1.6-1.4,3.1-3,4.4-4.7l0.2,0.1
	C106.2,57.7,104.7,59.3,103.1,60.7L103.1,60.7z M98.2,59.8c-1.5-2.3-2.1-4.4-1.8-6.2h0.2c-0.2,1.8,0.4,3.8,1.8,6.1L98.2,59.8z
	 M90.4,58.8l-0.1-0.1c0.3-2.1,1.3-4.1,3-5.5l0.1,0.2c-1.6,1.3-2.6,3.2-2.9,5.2h-0.1L90.4,58.8z M113.2,54.5
	c-0.4-0.4-0.9-0.6-1.4-0.7v-0.2c0.6,0,1.1,0.3,1.5,0.7L113.2,54.5z M105.7,51.9c-1.8-0.9-3.7-1.4-5.7-1.5h-0.3v-0.2h0.3
	c2,0.1,3.9,0.6,5.7,1.5L105.7,51.9z M94.5,50.8L93.7,50l0.1-0.1l0.8,0.8L94.5,50.8z M108.5,50c-0.7-1-1.5-1.9-2.5-2.7l0.1-0.2
	c1,0.7,1.9,1.7,2.5,2.7L108.5,50z M97.8,48.3l-0.2-0.1c1.3-1,2.8-1.6,4.4-1.7v0.2C100.6,46.8,99.1,47.4,97.8,48.3z"/>
<path d="M93.9,50c1.3-0.9,2.8-1.6,4.3-2.1c0.7,0.7,1.4,1.6,1.9,2.5c-1.3,1.2-2.5,2.5-3.6,3.8c-1.2,0-2.5-0.1-3.7-0.3
	C92.8,52.5,93.2,51.2,93.9,50z M108.5,49.8c1.4,1.2,2.6,2.5,3.6,4c-0.2,1.2-0.5,2.4-0.9,3.5c-1.2-0.2-2.7-0.6-4.1-1
	c-0.7-1.8-1.2-3.2-1.7-4.7C106.3,50.9,107.4,50.3,108.5,49.8z M92,65.1c-1.3-2.1-2-4.5-1.9-7h0.3c0.2,1.6,0.7,3.2,1.6,4.6
	c-0.2,0.8-0.1,1.6,0.3,2.3L92,65.1z M98,59.4c1.8,0.3,3.6,0.6,5.3,0.9c0.4,1.6,0.7,3.3,0.8,5c-1.3,1.1-3.1,1.4-4.7,2.1
	c-1.5-1-2.7-2.4-3.7-3.9C96.3,62.1,97.1,60.7,98,59.4L98,59.4z M113.2,62.8c-0.9,2.4-2.5,4.4-4.6,5.8H108c0.4-0.7,0.6-1.6,0.6-2.4
	c1.2-0.6,2.3-2.3,3.5-3.9C112.5,62.4,112.8,62.6,113.2,62.8z M101.7,70.5c-1.7,0-3.4-0.5-5-1.3c0.8,0.5,1.8,0.6,2.7,0.4
	C99.7,70,100.3,70.3,101.7,70.5z"/>
<rect x="4.9" y="41.3" transform="matrix(0.9991 -4.292191e-02 4.292191e-02 0.9991 -1.7453 2.1242)" class="st0" width="87.3" height="0.8"/>
<path d="M123.1,52c-2,0-3.7-1.6-3.7-3.7c0-2,1.6-3.7,3.7-3.7s3.7,1.6,3.7,3.7c0,0,0,0,0,0C126.7,50.4,125.1,52,123.1,52z
	 M123.1,45.4c-1.6,0-2.9,1.3-2.9,2.9s1.3,2.9,2.9,2.9c1.6,0,2.9-1.3,2.9-2.9C126,46.8,124.7,45.5,123.1,45.4L123.1,45.4L123.1,45.4z
	"/>
<path d="M122.9,48.1c0.2,0,0.3,0,0.4-0.1c0.2-0.2,0.2-0.5,0-0.8c-0.1-0.1-0.3-0.1-0.4-0.1h-0.4v1L122.9,48.1 M122.5,48.8v1.5h-1
	v-3.9h1.5c0.4,0,0.8,0.1,1.1,0.3c0.3,0.2,0.4,0.5,0.4,0.8c0,0.2-0.1,0.4-0.2,0.6c-0.1,0.2-0.3,0.3-0.6,0.4c0.1,0,0.3,0.1,0.4,0.2
	c0.1,0.1,0.2,0.3,0.3,0.5l0.5,1.1h-1l-0.5-1c-0.1-0.2-0.2-0.3-0.3-0.4c-0.1-0.1-0.2-0.1-0.4-0.1L122.5,48.8"/>
<line class="st1" x1="107.7" y1="46.6" x2="119.7" y2="45.4"/>
<rect x="107.6" y="45.9" transform="matrix(0.9948 -0.1014 0.1014 0.9948 -4.0778 11.7633)" width="12.1" height="0.2"/>
<line class="st1" x1="114.2" y1="61.9" x2="121" y2="52.7"/>
<polygon points="114.3,61.9 114.1,61.8 120.9,52.7 121.1,52.8 "/>
<line class="st1" x1="113.6" y1="51.8" x2="118.6" y2="49.8"/>
<polygon points="113.6,52 113.5,51.7 118.5,49.7 118.6,49.9 "/>
<polygon class="st1" points="19.2,59.8 19.2,60.7 21.6,60.6 21.6,59.7 "/>
<path class="st1" d="M21.6,51.9c0-0.9-0.4-1.4-1.2-1.4c-0.8,0-1.2,0.5-1.2,1.4v7.3l2.4-0.1L21.6,51.9z"/>
<path class="st1" d="M19.2,66.3c0,0.9,0.4,1.4,1.2,1.4c0.8,0,1.2-0.5,1.2-1.4l0-5.1l-2.4,0.1V66.3z"/>
<path d="M11.6,60.1l-5.5,0.2c0.4,0.3,0.7,0.6,1,0.8l5-0.2C11.9,60.7,11.8,60.4,11.6,60.1z"/>
<path d="M8.5,63.6v2.7c0,0.9-0.4,1.4-1.2,1.4s-1.2-0.5-1.2-1.4v-3.4h-4v3.4c0,3.5,1.7,5.2,5.2,5.2s5.2-1.7,5.2-5.2v-3
	c0-0.6-0.1-1.2-0.3-1.7l-4.6,0.2C8.3,62.4,8.5,63.1,8.5,63.6z"/>
<path d="M9.3,57.7C7.2,56.2,6.2,55,6.2,54v-2.1c0-0.9,0.4-1.4,1.2-1.4c0.8,0,1.2,0.5,1.2,1.4v3.4h4v-3.4c0-3.5-1.7-5.2-5.2-5.2
	c-3.5,0-5.2,1.7-5.2,5.2l0,2.2c0.1,2.3,1.2,4.4,3.1,5.6l5.9-0.2C10.7,58.8,10,58.2,9.3,57.7z"/>
<path d="M19.2,51.9c0-0.9,0.4-1.4,1.2-1.4c0.8,0,1.2,0.5,1.2,1.4l0,7.2l4-0.2v-7.1c0-3.5-1.7-5.2-5.2-5.2s-5.2,1.7-5.2,5.2v7.5
	l4-0.2V51.9z"/>
<path d="M21.6,66.3c0,0.9-0.4,1.4-1.2,1.4c-0.8,0-1.2-0.5-1.2-1.4v-5l-4,0.2v4.8c0,3.5,1.7,5.2,5.2,5.2c3.5,0,5.2-1.8,5.2-5.2v-5.2
	l-4,0.1L21.6,66.3z"/>
<polygon points="21.6,59.7 21.6,60.6 25.6,60.4 25.6,59.6 "/>
<polygon points="15.2,60 15.2,60.8 19.2,60.7 19.2,59.8 "/>
<path d="M28.2,66.3c0,3.5,1.7,5.2,5.2,5.2c3.5,0,5.2-1.8,5.2-5.2l0-3.4h-4v3.4c0,0.9-0.4,1.4-1.2,1.4c-0.8,0-1.2-0.5-1.2-1.4v-5.5
	L28.2,61V66.3z"/>
<path d="M32.3,51.9c0-0.9,0.4-1.4,1.2-1.4c0.8,0,1.2,0.5,1.2,1.4v3.4h4v-3.4c0-3.5-1.8-5.2-5.2-5.2c-3.5,0-5.2,1.7-5.2,5.2v7
	l4.1-0.2V51.9z"/>
<polygon points="28.2,59.5 28.2,60.3 32.3,60.2 32.3,59.3 "/>
<polygon points="45.5,47 41.5,47 41.5,58.3 45.5,58.2 "/>
<polygon points="41.5,71.1 45.5,71.1 45.5,60.3 41.5,60.5 "/>
<polygon points="41.5,59 41.5,59.8 45.5,59.7 45.5,58.8 "/>
<polygon points="48.7,58.7 48.7,59.6 57.3,59.2 57.3,58.4 "/>
<polygon points="48.7,71.1 58.1,71.1 58.1,67.3 52.7,67.3 52.7,61 57.3,61 57.3,59.9 48.7,60.2 "/>
<polygon points="57.3,57.1 52.7,57.1 52.7,50.9 58.1,50.9 58.1,47 48.7,47 48.7,58.1 57.3,57.7 "/>
<polygon points="62.9,58.2 62.9,59 66.9,58.9 66.9,58 "/>
<polygon points="66.9,50.9 70,50.9 70,47 59.7,47 59.7,50.9 62.9,50.9 62.9,57.5 66.9,57.4 "/>
<polygon points="62.9,71.1 66.9,71.1 66.9,59.5 62.9,59.7 "/>
<polygon points="75.4,60.7 75.5,61 75.5,71.1 79.5,71.1 79.5,61 79.5,60.7 80.1,59 74.9,59.2 "/>
<polygon points="83.8,47 79.5,47 77.5,56.3 75.4,47 71.1,47 74.2,57.1 80.7,56.9 "/>
<polygon points="74.7,58.6 80.3,58.4 80.5,57.5 74.4,57.7 "/>
<path d="M40,7.6C40.4,7.8,40.9,8,41.4,8c0.8,0,1.1-0.4,1.1-0.9s-0.3-0.8-1.1-1c-1.1-0.4-1.5-1-1.5-1.6c0-1,0.9-1.8,1.9-1.7
	c0,0,0.1,0,0.1,0c0.5,0,1,0.1,1.4,0.4l-0.2,0.8c-0.3-0.2-0.8-0.4-1.2-0.4c-0.6,0-1,0.4-1,0.8s0.3,0.7,1.1,1c1,0.4,1.5,0.9,1.5,1.7
	c0,1-0.8,1.8-2.2,1.8c-0.6,0-1.1-0.1-1.6-0.4L40,7.6z"/>
<path d="M44.9,4.7c0-0.8,0-1.3,0-1.9h0.9l0.1,1l0,0c0.4-0.7,1.2-1.2,2.1-1.1c1.4,0,2.5,1.2,2.5,2.9c0,2.1-1.3,3.1-2.7,3.1
	c-0.7,0-1.4-0.3-1.8-0.9l0,0V11h-1L44.9,4.7z M45.9,6.3c0,0.1,0,0.3,0,0.4C46.1,7.5,46.8,8,47.6,8c1.1,0,1.8-1,1.8-2.3
	c0-1.2-0.6-2.2-1.7-2.2c-0.8,0-1.5,0.5-1.6,1.3c0,0.1-0.1,0.3-0.1,0.4L45.9,6.3z"/>
<path d="M57,5.7c0.1,1.6-1,2.9-2.6,3.1c-0.1,0-0.2,0-0.3,0c-1.5,0-2.8-1.2-2.8-2.7c0-0.1,0-0.2,0-0.3c-0.1-1.6,1-2.9,2.6-3.1
	c0.1,0,0.2,0,0.3,0c1.5,0,2.8,1.2,2.8,2.7C57,5.5,57,5.6,57,5.7z M52.4,5.8C52.4,7,53.1,8,54.2,8s1.8-1,1.8-2.3c0-1-0.5-2.2-1.7-2.2
	S52.4,4.7,52.4,5.8L52.4,5.8z"/>
<path d="M58.3,4.7c0-0.7,0-1.3,0-1.8h0.9V4l0,0c0.2-0.7,0.9-1.3,1.7-1.3c0.1,0,0.2,0,0.3,0v1c-0.1,0-0.2,0-0.4,0
	c-0.7,0-1.3,0.6-1.4,1.3c0,0.2,0,0.3,0,0.5v3.1h-1.1V4.7z"/>
<path d="M63.8,1.5v1.4h1.5v0.8h-1.5v3.1c0,0.7,0.2,1.1,0.8,1.1c0.2,0,0.4,0,0.6-0.1l0.1,0.8c-0.3,0.1-0.6,0.1-0.9,0.1
	c-0.4,0-0.8-0.1-1.1-0.4c-0.3-0.4-0.5-1-0.4-1.5V3.7h-0.9V2.8h0.9V1.8L63.8,1.5z"/>
<path d="M67.7,1.2c0,0.4-0.3,0.6-0.6,0.7c0,0,0,0-0.1,0c-0.3,0-0.6-0.3-0.6-0.6c0,0,0,0,0,0c0-0.4,0.2-0.7,0.6-0.7
	c0.4,0,0.7,0.2,0.7,0.6C67.7,1.1,67.7,1.2,67.7,1.2z M66.5,8.6V2.8h1.1v5.8H66.5z"/>
<path d="M69.4,8.6v-5h-0.8V2.8h0.8V2.6c0-0.7,0.2-1.4,0.7-2C70.5,0.2,71,0,71.5,0c0.3,0,0.6,0.1,0.9,0.2L72.3,1
	c-0.2-0.1-0.4-0.1-0.7-0.1c-0.9,0-1.1,0.8-1.1,1.7v0.3h1.4v0.8h-1.4v5H69.4z"/>
<path d="M73.2,2.8l1.3,3.4c0.1,0.4,0.3,0.8,0.4,1.2l0,0c0.1-0.3,0.2-0.8,0.4-1.2l1.2-3.4h1.1L75.9,7c-0.8,2-1.3,3-2,3.6
	c-0.4,0.3-0.8,0.6-1.3,0.7l-0.3-0.9c0.3-0.1,0.7-0.3,0.9-0.5c0.4-0.3,0.7-0.7,0.9-1.2c0-0.1,0.1-0.2,0.1-0.2c0-0.1,0-0.2-0.1-0.3
	l-2.1-5.4H73.2z"/>
<path d="M10.9,27.9c3.2-3,8.3-7.5,12.3-11.2c-0.6-2.4-0.9-4.9-1-7.3c0-5.8,3.2-9.3,7.8-9.3c3.2-0.2,5.9,2.2,6.1,5.4
	c0,0.2,0,0.4,0,0.6c0,3.8-3.2,7.4-6.9,10.9c0.5,2.3,0.8,4.7,0.9,7c0,7.9-5.6,12.9-13,12.9c-2.5,0-5-0.6-7.2-1.9
	c-2,2-2.8,4.9-2.3,7.7H3.6C3,39.3,4.2,35.6,6.8,32.2c-1.5-2.1-2.3-4.6-2.2-7.2c0-9,8.4-13.6,15.3-10.1L18,19.6c-4-2-7.9,0.7-7.9,5.1
	C10.1,25.9,10.4,27,10.9,27.9z M24.1,21.7c-3.5,3.2-7.2,6.5-10,9.1c0.9,0.4,1.9,0.6,2.9,0.6c4.3,0,7.3-3.4,7.3-7.8
	C24.3,23.1,24.2,22.4,24.1,21.7z M28.2,11.8c2.1-2.2,3-3.7,3-5.1c0-0.7-0.2-1.5-1.3-1.5c-1.9,0-2,2.6-2,3.5
	C28,9.9,28.1,10.9,28.2,11.8z"/>
<path d="M57.6,24c-2.1,3.6-5.7,6.3-9.7,6c-2,2.5-5,3.9-8.2,3.9c-4.9,0-7.5-3-7.5-7.5c0-5.2,3.8-13.9,12.2-13.9
	c4.7,0,7.4,2.7,7.4,7.3c0,2.5-0.7,5-1.8,7.2c1.9-0.3,3.8-1.8,5.5-4.5C56.3,22.6,57.1,23.2,57.6,24z M42.4,27.9
	c-0.6-0.6-0.9-1.4-0.9-2.2c0-1.7,1.4-3.1,3.1-3.1c0.1,0,0.2,0,0.2,0c0.5-1.3,0.8-2.6,0.9-3.9c0-1.5-0.7-2-1.5-2
	c-3.1,0-6.1,8.2-6.1,11.1c0,1.2,0.6,2.1,1.5,2.1C40.8,29.6,41.8,28.9,42.4,27.9z"/>
<path d="M77.6,24c-2.7,4.7-7.4,9.8-15,9.8c-5.5,0-8.1-2.7-8.1-7c0-5.2,4-14.4,12.3-14.4c5.6,0,8.2,3.9,4.8,10.5h-6.2
	c2.2-4.6,2.4-5.6,1.1-5.6c-3.4,0-6.1,7-6.1,9.6s2.6,2.9,4,2.9c4,0,8.2-2.6,11-7.6C76.4,22.6,77.2,23.2,77.6,24z"/>
<path d="M97.7,24c-2.7,4.7-7.4,9.8-15,9.8c-5.5,0-8.1-2.7-8.1-7c0-5.2,4-14.4,12.3-14.4c5.6,0,8.2,3.9,4.8,10.5h-6.2
	c2.2-4.6,2.4-5.6,1.1-5.6c-3.4,0-6.1,7-6.1,9.6s2.6,2.9,4,2.9c4,0,8.2-2.6,11-7.6C96.5,22.6,97.3,23.2,97.7,24z"/>
<path d="M117.8,24c-2.7,4.7-7.4,9.8-15,9.8c-5.4,0-8.1-2.7-8.1-7c0-5.2,4-14.4,12.4-14.4c4.4,0,8.2,2.9,5.7,8.5
	c-1.7,3.6-4.8,5.8-12.1,4.9c0,0-1.1,4.1,3.8,4.1c4,0,8.2-2.6,11-7.6C116.5,22.6,117.3,23.2,117.8,24z M101.8,22.5
	c3.6,0.6,4.8-1,5.6-2.9c0.5-1.2,0.8-2.2-0.6-2.2C103.8,17.5,101.8,22.6,101.8,22.5L101.8,22.5z"/>
<path d="M115.6,22.4c0.9-1.5,2-3.8,3.1-6.3c-0.7-0.6-1.2-1.5-1.2-2.4c0-2,2.1-4.1,3.7-4.6l2.6,1.4l-1.3,3.1c1.6,1.4,6.4,3.6,6.4,6.6
	c0,0.7-0.2,1.4-0.5,2l-1.1,2.8c-1.8,4.4-0.9,5-0.3,5c1.1,0,3-2.4,6-7.6c0.9,0.2,1.8,0.7,2.2,1.6c-3,5.2-6.2,9.8-10.5,9.8
	c-3.1,0-6.3-2.3-3.5-9.2l1.3-3.2c0.2-0.4,0.3-0.9,0.3-1.4c0-0.8-0.9-1.5-1.9-2.4c-0.9,2.2-2,4.3-3.1,6.3
	C116.8,23.8,116,23.3,115.6,22.4z"/>
</svg>
