<svg xmlns="http://www.w3.org/2000/svg" viewBox="0 0 379.17 230.1"><defs><style>.cls-1,.cls-2,.cls-4,.cls-6{fill:#fff;}.cls-2{stroke:#231f20;stroke-width:4px;}.cls-2,.cls-3,.cls-4,.cls-5,.cls-7{stroke-miterlimit:10;}.cls-3{fill:#231f20;stroke-width:5px;}.cls-3,.cls-4{stroke:#b5121b;}.cls-4{stroke-width:0.53px;}.cls-5,.cls-7{fill:#e51b24;stroke:#fff;}.cls-6{font-size:15px;font-family:BlitzwingExpanded, Blitzwing Expanded;}.cls-7{stroke-width:0.53px;}</style></defs><g id="Layer_2" data-name="Layer 2"><g id="Layer_1-2" data-name="Layer 1"><path class="cls-1" d="M89.45,71.19h41.73a1.11,1.11,0,0,0,0-2.21h-.53a1.11,1.11,0,0,0,0,2.21h.53a1.11,1.11,0,0,0,0-2.21H89.45a1.11,1.11,0,0,0,0,2.21Z"/><path class="cls-2" d="M2,89v52.14a42.5,42.5,0,0,0,30.05,40.64l145.08,44.47a42.47,42.47,0,0,0,24.91,0l145.08-44.47a42.5,42.5,0,0,0,30.05-40.64V89a42.5,42.5,0,0,0-30.05-40.64L202,3.87a42.47,42.47,0,0,0-24.91,0L32.05,48.34A42.5,42.5,0,0,0,2,89Z"/><path class="cls-3" d="M12.8,88.12V142a34,34,0,0,0,24.33,32.57l143,42.27a33.94,33.94,0,0,0,19.26,0l143-42.27A34,34,0,0,0,366.7,142V88.12a34,34,0,0,0-24.33-32.57l-143-42.27a33.94,33.94,0,0,0-19.26,0l-143,42.27A34,34,0,0,0,12.8,88.12Z"/><path class="cls-4" d="M191.77,77.63c-6.08,1.31-11.64-.9-14.11-6.51-1.4-3.2-3.6-5-6.6-6.77a38.55,38.55,0,0,1-9.87-7.66c-5.17-6-3.19-13.71,4.31-17,3.55-1.57,5.58-3.88,7.62-6.88a40.55,40.55,0,0,1,8.82-9.9c6.23-4.63,13.65-2.83,16.74,3.95a14.42,14.42,0,0,0,7.64,7.49A32.72,32.72,0,0,1,213.19,39c8.13,6.79,6.23,16.72-4,20.68a7.92,7.92,0,0,0-4.31,3.76,57.23,57.23,0,0,1-6.35,9.15C196.7,74.64,194.05,76,191.77,77.63ZM198,29.87c-2.49-3.33-5.49-4.61-9.1-3.86-6.15,1.27-9.72,5.67-12.78,10.66,1.18-.12,2.5-.3,3.11-1C184.05,29.83,190.13,28,198,29.87ZM168.72,40.52c-3.32,2.07-4.78,4.63-4.5,7.89.57,6.55,5.39,9.9,10.7,12.91,0-1-.13-2.09-.75-2.54C167.87,54.21,166.4,48.18,168.72,40.52Zm33.42-3.77-.85.57a33,33,0,0,0,2.1,3c1.26,1.47,2.9,2.68,3.93,4.27,2.54,4,2.36,8.34.93,12.85a8,8,0,0,0,4-9.63C210.66,42.56,206.49,39.57,202.14,36.75ZM179.75,69.41a8.1,8.1,0,0,0,7.44,2.85c5-.51,11.41-5.49,13-10.52a13.6,13.6,0,0,0-2.76,1.57c-2.31,1.59-4.42,3.8-7,4.61C187.07,69,183.34,69,179.75,69.41ZM169.6,46.91l.47,1.17,11.27-2.52c-4-1.7-4.21-4.6-3.25-8.05C171.9,38.55,172.29,43.9,169.6,46.91Zm21.46-16.29c-2.23,4.64,1.84,7.75,1.24,11.6,1.83-3.35,4.65-4.11,8.68-3.15-.69-1.69-.81-3.3-1.69-3.9C196.78,33.47,194,32.19,191.06,30.62Zm5.32,22.27c3.14,1.82,3.11,4.69,2.64,8,5.7-1.37,5.6-6.39,8.41-9.7C203.15,49.54,200.08,52.48,196.38,52.89Zm-5.09-8.22-7.85,1.94,2.17,6.9,7.89-1.83Zm-6.83,11.56c-1.85,3.88-4.86,4-8.32,3.53,1.15,5.68,6.46,5.11,9.49,7.46l1.1-.56Zm16.42-10.57c-3.85-1.81-5-1.51-5.88,1.57Zm-15.77-8.25c-1.91,3.57-1.6,4.67,1.39,5.35Zm-8.59,15.53c3.23,1.69,4.5,1.31,5-1.57Zm13.95,2.29,1.78,5.63C193.13,58.43,193.83,56.57,190.47,55.23Z"/><path class="cls-5" d="M51.56,78.1v6.31l-7.89-.21V118l-9.91.4V83.92l-7.89-.23V77Q38.71,77.61,51.56,78.1Z"/><path class="cls-5" d="M57.38,78.31l9.92.34v38.48l-9.92.35Z"/><path class="cls-5" d="M75.49,116.87V78.92l9.92.29v31.41l13.44-.24v5.84Q87.17,116.51,75.49,116.87Z"/><path class="cls-5" d="M104.21,79.7q11.69.27,23.36.46v5.65q-6.72-.07-13.44-.17V95l11.56,0v5.68l-11.56,0v9.38c4.48-.07,9-.12,13.44-.18v5.65q-11.68.21-23.36.47Z"/><path class="cls-5" d="M165.07,94.6V92.28l9.92,0v2.31h5.36v5.49H175v7.58c0,4.76-3.67,7.24-11,7.48l-2,0c-1.25,0-2.34,0-3.25-.06-6.34-.39-9.51-2.83-9.51-7.35v-5.69q0-3.56,4-4.75-4-1.2-4-4.76V87.45q0-7,10.13-7.39c.88,0,1.77,0,2.69,0,.77,0,1.56,0,2.38,0,7,.33,10.52,2.81,10.52,7.48v1.79l-9.92,0v-1.8c0-1.2-.5-1.84-1.49-1.92a11.62,11.62,0,0,0-1.37-.08c-.42,0-.87,0-1.35,0-1.11.07-1.66.71-1.66,1.93v5.11c0,1,.62,1.57,1.87,1.86a5.38,5.38,0,0,0,1.08.12Zm-4.95,14.94a8.35,8.35,0,0,0,1.94.15l.71,0c1.53,0,2.3-.7,2.3-2V100.1h-2.92a5.38,5.38,0,0,0-1.08.12c-1.25.28-1.87.89-1.87,1.84v5.66C159.2,108.8,159.5,109.41,160.12,109.54Z"/><path class="cls-5" d="M201.46,87.57c0-5,4.28-7.44,12.84-7.5s12.87,2.38,12.87,7.39V92.4l-9.92,0V87.52c0-1.29-1-1.94-2.92-1.94h-.06c-1.92,0-2.89.66-2.89,2v3.07c0,1.41,2.54,3.16,7.63,5.28,5.44,2.24,8.16,5,8.16,8.12v4.31c0,5-4.28,7.48-12.84,7.42s-12.87-2.56-12.87-7.52v-4.89l9.92,0v4.9c0,1.3,1,2,3,2s2.92-.64,2.92-1.94V104.4q0-2.31-7.63-5.49-8.16-3.36-8.16-8.18Z"/><path class="cls-5" d="M258,80.05v5.69l-7.9.09V115.6q-5-.09-9.92-.15V85.93l-7.89.07V80.44Q245.11,80.29,258,80.05Z"/><path class="cls-5" d="M288.74,109c0,5.35-4.29,7.89-12.87,7.69s-12.84-2.88-12.84-8V87.14q0-7.73,12.84-8c8.58-.22,12.87,2.32,12.87,7.67Zm-9.92-22.08c0-1.36-1-2-2.92-2h-.06c-1.93,0-2.89.73-2.89,2.09v21.76c0,1.37,1,2.07,2.92,2.1s2.95-.64,2.95-2Z"/><path class="cls-5" d="M296.19,79.14c3.27-.09,6.53-.19,9.8-.3q3.3,9.28,6.61,18.77v-19l9.29-.32v39.17l-9.79-.34q-3.17-9.31-6.32-18.45v18.25l-9.59-.29Z"/><path class="cls-5" d="M329.94,78q11.67-.45,23.34-1v6.65l-13.42.39V94.65l11.55-.08v6.64l-11.55-.07v10.57q6.7.18,13.42.39v6.64q-11.67-.51-23.34-1Z"/><text class="cls-6" transform="translate(128.49 54.23) scale(0.77 1)">Since</text><path class="cls-7" d="M43.27,168.62a13.2,13.2,0,0,1-4.35-2.28,10.65,10.65,0,0,1-2.77-3.24,8.84,8.84,0,0,1-1-3.81,9,9,0,0,1,.74-3.95,18.34,18.34,0,0,1,2.22-3.76,24.65,24.65,0,0,1,3.44-3.7,29.75,29.75,0,0,1,4.41-3.22,23.11,23.11,0,0,1,5.15-2.29,21.93,21.93,0,0,1,5.71-.94,18.76,18.76,0,0,1,6.21.86,10.3,10.3,0,0,1,3.19,1.51,6.57,6.57,0,0,1,1.82,2,5.12,5.12,0,0,1,.64,2.27,6.42,6.42,0,0,1-.34,2.27,8.3,8.3,0,0,1-1.05,1.89,5.8,5.8,0,0,1-1.55,1.46,4.91,4.91,0,0,1-2,.76,5.28,5.28,0,0,1-2.34-.18,3.59,3.59,0,0,1-1.06-.6,4.27,4.27,0,0,1-.83-.86,3.85,3.85,0,0,1-.62-1.4,4.16,4.16,0,0,0,2.45-.58,6.83,6.83,0,0,0,1.7-1.47,9.1,9.1,0,0,0,1.31-2.23,2,2,0,0,0-.26-2.13,3.83,3.83,0,0,0-1.9-1.22,9.77,9.77,0,0,0-5.25.07,20.8,20.8,0,0,0-6,2.65,27.84,27.84,0,0,0-5.71,4.86,23.78,23.78,0,0,0-4.29,6.72,7.38,7.38,0,0,0-.66,3.08,5.17,5.17,0,0,0,.66,2.45,5.54,5.54,0,0,0,1.61,1.79,7.59,7.59,0,0,0,2.12,1.08,12.22,12.22,0,0,0,3.51.61,16.2,16.2,0,0,0,3.26-.26,15.77,15.77,0,0,0,2.69-.74,11.27,11.27,0,0,0,1.85-.87,1.54,1.54,0,0,1,.92-.27,1.07,1.07,0,0,1,.69.26.71.71,0,0,1,.27.56c0,.22-.13.43-.42.65a17,17,0,0,1-2.77,1.5A17.86,17.86,0,0,1,51.18,169a16.69,16.69,0,0,1-3.85.32A13.84,13.84,0,0,1,43.27,168.62Z"/><path class="cls-7" d="M87.71,167.5a30.27,30.27,0,0,1-8.85,3.29,26.47,26.47,0,0,1-4.91.55,16.83,16.83,0,0,1-4.62-.53,10.35,10.35,0,0,1-2.35-1,8,8,0,0,1-2.08-1.69,5.3,5.3,0,0,1-1.18-2.28,4.11,4.11,0,0,1,.41-2.79,6.6,6.6,0,0,1,2.07-2.38,15,15,0,0,1,3.41-1.9,16,16,0,0,1,4.1-1.05,11.2,11.2,0,0,1,4.18.24,5.06,5.06,0,0,1,2.59,1.31,1.59,1.59,0,0,1,.37,1.68,3.63,3.63,0,0,1-1.35,1.6,8.83,8.83,0,0,1-2.13,1.06,16.28,16.28,0,0,1-2.47.66c-.85.16-1.66.3-2.41.42l-2.38.34c-.76.1-1.42.2-2,.29a2.46,2.46,0,0,0,.08,1.46,3.28,3.28,0,0,0,.77,1.15,4.61,4.61,0,0,0,1.28.85,8.39,8.39,0,0,0,1.57.57,10.59,10.59,0,0,0,3.82.26,26,26,0,0,0,4.14-.73,36.8,36.8,0,0,0,3.88-1.21c1.2-.46,2.21-.86,3-1.22a1.68,1.68,0,0,1,.81-.13,1,1,0,0,1,.59.2.39.39,0,0,1,.14.44A1,1,0,0,1,87.71,167.5ZM76,159.42a3.57,3.57,0,0,0-1.53,0,7.25,7.25,0,0,0-1.93.66,10.48,10.48,0,0,0-2,1.34,7.83,7.83,0,0,0-1.72,2.08c.45-.08,1-.16,1.47-.23l1.6-.27a13.66,13.66,0,0,0,3.52-1,3,3,0,0,0,1.32-1.12,1,1,0,0,0,0-.93A1.29,1.29,0,0,0,76,159.42Z"/><path class="cls-7" d="M97.65,177.5a6.49,6.49,0,0,1-2-.7,3.75,3.75,0,0,1-1.23-1A2,2,0,0,1,94,174.6a2.07,2.07,0,0,1,.38-1.24,12.28,12.28,0,0,1,.78-1.1c.35-.46.72-.95,1.1-1.49s.75-1.08,1.1-1.62a7.5,7.5,0,0,0,.77-1.52,2.26,2.26,0,0,0,.15-1.21.85.85,0,0,0-.76-.65,4.88,4.88,0,0,0-1.75,0,11.33,11.33,0,0,0-2,.54,20.89,20.89,0,0,0-2.08,1c-.71.37-1.41.76-2.11,1.16-.48.66-.88,1.24-1.22,1.74l-.88,1.35c-.26.41-.5.76-.71,1.06s-.41.58-.59.86a1.73,1.73,0,0,1-1.08.41,11.22,11.22,0,0,1-1.77.11,7.71,7.71,0,0,1-1.58-.17c-.43-.1-.58-.24-.47-.42s.25-.38.55-.78.66-.88,1.06-1.43.83-1.12,1.27-1.74.85-1.21,1.24-1.78.61-1,1-1.5.65-1,1.07-1.65.88-1.3,1.41-2a3.12,3.12,0,0,1,.8-.14,5.61,5.61,0,0,1,.82,0,5.47,5.47,0,0,1,.89.06c.27.06.54.13.8.21s.47.17.71.28a2.52,2.52,0,0,1,.62.39,6.28,6.28,0,0,0-.49.55c-.2.24-.39.49-.6.76a9.85,9.85,0,0,1-.74,1,17.11,17.11,0,0,1,1.76-.84,12.82,12.82,0,0,1,4.33-1,8.79,8.79,0,0,1,2.34.16,4.11,4.11,0,0,1,1.65.7,3,3,0,0,1,1,1.22,3.24,3.24,0,0,1,.21,1.6,3.89,3.89,0,0,1-.77,1.83l-.85,1.31c-.27.42-.59.91-1,1.47s-.84,1.17-1.37,1.83a2.28,2.28,0,0,0-.49,1.18q0,.53.9.72a5.75,5.75,0,0,0,2.51-.25,22.82,22.82,0,0,0,3.22-1.16c1.09-.49,2.14-1,3.13-1.55s1.75-1,2.27-1.35a2.63,2.63,0,0,1,1-.39,1,1,0,0,1,.65.08.43.43,0,0,1,.15.48,1.54,1.54,0,0,1-.57.78,14.27,14.27,0,0,1-1.32,1,22.73,22.73,0,0,1-2.08,1.26c-.8.44-1.65.87-2.56,1.29a19.75,19.75,0,0,1-2.8,1.08,16.81,16.81,0,0,1-2.81.63A7.46,7.46,0,0,1,97.65,177.5Z"/><path class="cls-7" d="M127.56,173.33a1,1,0,0,1,.58-.16.93.93,0,0,1,.53.12.39.39,0,0,1,.19.36,1,1,0,0,1-.37.58,23,23,0,0,1-3.12,2.29,38,38,0,0,1-4,2.16,26,26,0,0,1-4,1.49,7.69,7.69,0,0,1-3.13.33,8.49,8.49,0,0,1-2.82-.91,5.32,5.32,0,0,1-1.61-1.36,3.29,3.29,0,0,1-.67-1.5,2.67,2.67,0,0,1,.09-1.37,17,17,0,0,1,.71-1.8c.37-.86.83-1.85,1.39-3s1.16-2.31,1.83-3.59,1.34-2.5,2-3.68l-1.74-.16c-.58-.06-1.11-.13-1.58-.21a18.62,18.62,0,0,1-3-.8,16.2,16.2,0,0,1-2-.87c-.25-.14-.34-.28-.28-.44a1,1,0,0,1,.4-.43,2.24,2.24,0,0,1,.7-.3,1.63,1.63,0,0,1,.71-.05c.63.16,1.31.33,2,.49s1.53.32,2.41.45c.64.09,1.26.17,1.85.23s1.19.1,1.77.13a29.36,29.36,0,0,1,1.74-2.5,6.43,6.43,0,0,1,1.39-1.42,1.43,1.43,0,0,1,.72-.17,9,9,0,0,1,1.15,0,6.79,6.79,0,0,1,1.14.18,1.49,1.49,0,0,1,.76.37c.14.19.14.65,0,1.36a12.72,12.72,0,0,1-1,2.65c1.41.22,2.65.45,3.73.71s2,.5,2.76.73,1.36.43,1.82.61.8.32,1,.39.34.2.34.38a.9.9,0,0,1-.23.52,1.33,1.33,0,0,1-.65.39,1.55,1.55,0,0,1-.93,0c-.34-.07-.71-.16-1.13-.29s-.91-.25-1.5-.37l-2.08-.44c-.81-.16-1.75-.33-2.83-.49l-.69-.09c-.25,0-.51-.06-.78-.11l-.55,1a7.21,7.21,0,0,1-.65,1c-.58.8-1.25,1.66-2,2.58s-1.45,1.72-2.36,2.75-1.94,2.11-3.07,3.26a3.21,3.21,0,0,0-.3,2.13,2.58,2.58,0,0,0,.78,1.22,3.77,3.77,0,0,0,1.61.67,4.79,4.79,0,0,0,2,0,15.06,15.06,0,0,0,2.51-.72c.87-.33,1.76-.71,2.66-1.13s1.73-.84,2.51-1.26,1.44-.8,2-1.15Z"/><path class="cls-7" d="M121.24,180.67a1.83,1.83,0,0,1-.89.35,1.63,1.63,0,0,1-.79-.09.62.62,0,0,1-.4-.41c0-.19.07-.39.32-.62l.85-.77,1.56-1.44,2-1.84,2-1.89c.63-.6,1.21-1.13,1.73-1.6l1.15-1c-.35-.27-.59-.47-.71-.58a1.13,1.13,0,0,1-.22-.68,1.65,1.65,0,0,1,.47-1.07,6.47,6.47,0,0,1,1.26-1.17,7.57,7.57,0,0,1,1.63-.89,3.27,3.27,0,0,1,1.64-.25,2.82,2.82,0,0,1,1.94.84,2.36,2.36,0,0,1,.54,1.3,2.1,2.1,0,0,1-.24,1.06,2.7,2.7,0,0,1-.92,1.08,2.75,2.75,0,0,0,.39.2,2.91,2.91,0,0,0,.81.19,7.23,7.23,0,0,0,1.17.07,8,8,0,0,1,1.06.06A3.26,3.26,0,0,1,139,172a3,3,0,0,1,.85.79,2.82,2.82,0,0,1,.44.95,4,4,0,0,1,.14.89,2,2,0,0,1-.87,1.63c-.63.52-1.38,1.09-2.27,1.69a19.78,19.78,0,0,0-1.64,1.3,1.9,1.9,0,0,0-.82,1.39,1.41,1.41,0,0,0,.29.73c.15.2.63.35,1.44.44a5.6,5.6,0,0,0,2-.18,15.71,15.71,0,0,0,2.33-.8,24,24,0,0,0,2.39-1.17c.79-.44,1.52-.87,2.2-1.3s1.26-.82,1.73-1.17l1.05-.76a1.35,1.35,0,0,1,.71-.3,1.43,1.43,0,0,1,.73.07.53.53,0,0,1,.35.43c0,.2-.12.45-.46.75s-.62.52-1.17.95-1.22.91-2,1.43-1.64,1-2.58,1.58a25.13,25.13,0,0,1-3,1.41,19,19,0,0,1-3,.94,8.69,8.69,0,0,1-2.84.16,6.46,6.46,0,0,1-2.23-.61,4.71,4.71,0,0,1-1.35-1,2.79,2.79,0,0,1-.65-1.15,2.11,2.11,0,0,1,0-1.08,2.07,2.07,0,0,1,.45-.79,8.91,8.91,0,0,1,.81-.83q.45-.42,1-.84c.33-.27.64-.55.93-.83.67-.55,1.21-1,1.63-1.44a2,2,0,0,0,.69-1.06.8.8,0,0,0-.15-.55.85.85,0,0,0-.64-.31l-.44,0-.26,0-.37,0-.7-.07a4.35,4.35,0,0,1-1.12-.28,8.88,8.88,0,0,0-.85-.31c-.16.14-.51.42-1.06.86L128.67,175c-.73.59-1.51,1.2-2.33,1.84s-1.59,1.23-2.32,1.78L122.18,180C121.67,180.37,121.36,180.6,121.24,180.67Z"/><path class="cls-7" d="M172.68,179.18c-.51.42-1.16.94-2,1.55s-1.64,1.22-2.5,1.83-1.7,1.15-2.53,1.64a10.66,10.66,0,0,1-2.05,1,7.83,7.83,0,0,1-1.25.26,9.52,9.52,0,0,1-1.42.07,7.17,7.17,0,0,1-1.35-.14,4.36,4.36,0,0,1-1.09-.35,2.16,2.16,0,0,1-.75-.72,4.24,4.24,0,0,1-.43-1,3.41,3.41,0,0,1-.07-1.49,9.09,9.09,0,0,1-3,1.81,15.47,15.47,0,0,1-3,.79,16.58,16.58,0,0,1-3.22.14,4.57,4.57,0,0,1-1.56-.46,3.23,3.23,0,0,1-1.89-2.93,5.12,5.12,0,0,1,.69-2.5A10.49,10.49,0,0,1,148,175.3a19.12,19.12,0,0,1,3.71-2.49,17.49,17.49,0,0,1,3.81-1.45,8.66,8.66,0,0,1,3-.3,9.11,9.11,0,0,1,2.23.68,1.76,1.76,0,0,1,.89,1c.12.43-.2,1-1,1.63.49,0,.89,0,1.22,0l.76,0a1.35,1.35,0,0,1,.41.06.58.58,0,0,1,0,.28,3.45,3.45,0,0,1-.21.76c-.13.37-.32.86-.57,1.48s-.58,1.43-1,2.41l-.22.53c-.06.17-.12.33-.19.49l-.22.56c-.09.21-.19.48-.32.8a2.62,2.62,0,0,0-.07.64,1.58,1.58,0,0,0,.14.65,1.1,1.1,0,0,0,.47.51,2.1,2.1,0,0,0,1,.25,3.41,3.41,0,0,0,1.4-.33,14.79,14.79,0,0,0,1.86-.94c.66-.39,1.34-.83,2.06-1.31s1.37-.95,2-1.4l1.66-1.21c.49-.35.84-.61,1.06-.78a2,2,0,0,1,.85-.31.74.74,0,0,1,.62.18.53.53,0,0,1,.06.59A2.37,2.37,0,0,1,172.68,179.18Zm-15.45.57c.2-.43.45-.93.74-1.5s.54-1.13.75-1.66.38-1,.49-1.34.1-.53,0-.51l-.58,0a3.2,3.2,0,0,1-.68.05c-.28,0-.56,0-.84,0a2.39,2.39,0,0,0,.56-.83,1.28,1.28,0,0,0,.07-.54.62.62,0,0,0-.18-.38c-.36-.22-1-.12-2,.32A14,14,0,0,0,152,176a7.6,7.6,0,0,0-1.42,1.71,8.28,8.28,0,0,0-.82,1.76,4,4,0,0,0-.22,1.49,1.18,1.18,0,0,0,.34.87,2.32,2.32,0,0,0,1.29.46,5.37,5.37,0,0,0,1.53-.13,10.05,10.05,0,0,0,1.58-.52,12.08,12.08,0,0,0,1.44-.71,10.19,10.19,0,0,0,1.06-.71A1.93,1.93,0,0,0,157.23,179.75Z"/><path class="cls-7" d="M168.07,185c1.77-4,3.14-7.18,4.17-9.6s1.79-4.27,2.32-5.54c.61-1.52,1-2.57,1.25-3.16q.16-.61.3-1.2a6.37,6.37,0,0,0,.13-1.09,3,3,0,0,0-.11-1,5.49,5.49,0,0,1,.89-.24c.33,0,.64-.1.94-.13s.75-.1,1.12-.13a7.21,7.21,0,0,1,1,0,5.79,5.79,0,0,1,.76.07c.24,0,.39.11.45.22a.64.64,0,0,1,.26.67,6.28,6.28,0,0,1-.15,1c-.14.41-.31.86-.49,1.33-.43.94-1,2.29-1.79,4l-2.7,6.11c-1.15,2.58-2.61,5.82-4.41,9.73a2.07,2.07,0,0,1-.65.2,4.28,4.28,0,0,1-.7,0c-.25,0-.51,0-.8-.07a4.1,4.1,0,0,1-.73-.23,3.62,3.62,0,0,1-.62-.37A1.33,1.33,0,0,1,168.07,185Z"/><path class="cls-7" d="M215.78,173.92l2-2.87c.67-1,1.27-1.83,1.8-2.66s1-1.56,1.34-2.21a4.4,4.4,0,0,0,.61-1.54,1.4,1.4,0,0,0-.22-1,1.73,1.73,0,0,0-.87-.64,5.89,5.89,0,0,0-1.4-.32,10.72,10.72,0,0,0-1.75-.08c-1.11,0-2.43.1-4,.25s-3,.36-4.41.62a19.12,19.12,0,0,0-3.64,1c-1,.4-1.56.88-1.62,1.43a1.05,1.05,0,0,0,.28.81,2.45,2.45,0,0,0,1,.54,5.28,5.28,0,0,0,2.07.13c.17,0,.38,0,.62-.05l.76-.11,1.06-.19L207,169.28a2.9,2.9,0,0,1-1.52.84,6,6,0,0,1-1.48.11c-.25,0-.72-.08-1.42-.2a11.61,11.61,0,0,1-2.12-.55,5.61,5.61,0,0,1-1.84-1,1.77,1.77,0,0,1-.64-1.68,3.6,3.6,0,0,1,1.55-2.22,13.06,13.06,0,0,1,3.78-1.81,38.66,38.66,0,0,1,5.82-1.3q3.39-.52,7.66-.76a25,25,0,0,1,5.16.13,7.2,7.2,0,0,1,2.87.95,2,2,0,0,1,1,1.58,3.84,3.84,0,0,1-.48,2c-.18.32-.45.76-.8,1.33s-.77,1.22-1.27,2-1,1.57-1.59,2.46-1.12,1.83-1.68,2.78h2.57l1.85,0c.53.05.71.18.55.39a3.85,3.85,0,0,1-.84.95,2.75,2.75,0,0,1-.93.48,4.47,4.47,0,0,1-1.14.17l-1.41,0-.94,0h-1c-.6,1-1.18,2-1.74,3s-1.07,1.94-1.53,2.83-.88,1.71-1.23,2.45a10.33,10.33,0,0,0-.71,1.85,16.1,16.1,0,0,0-.39,1.93,10.32,10.32,0,0,0,0,1.58,1.89,1.89,0,0,0,.49,1.3l-1.95.41c-.55.11-1,.2-1.42.26l-1.07.2a4,4,0,0,1-2.13,0q-.63-.26-.39-1.32a13.34,13.34,0,0,1,1-3.7,24.45,24.45,0,0,1,1.24-2.58,36.2,36.2,0,0,1,2-3.19c.47-.68,1-1.43,1.59-2.26s1.21-1.72,1.86-2.68c-1.53.08-3.17.22-4.94.41l-2.86.4-2.57.45c-.92.17-1.78.35-2.57.54a1.25,1.25,0,0,1-.2-.52,1.65,1.65,0,0,1,0-.5,2.06,2.06,0,0,1,.15-.46,1.54,1.54,0,0,1,.3-.47,8.19,8.19,0,0,1,1-1c1.63-.17,3.18-.31,4.67-.43l3.93-.31q2-.15,3.78-.24a2.55,2.55,0,0,1,.44,0A3.21,3.21,0,0,0,215.78,173.92Z"/><path class="cls-7" d="M227.09,184.29q1.86-6.25,2.9-10t1.6-5.79c.41-1.58.69-2.67.84-3.28.06-.43.11-.84.14-1.24a5,5,0,0,0,0-1.09,3.12,3.12,0,0,0-.24-1,4.82,4.82,0,0,1,.86-.35l.91-.25,1.09-.27c.37-.07.7-.13,1-.16a5,5,0,0,1,.76,0,.63.63,0,0,1,.48.17.65.65,0,0,1,.34.63,7.17,7.17,0,0,1,0,1c-.09.42-.2.89-.32,1.39-.3,1-.73,2.39-1.26,4.23-.47,1.56-1.1,3.7-1.91,6.39s-1.84,6.1-3.12,10.2a2.08,2.08,0,0,1-.62.28,4.77,4.77,0,0,1-.69.12c-.24,0-.51,0-.8,0a4,4,0,0,1-.75-.14,4.24,4.24,0,0,1-.67-.29A1.35,1.35,0,0,1,227.09,184.29Z"/><path class="cls-7" d="M254.71,176.65a9.75,9.75,0,0,1-1.09,2.51,9,9,0,0,1-1.88,2.13,10.45,10.45,0,0,1-2.64,1.58,12.17,12.17,0,0,1-3.36.84,8.19,8.19,0,0,1-3.47-.19,4.66,4.66,0,0,1-2-1.23,4.22,4.22,0,0,1-.93-1.79,14.47,14.47,0,0,1-.33-1.89,4.31,4.31,0,0,1,.09-1.4,9.16,9.16,0,0,1,.49-1.61,9.79,9.79,0,0,1,.89-1.68,8.88,8.88,0,0,1,1.37-1.6,2.94,2.94,0,0,1,.84-1.09,6.48,6.48,0,0,1,1.41-.87,12.39,12.39,0,0,1,1.78-.64,12.74,12.74,0,0,1,1.88-.37.66.66,0,0,1,.28,0l.29,0a7.23,7.23,0,0,1,1.71.11,8.19,8.19,0,0,1,2.07.63,6,6,0,0,1,1.82,1.27,3.58,3.58,0,0,1,1,2.08,3.9,3.9,0,0,1,0,.64c0,.25,0,.47,0,.65.77-.3,1.56-.66,2.38-1.06s1.61-.83,2.38-1.26,1.45-.87,2.09-1.3a15.9,15.9,0,0,0,1.51-1.13,2.29,2.29,0,0,1,.81-.46.63.63,0,0,1,.54,0,.43.43,0,0,1,.12.45,1.52,1.52,0,0,1-.45.74c-.16.16-.55.49-1.19,1s-1.41,1-2.31,1.65-1.88,1.2-3,1.8A21.92,21.92,0,0,1,254.71,176.65Zm-12.08,2.27a6.18,6.18,0,0,0,.24,1.15,2.47,2.47,0,0,0,.53,1,2.55,2.55,0,0,0,.93.63,2.94,2.94,0,0,0,1.4.12,5.15,5.15,0,0,0,1.71-.48,5.94,5.94,0,0,0,1.33-.89,6.45,6.45,0,0,0,1-1.15,9.18,9.18,0,0,0,.71-1.3l-.7.14-.76.11a7.4,7.4,0,0,1-3.51-.33,5.89,5.89,0,0,1-2.44-1.63,13.89,13.89,0,0,0-.37,1.4A4.21,4.21,0,0,0,242.63,178.92Zm2.66-6.13a1.4,1.4,0,0,0-.08.64,5.54,5.54,0,0,0,.24,1.08,2,2,0,0,0,.64,1,3,3,0,0,0,1.42.61,7.73,7.73,0,0,0,2.56,0,4.34,4.34,0,0,0,.52-.08l.52-.11q.09-.45.18-.81a1.72,1.72,0,0,0,.05-.62,4,4,0,0,0-.17-1.27,3.75,3.75,0,0,0-.54-1.14,2.73,2.73,0,0,0-.84-.79,1.59,1.59,0,0,0-1.1-.21,5.28,5.28,0,0,0-1.83.57A6.32,6.32,0,0,0,245.29,172.79Z"/><path class="cls-7" d="M259,181.17a1.77,1.77,0,0,1-.74.58,1.7,1.7,0,0,1-.79.15.61.61,0,0,1-.5-.28c-.09-.16-.05-.39.12-.68l.58-1,1.07-1.83,1.33-2.33,1.36-2.38c.42-.75.82-1.43,1.18-2s.63-1,.8-1.31c-.42-.16-.7-.27-.85-.35a1.06,1.06,0,0,1-.41-.59,1.59,1.59,0,0,1,.13-1.15,6.4,6.4,0,0,1,.87-1.49,7.32,7.32,0,0,1,1.29-1.32,3.23,3.23,0,0,1,1.5-.71,2.87,2.87,0,0,1,2.1.25,2.28,2.28,0,0,1,.9,1.09,2.14,2.14,0,0,1,.08,1.08,2.72,2.72,0,0,1-.56,1.3l.43.08a3.4,3.4,0,0,0,.83-.06,6.62,6.62,0,0,0,1.14-.26,6.09,6.09,0,0,1,1-.25,3.3,3.3,0,0,1,1.48,0,3.26,3.26,0,0,1,1,.51,3,3,0,0,1,.7.78,3.55,3.55,0,0,1,.39.82,1.94,1.94,0,0,1-.35,1.8,27,27,0,0,1-1.66,2.27,20.59,20.59,0,0,0-1.19,1.72,1.85,1.85,0,0,0-.36,1.57,1.43,1.43,0,0,0,.49.61c.2.15.7.15,1.51,0a5.51,5.51,0,0,0,1.88-.75,16.26,16.26,0,0,0,2-1.44c.66-.56,1.31-1.16,1.93-1.8s1.2-1.27,1.72-1.88.95-1.14,1.3-1.61.61-.82.78-1a1.31,1.31,0,0,1,.59-.49,1.42,1.42,0,0,1,.72-.15.54.54,0,0,1,.46.31c.09.18,0,.47-.22.85s-.44.67-.84,1.25-.89,1.22-1.48,1.94-1.25,1.47-2,2.25a22.85,22.85,0,0,1-2.4,2.2,17.9,17.9,0,0,1-2.64,1.77,8.43,8.43,0,0,1-2.67,1,6.52,6.52,0,0,1-2.31.06,4.79,4.79,0,0,1-1.58-.55,3,3,0,0,1-1-.91,2.24,2.24,0,0,1-.36-1,2.05,2.05,0,0,1,.2-.88,11,11,0,0,1,.52-1c.21-.36.43-.72.67-1.08s.46-.72.64-1.06c.48-.73.86-1.35,1.14-1.85a1.94,1.94,0,0,0,.34-1.21.76.76,0,0,0-.29-.49.93.93,0,0,0-.71-.11l-.44.09a1,1,0,0,1-.25.06l-.36.08c-.15,0-.38.08-.69.13a3.89,3.89,0,0,1-1.15.06c-.32,0-.62-.05-.91-.05-.11.17-.36.55-.76,1.13s-.86,1.25-1.39,2L262.78,176l-1.69,2.37-1.35,1.86C259.37,180.76,259.14,181.06,259,181.17Z"/><path class="cls-7" d="M284.57,164.31a2.63,2.63,0,0,1,.89-.52c.46-.18.93-.35,1.42-.51s.95-.29,1.37-.4a5,5,0,0,1,.74-.14s0,.26-.11.73-.24,1-.42,1.68-.37,1.31-.58,2-.35,1.24-.44,1.66-.2.9-.34,1.43-.25,1.05-.34,1.55a6.19,6.19,0,0,0-.1,1.39,1.14,1.14,0,0,0,.35.9,1.51,1.51,0,0,0,.68.41,1.7,1.7,0,0,0,.71,0,6.87,6.87,0,0,0,2.46-1.27,28.43,28.43,0,0,0,2.81-2.38c.93-.9,1.77-1.79,2.53-2.67a25,25,0,0,0,1.66-2.09,2.16,2.16,0,0,1,.74-.62,1.14,1.14,0,0,1,.71-.13.49.49,0,0,1,.41.34,1,1,0,0,1-.17.75,18.06,18.06,0,0,1-1.88,2.69,41,41,0,0,1-2.83,3.15,30.47,30.47,0,0,1-3.1,2.73,8,8,0,0,1-2.65,1.44,6.69,6.69,0,0,1-1.78.18,7,7,0,0,1-1.69-.26,4.43,4.43,0,0,1-1.35-.63,1.82,1.82,0,0,1-.73-.95,7.44,7.44,0,0,1-.45-2.21,18.43,18.43,0,0,1,0-3,17.08,17.08,0,0,1,.47-3A5.71,5.71,0,0,1,284.57,164.31ZM290,156a1.83,1.83,0,0,1-.42.82,3.68,3.68,0,0,1-.82.75,4.17,4.17,0,0,1-1,.51,1.52,1.52,0,0,1-.93.06c-.77-.19-1.22-.49-1.34-.88a1.45,1.45,0,0,1,.21-1.22,4.33,4.33,0,0,1,1-1.16,4,4,0,0,1,1.2-.72,1.47,1.47,0,0,1,.94,0,1.44,1.44,0,0,1,.69.42,1.63,1.63,0,0,1,.4.7A1.57,1.57,0,0,1,290,156Z"/><path class="cls-7" d="M312.18,164.05c0,.7,0,1.37,0,2a9.13,9.13,0,0,0,.12,1.5,1.25,1.25,0,0,0,.77,1,2,2,0,0,0,1.22,0,4.62,4.62,0,0,0,1.64-.92,23.65,23.65,0,0,0,1.9-1.72c.65-.66,1.28-1.36,1.9-2.11s1.19-1.45,1.7-2.12.94-1.24,1.29-1.73.58-.81.71-1a1.48,1.48,0,0,1,.56-.41,1.13,1.13,0,0,1,.54-.09.36.36,0,0,1,.31.28,1.07,1.07,0,0,1-.21.75c-.27.52-.65,1.14-1.12,1.87s-1,1.48-1.62,2.27-1.26,1.59-2,2.38a26.28,26.28,0,0,1-2.17,2.18,19.06,19.06,0,0,1-2.22,1.72,7.12,7.12,0,0,1-2.07,1,3.67,3.67,0,0,1-1.43.11,4.91,4.91,0,0,1-1.34-.36,3.32,3.32,0,0,1-1-.72,1.73,1.73,0,0,1-.5-1c0-.16,0-.43-.05-.8a22.21,22.21,0,0,1-3.71,3.47,11.37,11.37,0,0,1-4,1.9,6.27,6.27,0,0,1-1.61.14,4.25,4.25,0,0,1-1.65-.39,3.87,3.87,0,0,1-2.16-3.06,8.2,8.2,0,0,1,.34-3.79,11.6,11.6,0,0,1,1.87-3.5,13.29,13.29,0,0,1,3-2.79,11.73,11.73,0,0,1,3.7-1.68,4.31,4.31,0,0,1,1.62-.13,4.26,4.26,0,0,1,1.38.39,4.62,4.62,0,0,1,1.08.72,4.82,4.82,0,0,1,.73.83c.07-.67.12-1.34.16-2s.09-1.26.14-1.85c.12-.87.23-1.81.35-2.82s.24-1.87.39-3,.32-2.33.52-3.6a4.87,4.87,0,0,1,.82-.63,6,6,0,0,1,.77-.42,3.57,3.57,0,0,1,.8-.33,4.61,4.61,0,0,1,.89-.17,1.19,1.19,0,0,1,.78.23,2.25,2.25,0,0,1,.65.89,8.33,8.33,0,0,1,.52,1.8,10.38,10.38,0,0,1,.13,3.25,23.19,23.19,0,0,1-.78,3.9,33.55,33.55,0,0,1-1.51,4.22A37,37,0,0,1,312.18,164.05Zm-2.88,1.2c0-.44.05-.88.06-1.31a13,13,0,0,1,.1-1.35.74.74,0,0,0-.16.11l-.16.11c-.34.2-.6.26-.76.18a.69.69,0,0,1-.35-.51c0-.12-.11-.35-.24-.67a3.61,3.61,0,0,0-.54-.94,2.5,2.5,0,0,0-.92-.75A1.88,1.88,0,0,0,305,160a4.58,4.58,0,0,0-2.17,1.34,13.2,13.2,0,0,0-1.81,2.38,12,12,0,0,0-1.21,2.71,5.65,5.65,0,0,0-.28,2.37,2.72,2.72,0,0,0,1.15,2.06,2.84,2.84,0,0,0,2.12.2,5.49,5.49,0,0,0,1.92-.94,15.72,15.72,0,0,0,1.87-1.62,23.33,23.33,0,0,0,1.59-1.8C308.63,166.14,309,165.64,309.3,165.25Z"/><path class="cls-7" d="M346.56,153.13c-.31.57-.71,1.29-1.22,2.16s-1,1.73-1.61,2.61-1.13,1.7-1.71,2.46a11,11,0,0,1-1.51,1.7,7.08,7.08,0,0,1-1.05.7,10.81,10.81,0,0,1-1.29.59,7.52,7.52,0,0,1-1.3.37,4.67,4.67,0,0,1-1.15.08,2.13,2.13,0,0,1-1-.39,4.83,4.83,0,0,1-.78-.75,3.51,3.51,0,0,1-.63-1.36,9.3,9.3,0,0,1-2.05,2.77,15.52,15.52,0,0,1-2.48,1.84,16.26,16.26,0,0,1-2.92,1.32,4.23,4.23,0,0,1-1.62.15,3.47,3.47,0,0,1-1.66-.54,3.51,3.51,0,0,1-1.21-1.47,5.15,5.15,0,0,1-.32-2.57,10.37,10.37,0,0,1,1.19-4.15,18.88,18.88,0,0,1,2.49-3.68,16.8,16.8,0,0,1,3-2.75,8.81,8.81,0,0,1,2.69-1.4,9.18,9.18,0,0,1,2.32-.19,1.69,1.69,0,0,1,1.21.63c.29.36.2,1-.27,1.87.43-.21.81-.37,1.11-.5l.7-.26a1.5,1.5,0,0,1,.41-.1s.09.11.14.25a3.9,3.9,0,0,1,.1.78c0,.39,0,.92,0,1.58s0,1.54,0,2.61a5.4,5.4,0,0,0,0,.57v.52c0,.17,0,.37,0,.6s0,.52,0,.86a2.54,2.54,0,0,0,.18.62,1.64,1.64,0,0,0,.38.55,1.1,1.1,0,0,0,.63.3,2.24,2.24,0,0,0,1-.13,3.34,3.34,0,0,0,1.17-.82,14.93,14.93,0,0,0,1.36-1.57c.46-.6.92-1.26,1.4-2s.91-1.38,1.31-2,.76-1.23,1.08-1.73l.68-1.11a1.72,1.72,0,0,1,.67-.6.72.72,0,0,1,.64-.07c.17.07.26.25.27.53A2.26,2.26,0,0,1,346.56,153.13Zm-14.07,6.23c0-.47.07-1,.12-1.66s.07-1.24.07-1.82,0-1-.06-1.42-.11-.52-.23-.46a4.27,4.27,0,0,0-.51.27,6.12,6.12,0,0,1-.62.3c-.25.1-.51.22-.76.34a2.19,2.19,0,0,0,.2-1,1.08,1.08,0,0,0-.14-.52.67.67,0,0,0-.31-.29c-.42-.07-1,.28-1.75,1a14.08,14.08,0,0,0-2.3,3.69,7.69,7.69,0,0,0-.66,2.11,8.1,8.1,0,0,0-.09,1.93,4,4,0,0,0,.37,1.46,1.17,1.17,0,0,0,.65.68,2.38,2.38,0,0,0,1.37,0,5.13,5.13,0,0,0,1.36-.69,10.26,10.26,0,0,0,1.26-1.06,11.21,11.21,0,0,0,1.06-1.19,9.76,9.76,0,0,0,.71-1.05A1.57,1.57,0,0,0,332.49,159.36Z"/><path class="cls-1" d="M188.59,136.73a5.22,5.22,0,0,1-1.18,1.32,6,6,0,0,1-1.74.95,8.1,8.1,0,0,1-2.24.43,10.27,10.27,0,0,1-2.65-.22,6.93,6.93,0,0,1-2.48-1,3.15,3.15,0,0,1-1.11-1.2,2.2,2.2,0,0,1-.19-1.25,6.94,6.94,0,0,1,.27-1.13,2.33,2.33,0,0,1,.42-.76,6.34,6.34,0,0,1,.72-.77,7.36,7.36,0,0,1,1-.72,6.64,6.64,0,0,1,1.26-.59,1.93,1.93,0,0,1,.79-.43,4.92,4.92,0,0,1,1.09-.2,8.78,8.78,0,0,1,1.26,0,12.85,12.85,0,0,1,1.29.12l.18.05.18.07a6,6,0,0,1,1.09.36,6.75,6.75,0,0,1,1.26.69,4.12,4.12,0,0,1,1,1,2,2,0,0,1,.36,1.37,2.41,2.41,0,0,1-.07.38c0,.15-.07.28-.1.39a18.41,18.41,0,0,0,1.81-.34c.63-.15,1.23-.32,1.81-.5s1.1-.39,1.58-.6a11.67,11.67,0,0,0,1.14-.58,1.69,1.69,0,0,1,.6-.23.44.44,0,0,1,.36.06c.08.06.09.15,0,.28a1,1,0,0,1-.37.42,8.17,8.17,0,0,1-.91.52,19.15,19.15,0,0,1-1.77.82,20.57,20.57,0,0,1-2.3.78A13.35,13.35,0,0,1,188.59,136.73Zm-8.92-1a2.75,2.75,0,0,0-.1.7,1.32,1.32,0,0,0,.14.68,1.7,1.7,0,0,0,.51.57,2.56,2.56,0,0,0,1,.39,4.73,4.73,0,0,0,1.33.09,5,5,0,0,0,1.15-.25,4.89,4.89,0,0,0,.94-.48,5.94,5.94,0,0,0,.75-.63l-.52-.05-.56-.07a5.82,5.82,0,0,1-2.39-.89,3.74,3.74,0,0,1-1.31-1.47,7.09,7.09,0,0,0-.57.71A2.19,2.19,0,0,0,179.67,135.77Zm3.16-2.92a.76.76,0,0,0-.19.35,3.64,3.64,0,0,0-.07.68,1.15,1.15,0,0,0,.24.68,2,2,0,0,0,.84.64,6.14,6.14,0,0,0,1.78.47l.37,0,.38,0,.27-.44a.86.86,0,0,0,.14-.36,2,2,0,0,0,.1-.77,2.16,2.16,0,0,0-.17-.76,1.84,1.84,0,0,0-.43-.6,1.22,1.22,0,0,0-.69-.31,4.11,4.11,0,0,0-1.31,0A4.55,4.55,0,0,0,182.83,132.85Z"/><path class="cls-1" d="M193.46,138a1.88,1.88,0,0,1-.61-.43,1.61,1.61,0,0,1-.24-.41.66.66,0,0,1,0-.44,1.71,1.71,0,0,1,.46-.52,3.65,3.65,0,0,1,.71-.45,6.77,6.77,0,0,1,1.18-.46,9.11,9.11,0,0,0,.8-1.39c.23-.49.42-.93.58-1.33a10.76,10.76,0,0,0,.46-1.39,6.88,6.88,0,0,0,.63-2.84,6.52,6.52,0,0,0-.19-1.4l-.09-.28a1.26,1.26,0,0,1-.13-.26l-.13-.28.57-.25.43-.16a2.54,2.54,0,0,1,.39-.13c.45-.12.88-.21,1.29-.28s.64,0,.7,0a2,2,0,0,1,.13.34,4.76,4.76,0,0,1,.16.63,4.53,4.53,0,0,1,0,.85,3.76,3.76,0,0,1-.19,1l-.42,1.36c-.18.49-.41,1.15-.73,2s-.74,1.88-1.34,3.15l2.37-.64,2.59-.72,2.62-.75q1.31-.37,2.43-.66a.37.37,0,0,1,.33,0,.17.17,0,0,1,.07.22.94.94,0,0,1-.32.33,3,3,0,0,1-.83.37l-1.54.48-1.75.53-1.79.56q-.89.28-1.68.57c-.4.13-.81.27-1.22.39l-1.08.34-.94.31c-.25.51-.51,1-.77,1.52a22.64,22.64,0,0,1,3.68,1.36,9.94,9.94,0,0,1,2.07,1.32,3.27,3.27,0,0,1,1.07,1.49,3.1,3.1,0,0,1-.24,1.84,6.79,6.79,0,0,1-1.24,1.9,11.54,11.54,0,0,1-2.08,1.76,14.21,14.21,0,0,1-2.71,1.42,14.9,14.9,0,0,1-3,.86,12.1,12.1,0,0,1-3,.18,5.49,5.49,0,0,1-1.67-.35,2.33,2.33,0,0,1-1-.64,1.34,1.34,0,0,1-.31-.81,1.38,1.38,0,0,1,.26-.83c.14-.27.45-.77.89-1.51s.94-1.52,1.64-2.72S192.45,140.05,193.46,138Zm2.35.88c-.34.69-.64,1.31-.91,1.88s-.51,1.07-.7,1.5a13.68,13.68,0,0,0-.58,1.35c-.25.51-.52,1-.81,1.51s-.51.93-.69,1.32a2,2,0,0,0-.22,1c0,.24.22.37.59.37a7.09,7.09,0,0,0,2.81-.48,10,10,0,0,0,2.55-1.38,7.78,7.78,0,0,0,1.76-1.78,2.55,2.55,0,0,0,.54-1.68,3,3,0,0,0-.75-1.56,8.44,8.44,0,0,0-1-.73c-.32-.2-.7-.41-1.13-.64A10.25,10.25,0,0,0,195.81,138.89Z"/><text class="cls-6" transform="translate(222.26 54.23) scale(0.77 1)">2003</text><line class="cls-1" x1="220.67" y1="138.55" x2="297.06" y2="138.55"/><path class="cls-1" d="M297.06,139.31c0-.1,0-.32-.09-.27l-.08.37Z"/><path class="cls-1" d="M296.32,138.61a1.12,1.12,0,0,0-.2.86c.13-.37.16-.22.3-.65.11,0,.19.12.18.26,0-.09.17.08.23-.15-.15-.29-.33-.31-.52-.06A.45.45,0,0,1,296.32,138.61Z"/><path class="cls-1" d="M285.48,138l.07,0A.08.08,0,0,0,285.48,138Z"/><path class="cls-1" d="M278.77,137.82a.09.09,0,0,0,.08-.08C278.8,137.76,278.76,137.79,278.77,137.82Z"/><path class="cls-1" d="M277.63,137.4l.06,0S277.64,137.37,277.63,137.4Z"/><path class="cls-1" d="M285.48,138l-.17-.12C285.29,138,285.4,138,285.48,138Z"/><path class="cls-1" d="M294.82,139.52s.07-.05.1-.1l-.09.05A.09.09,0,0,1,294.82,139.52Z"/><path class="cls-1" d="M288.44,137.72h.06s0-.1,0-.15Z"/><path class="cls-1" d="M290.71,137.66s-.06.31-.08.45c0-.13.06-.2.11-.22A1.11,1.11,0,0,0,290.71,137.66Z"/><path class="cls-1" d="M294.32,138.23l.06,0S294.33,138.21,294.32,138.23Z"/><path class="cls-1" d="M286.82,137.65a.75.75,0,0,0,0-.11A.43.43,0,0,0,286.82,137.65Z"/><path class="cls-1" d="M223.3,140.06s0,0,0-.06S223.29,140.06,223.3,140.06Z"/><path class="cls-1" d="M220.67,138.47l0,0c0-.06,0-.12,0-.18Z"/><path class="cls-1" d="M275.53,137h0S275.56,137,275.53,137Z"/><path class="cls-1" d="M256.28,137.23c.21.28-.36.37,0,.68C256.22,137.79,256.55,137.41,256.28,137.23Z"/><path class="cls-1" d="M294.77,139.48h-.1A.16.16,0,0,0,294.77,139.48Z"/><path class="cls-1" d="M256.25,137.91h0l0,0Z"/><path class="cls-1" d="M270.7,137.18a.46.46,0,0,0,.05.14A1.3,1.3,0,0,0,270.7,137.18Z"/><path class="cls-1" d="M274.3,137.64l-.09,0A.12.12,0,0,0,274.3,137.64Z"/><path class="cls-1" d="M268.83,137.64c-.05,0-.07-.07-.13,0a.05.05,0,0,0,0,0S268.77,137.59,268.83,137.64Z"/><path class="cls-1" d="M266.88,137.64l0,.06H267Z"/><path class="cls-1" d="M229.22,139.9a1,1,0,0,1-.09-.28C229.16,139.84,228.87,139.93,229.22,139.9Z"/><path class="cls-1" d="M294.82,139.34c0,.08,0,.13-.05.14h.06A.18.18,0,0,0,294.82,139.34Z"/><path class="cls-1" d="M268.75,140.17l-.31,0A1,1,0,0,0,268.75,140.17Z"/><path class="cls-1" d="M243.17,139.86l-.07,0S243.16,139.9,243.17,139.86Z"/><path class="cls-1" d="M267.52,140.17a.55.55,0,0,0-.17-.23.79.79,0,0,0,0,.09Z"/><path class="cls-1" d="M229.13,139.61h0Z"/><path class="cls-1" d="M227.09,140.37c.3,0,.14-.41.2-.65.35-.12.16.31.28.53.22-.12.39-.5.56-.49,0,.07,0,.1,0,.19.23-.34.69,0,1-.44a.69.69,0,0,1,0,.1,2,2,0,0,1,0-.57c.13,0,.24-.27.29,0-.08,0-.09.11-.13.19l.14-.12c.13.4-.19.14-.19.43.27-.13.59-.45.79-.34,0,.39-.48.13-.2.47l-.32-.14c.24.61-.2-.05,0,.61.42.11.47-.2.89-.09.09-.21,0-.32.06-.53.6-.39.47,1,.91.46.11-.26.16-.75.47-.49l-.11.44c.41,0,.24-.63.66-.34-.07.17-.32.15-.26.2.28.34.2-.25.41-.25l.05.39c.43-.06.91-.34,1.39-.41,0,.11-.11.23,0,.35a3,3,0,0,1,1.88.28l.22-.34c.06,0,.1.15,0,.22.23.13,0-.21.13-.34s.17.19.08.29c.41-.29,1.15-.61,1.57-.25l-.08.1c.33.13.37-.69.68-.38l-.06.06c.72.15,1.51-.16,2,.34.11-.48.71.22.76-.45.41.33.29.45.87.67.15,0,.23-.42.42-.49v.36l.26-.37.14.42.17-.09a.29.29,0,0,1-.14-.26c.28-.16.68.24.69.42l.66-.29c0,.14-.13.19-.21.28.35-.36.06.37.38,0,0-.08,0-.21,0-.28a.75.75,0,0,0,.8.12l-.05.24a12.73,12.73,0,0,0,1.58-.11c-.2-.11-.15-.53,0-.57l.06.37c.1-.23-.17-.14.05-.42.2,0,.13.42,0,.54l.25-.13c0,.11,0,.17-.06.31.1-.23.43.38.57,0l0,.11c.55,0,.79-.13,1.24-.15,0-.32.18-.25.32-.5a3,3,0,0,0,1.09.32c.27-.16.08-.27.2-.46,0,.29.42.26.21.47a3.1,3.1,0,0,0,1.21-.29c-.07-.12-.14-.17-.1-.27s.25.12.23.26l0,0c.68-.44,1.56.85,2.09.24l0,0,.56-.31c.26,0-.15.22,0,.4.6-.49.94.07,1.44-.26.38.86,1.36-.06,1.87.49l0-.2c.14-.2.17.12.26.16,0-.16-.14-.18-.06-.29,1.13-.25,2.34.3,3.49.48.43,0,.25-1.05.78-.57l-.15.38c.85-.45,1.75,0,2.59-.37-.05.09-.06.2-.14.2.18.27.66,0,.66-.21.13,0,0,.2.11.32s.45-.35.54-.08c0,0,0,.09-.08.11.11-.13.54,0,.43-.28.31.15.6-.14.85,0,.16-.35.54.17.59-.33,0,.52.55.42.75.18-.07.15.17.16.09.38.23,0,.44-.11.4-.37.42.61.84-.5,1.07.29a10,10,0,0,1,1.91-.58c0,.51-.67.05-.65.59.58-.21.91-.66,1.48-.53.15.07-.08.22-.13.31.57-.21,1.11.05,1.62-.23,0,0-.06.1-.11.14.1,0,.23.07.22-.16l-.1.06c-.16-.34.4-.71.42-.89-.17.67.51.17.24,1a.35.35,0,0,0,.13-.31c.1,0,.13.13,0,.31.36-.13.23-.38.56-.37,0,.11-.07.16-.1.29.16-.22.33-.44.61-.35,0,.07,0,.16-.07.16.47,0,.81-.59,1.33-.37-.15.49.18.16.2.58l.28-.12-.11-.21c.25,0,.46-.3.67-.16l-.18.17.46-.08-.26-.16c.25-.22,0-.54.3-.42-.06,0,.25,0,.37.26h0c.12-.14.25-.28.43-.18s0,.47,0,.56c.12-.35.58-.09.73-.47a.8.8,0,0,0,0,.36l.1-.29c.12.09.13.13.12.31.34,0-.11-.54.29-.31,0,0,0,.07-.08.11.41.13.79-.18,1.16,0,.11.43-.33.11-.2.47.54-.08,1.12-.51,1.64-.41l-.1-.05c.07-.6.39.3.65,0-.06,0-.08.34-.06.27.36.1.73-.15,1.27-.34l-.07.16c.21.14.56.08.79.15.06-.16.19-.13.11-.36.71.89,1.34-.47,2,.27-.08,0-.18.13-.12.13l.53-.14c0-.26-.07-.16-.18-.37a.42.42,0,0,1,.35-.27c-.24.17,0,.42.1.57,0-.08,0-.17,0-.25.28.46.05-.53.43-.22l0,.14c.14-.07.27-.25.42-.21.06.3-.15.14-.16.39.21,0,.42-.58.62-.27-.09.08-.23.08-.32.17.21.35.24.26.4.32h0l.36.16-.09-.09c.27-.8.55-.15.91-.67-.35.49-.06.29-.09.63.1.1.24.2.2.3.17-.28.28.22.52-.19,0,.11.19,0,.15.29.22-.08-.05-.19,0-.33.35-.38.81.46,1.3-.06.43-.21.5-.59.9-.78.13.18-.11.41-.11.41a.45.45,0,0,0,.58,0c0,.09,0,.17.06.3.16,0,.11-.41.32-.24a1.56,1.56,0,0,1-.16.44c.19-.1.38-.3.58-.41.05.2-.12.3-.19.43.22-.09.58-.18.65-.49l-.15-.11c.08,0,0,.27,0,.32-.2.24-.28-.1-.29-.22l.14-.07c-.14-.65-.57.11-.85.07l.12-.47-.29.39c-.06-.12-.11-.39,0-.46-.2-.23-.18.17-.35-.09,0,0,0-.07,0-.08l-.2.14c0-.1,0-.34.09-.27-.36-.27-.58.36-.71,0l0,0c-.5.16,0,.35-.42.75l-.25-.85-.05.34a.15.15,0,0,1-.14-.17c-.19.23,0,.15-.07.37-.25-.31-.68.15-.74-.4-.09.26.24.2,0,.38-.08-.59-.31.11-.53-.17.07-.31.28-.14.05-.42-.13.52-.43-.11-.62,0,0,.41-.41.17-.73.31,0-.14-.6-.23-.9-.38v-.07c-.05.42-.36.34-.58.43a.55.55,0,0,1,.17-.46h-.21a.39.39,0,0,1-.25.25l.05-.31c-.28,0-.56.37-.92.16,0,.29.29.81-.09,1,0-.16,0-.43.07-.5s-.11.14-.18.07l.15-.27c-.16-.11-.08.22-.21.2,0-.23-.1-.16-.08-.34,0,0,.11.09.16,0a.58.58,0,0,1-.38-.34c0,.13,0,.3-.11.33-.28,0-.09-.27-.26-.38-.06.15-.24,0-.25.33-.08,0-.09-.16-.12-.25-.15.15-.68,0-.51.4l0,0s0,0,0,0h0c-.47.33-1-.19-1.45-.05V138c-.28.13-.62.07-.82.32-.08,0-.19-.21-.16-.34-.21.08-.23.21-.54,0,.21-.2-.08-.17.22-.14-.28-.1-.34-.28-.64,0a.23.23,0,0,0-.34-.28l.19.21a.94.94,0,0,1-.41,0l.07-.38c-.56-.46-1,.78-1.45,0-.15.27.31.19.17.5-.26-.05-.53-.6-.61-.6-.36-.21-.34.56-.71.41,0,.14.09.5-.19.63-.26-.05-.32-.57-.15-.68a.07.07,0,0,1,.09.08c.08-.05.19-.11.09-.26l0,.14c-.13-.14-.49-.12-.41-.35-.2.13-.08.23.06.3-.33-.2-.52,0-.87-.14.06.07.11.23.06.23-.51-.17-.23.26-.57.32-.2-.21.07-.5-.28-.32-.21-.14,0-.36,0-.47-.31.26-.58-.17-.76-.22l.16-.11a.45.45,0,0,1-.26.06l.09.27c-.09-.05-.18-.05-.17-.16-.1.18.07.45-.13.69-.13-.13-.39.15-.44-.21.41.12,0-.36.3-.42-.06,0-.14,0-.24,0a.08.08,0,0,1,0-.1c-.39-.32-.18.41-.58.4.05-.2-.1-.38-.16-.34.16,0,.07.34-.08.49-.25-.16-.28.12-.41.1l.15.07c-.05.21-.18.18-.36.24,0-.15.16-.1.1-.17-.2.35-.45-.37-.73-.13-.13-.14,0-.38-.13-.48-.31.27-.34-.27-.67-.06.09.28.11.21-.12.47l.54-.19-.35.4c.17,0,.35-.17.45-.13-.17.23-.15.16-.07.38-.23-.4-.45.24-.71,0v-.68c-.39-.3-.69.35-1.19.18l.16.12c-.07.26-.31,0-.48.14a.69.69,0,0,0-.15-.45c0,.17-.37,0-.42.44l-.22-.3c-.41-.12-.47.64-.86.57.12-.25-.06-.41.2-.58-.13,0-.25,0-.25.11-.08-.14-.36.3-.48.09-.06.1-.08.33-.22.32a.18.18,0,0,1,0-.11c0,.11-.23.15-.1.4-.41-.71-1.13.05-1.48-.56a5.14,5.14,0,0,1-.89.17c0-.07,0-.11.05-.09-.36-.21-.22.65-.63.41-.21-.36.22-.2.09-.33-.06-.74-.49.1-.77-.33l.07-.05c-.21-.25-.51.28-.85.23a.38.38,0,0,0,0-.11,1.69,1.69,0,0,1-1,.61c.11-.29.15-.16.09-.45-.15,0,0,.47-.25.55-.1-.16-.31-.29-.34-.61l.28,0c-.14-.4-.36,0-.51-.05l0-.18c-.42.06-.43.51-.89.47l.05.14c-.25.44-.21-.25-.46.08l-.07-.45a4.17,4.17,0,0,1-.88.52c.17-.34.52-.51.73-.7-.16,0-.55,0-.64.25.07,0,.15-.15.22-.08a.91.91,0,0,1-.8.52c.06-.88-.84-.22-1.08-.9-.58.32-1.14-.14-1.82-.09.24.68-.19,0-.15.72-.16,0-.22,0-.23,0l-.47-.42c-.12-.2.14-.15.13-.31-.34-.05-.14-.3-.37-.48.05.25-.12.36-.31.26l.27.32c-.48.37-.41-.58-.9-.21l.16-.22c-.25.13-.92,0-1.16.55,0-.08-.1-.27,0-.32-.59-.08-1.32.6-1.78.25l0-.17c-.11.05-.2.32-.33.15s0-.17,0-.18-.29.3-.44.2l.13-.19c-.58-.23-.89.46-1.37.58,0-.5-.46-.66-.68-.75v-.07c-.67-.06-1.14.42-1.76.62-.38-.55-1.31-.23-1.93-.54.1.09,0,.39-.12.44-.15-.1-.41.35-.38-.11h0c-.11-.45-.41-.33-.64-.34l0,.6c-.61-.88-1.6.32-1.94-.46-.15.15-.33.15-.47.3v-.33a2.54,2.54,0,0,0-1.11,0l.1-.23c-.29,0-.36.93-.62.95l-.08-.49c-.5,0-1-.41-1.5,0,0-.07,0-.21.11-.23-.24,0-.91-.33-.82.33,0-.43-.52,0-.78.15l0-.32c-.23.41-.24.52-.55.63-.08,0-.07-.25,0-.17-.25-.17-.19.3-.5.13l.12-.2c-.26,0-.24.08-.38.32s-.49-.08-.53-.37c0,.18-.17.41-.33.33a.23.23,0,0,1,.07-.21c-.43-.22-.64.37-.94.06a.25.25,0,0,0-.05-.19,2,2,0,0,1,.59,0c0-.29-.27-.34,0-.74-.22.22-.6.7-.87.56a.3.3,0,0,1,0-.1l0,0a.15.15,0,0,0-.17,0,.57.57,0,0,0-.22-.09c0-.24-.32-.13-.46-.14,0,.32-.17.27,0,.53,0,0,0,0,.12-.05s.05,0,.06,0v0l.34,0c-.11.16-.22.3-.37.12l-.19.52c-.19-.45-.56-.69-.61-1-.42.18-1,.12-1.25.72-.12.08-.14-.17-.18-.27s.15,0,.19-.13c-.24.15-.71.06-.77.48-.3-.19.17-.39-.24-.32l.05-.13c-.81-.67-1.32,1.07-2.22.21a.22.22,0,0,1,.1.15c-1-.38-2.12.36-3.13-.25-.29-.12-.32.15-.5.35l-.06-.34-.3.4c-.43.29-.74-.85-1.28-.3l.07.23c-.19,0-.61.14-.58-.13,0,.05-.07.25-.14.12v-.18l-.47.31c-.37-.13.05-.71-.49-.75-.2.07-.57.53-.49.65a.28.28,0,0,1,.21.29l-.18.09c0,.54-.18,1.08.27,1.45l.32-.33.1.26-.26,0c.14.24.24,0,.35-.12a.43.43,0,0,0,.13.28l.31-.5c0,.2-.14.41.06.52.15-.23-.13-.46.1-.62.15.24.11.44.29.23a.3.3,0,0,1-.09.29c.16-.17.42-.07.5-.35.16.29.53-.08.51.42,0-.12.28-.39.42-.41-.26.6.54,0,.47.68.2-.54.71-.24,1.05-.54,0,0-.06.13-.09.1.2,0,.25.21.38.31,0-.45.33-.55.49-.83.24.44-.14.53-.07.94,0-.36.41-.36.33-.66.18.27.16.13.25.5,0-.56.17-.1.32-.44.27.28.07.53.36.36C227.35,140.18,227.09,140.37,227.09,140.37Zm6.88-1h0l-.14,0Zm.58,0h-.25c0-.11,0-.22.06-.22S234.46,139.31,234.55,139.4Zm-1.22-2.22c.09,0,.12,0,.13.09l-.16,0s0,0,0,0A.62.62,0,0,1,233.33,137.18Z"/><path class="cls-1" d="M233.16,137.6l0,0,.06.07,0-.1Z"/><path class="cls-1" d="M285.57,138.08h0l0,.05A.08.08,0,0,1,285.57,138.08Z"/><polygon class="cls-1" points="242.53 140.02 242.53 139.94 242.48 140.01 242.53 140.02"/><path class="cls-1" d="M288.75,139.18a.2.2,0,0,0,0,.08A.2.2,0,0,0,288.75,139.18Z"/><path class="cls-1" d="M290.13,139.25l.19.11A.8.8,0,0,0,290.13,139.25Z"/><path class="cls-1" d="M291.18,139.41a.39.39,0,0,0,0-.14h0Z"/><path class="cls-1" d="M274.37,139.79h0C274.23,139.86,274.3,139.84,274.37,139.79Z"/><path class="cls-1" d="M279.37,139a1.14,1.14,0,0,1-.16.15C279.3,139.21,279.37,139.22,279.37,139Z"/><path class="cls-1" d="M268.78,140.17Z"/><path class="cls-1" d="M279,139.18a.18.18,0,0,0,.23,0C279.14,139.17,279.05,139.13,279,139.18Z"/><path class="cls-1" d="M295.77,139.55l.05,0v0Z"/><path class="cls-1" d="M295.82,139.52l.06,0S295.83,139.48,295.82,139.52Z"/><path class="cls-1" d="M296,139.4l-.12.08A.1.1,0,0,0,296,139.4Z"/><path class="cls-1" d="M294.37,139.41l0,.11A.27.27,0,0,0,294.37,139.41Z"/><path class="cls-1" d="M293.94,139.44c.1,0,.26.25.4.17v-.09C294.28,139.69,294,139.24,293.94,139.44Z"/><path class="cls-1" d="M292.17,138l.35.1c-.06-.13-.14-.29,0-.32C292.09,137.41,292.63,138.05,292.17,138Z"/><path class="cls-1" d="M291.06,137.82c.19,0,0-.18,0-.25C291,137.69,290.92,137.71,291.06,137.82Z"/><path class="cls-1" d="M283.07,137.82l0-.29C282.94,137.57,283.09,137.64,283.07,137.82Z"/><polygon class="cls-1" points="281.55 139.33 281.69 139.51 281.76 139.24 281.55 139.33"/><polygon class="cls-1" points="280.64 137.25 280.71 137.21 280.46 137.32 280.64 137.25"/><path class="cls-1" d="M267.23,137.36l0,.35C267.37,137.65,267.39,137.25,267.23,137.36Z"/><path class="cls-1" d="M261.44,137.72c-.07-.18-.23-.29-.33-.12C261.24,137.63,261.37,137.77,261.44,137.72Z"/><polygon class="cls-1" points="244.07 137.14 244.18 137.02 243.96 137.12 244.07 137.14"/><line class="cls-1" x1="83.85" y1="138.55" x2="160.24" y2="138.55"/><path class="cls-1" d="M83.85,139.31c0-.1,0-.32.09-.27l.08.37Z"/><path class="cls-1" d="M84.6,138.61a1.08,1.08,0,0,1,.19.86c-.13-.37-.16-.22-.3-.65-.11,0-.19.12-.17.26,0-.09-.17.08-.23-.15.14-.29.32-.31.51-.06A.39.39,0,0,0,84.6,138.61Z"/><path class="cls-1" d="M95.43,138l-.07,0A.1.1,0,0,1,95.43,138Z"/><path class="cls-1" d="M102.14,137.82a.08.08,0,0,1-.07-.08S102.15,137.79,102.14,137.82Z"/><path class="cls-1" d="M103.29,137.4l-.07,0S103.27,137.37,103.29,137.4Z"/><path class="cls-1" d="M95.43,138l.18-.12C95.62,138,95.52,138,95.43,138Z"/><path class="cls-1" d="M86.09,139.52s-.07-.05-.1-.1l.09.05A.09.09,0,0,1,86.09,139.52Z"/><path class="cls-1" d="M92.47,137.72h0s0-.1,0-.15Z"/><path class="cls-1" d="M90.2,137.66s.07.31.09.45c0-.13-.07-.2-.11-.22A1,1,0,0,1,90.2,137.66Z"/><path class="cls-1" d="M86.6,138.23l-.06,0S86.58,138.21,86.6,138.23Z"/><path class="cls-1" d="M94.1,137.65a.27.27,0,0,1,0-.11A.43.43,0,0,1,94.1,137.65Z"/><path class="cls-1" d="M157.61,140.06V140S157.63,140.06,157.61,140.06Z"/><path class="cls-1" d="M160.24,138.47l0,0a1.09,1.09,0,0,1,0-.18Z"/><path class="cls-1" d="M105.39,137h0C105.32,137,105.35,137,105.39,137Z"/><path class="cls-1" d="M124.64,137.23c-.22.28.35.37,0,.68C124.7,137.79,124.37,137.41,124.64,137.23Z"/><path class="cls-1" d="M86.15,139.48h.09A.13.13,0,0,1,86.15,139.48Z"/><path class="cls-1" d="M124.67,137.91h0l0,0Z"/><path class="cls-1" d="M110.22,137.18a.46.46,0,0,1,0,.14A.29.29,0,0,1,110.22,137.18Z"/><path class="cls-1" d="M106.62,137.64l.09,0A.16.16,0,0,1,106.62,137.64Z"/><path class="cls-1" d="M112.09,137.64s.06-.07.13,0l0,0S112.14,137.59,112.09,137.64Z"/><path class="cls-1" d="M114,137.64l0,.06h-.07Z"/><path class="cls-1" d="M151.7,139.9a1.52,1.52,0,0,0,.09-.28C151.76,139.84,152,139.93,151.7,139.9Z"/><path class="cls-1" d="M86.09,139.34c0,.08,0,.13.06.14h-.07A.49.49,0,0,1,86.09,139.34Z"/><path class="cls-1" d="M112.17,140.17l.31,0A1,1,0,0,1,112.17,140.17Z"/><path class="cls-1" d="M137.74,139.86l.07,0A.06.06,0,0,1,137.74,139.86Z"/><path class="cls-1" d="M113.39,140.17a.65.65,0,0,1,.18-.23.94.94,0,0,1,0,.09Z"/><path class="cls-1" d="M151.79,139.61h0Z"/><path class="cls-1" d="M153.82,140.37c-.29,0-.13-.41-.2-.65-.35-.12-.16.31-.28.53-.22-.12-.39-.5-.55-.49,0,.07,0,.1,0,.19-.23-.34-.69,0-1-.44a.22.22,0,0,0,0,.1,2.37,2.37,0,0,0,0-.57c-.13,0-.25-.27-.3,0,.09,0,.09.11.13.19l-.14-.12c-.12.4.19.14.19.43-.27-.13-.58-.45-.79-.34,0,.39.48.13.21.47l.32-.14c-.25.61.19-.05,0,.61-.42.11-.47-.2-.89-.09-.1-.21,0-.32-.07-.53-.59-.39-.47,1-.91.46-.11-.26-.15-.75-.47-.49l.11.44c-.41,0-.23-.63-.66-.34.08.17.32.15.26.2-.28.34-.2-.25-.41-.25l0,.39c-.44-.06-.91-.34-1.39-.41,0,.11.1.23,0,.35a3,3,0,0,0-1.88.28l-.22-.34c-.05,0-.1.15,0,.22-.23.13,0-.21-.12-.34s-.17.19-.09.29c-.4-.29-1.15-.61-1.57-.25l.08.1c-.33.13-.37-.69-.67-.38l0,.06c-.71.15-1.5-.16-2,.34-.1-.48-.71.22-.75-.45-.41.33-.3.45-.87.67-.16,0-.23-.42-.42-.49v.36l-.25-.37L138,140l-.18-.09a.29.29,0,0,0,.14-.26c-.28-.16-.68.24-.68.42l-.66-.29c0,.14.12.19.21.28-.35-.36-.07.37-.39,0,0-.08,0-.21,0-.28a.75.75,0,0,1-.8.12l.06.24a12.73,12.73,0,0,1-1.58-.11c.19-.11.15-.53,0-.57l-.07.37c-.1-.23.17-.14,0-.42-.21,0-.14.42,0,.54l-.25-.13c0,.11,0,.17.06.31-.1-.23-.43.38-.58,0v.11c-.55,0-.8-.13-1.25-.15,0-.32-.18-.25-.31-.5a3.06,3.06,0,0,1-1.09.32c-.28-.16-.08-.27-.21-.46,0,.29-.41.26-.21.47a3.1,3.1,0,0,1-1.2-.29c.06-.12.13-.17.1-.27s-.25.12-.24.26l0,0c-.67-.44-1.55.85-2.09.24l0,0-.56-.31c-.25,0,.16.22,0,.4-.6-.49-.95.07-1.44-.26-.39.86-1.36-.06-1.88.49l0-.2c-.13-.2-.16.12-.26.16,0-.16.15-.18.06-.29-1.13-.25-2.33.3-3.49.48-.42,0-.24-1.05-.78-.57l.16.38c-.86-.45-1.75,0-2.59-.37,0,.09,0,.2.13.2-.17.27-.65,0-.66-.21-.13,0,0,.2-.11.32s-.44-.35-.54-.08c0,0,0,.09.09.11-.12-.13-.54,0-.43-.28-.32.15-.6-.14-.85,0-.17-.35-.54.17-.59-.33,0,.52-.55.42-.75.18.06.15-.18.16-.1.38-.23,0-.43-.11-.39-.37-.42.61-.84-.5-1.08.29a9.93,9.93,0,0,0-1.9-.58c0,.51.67.05.64.59-.57-.21-.91-.66-1.48-.53-.14.07.09.22.14.31-.58-.21-1.11.05-1.62-.23,0,0,0,.1.1.14-.1,0-.23.07-.22-.16l.1.06c.16-.34-.4-.71-.42-.89.17.67-.5.17-.23,1a.35.35,0,0,1-.14-.31c-.09,0-.13.13,0,.31-.36-.13-.23-.38-.56-.37,0,.11.07.16.11.29-.17-.22-.34-.44-.61-.35,0,.07,0,.16.06.16-.47,0-.8-.59-1.32-.37.15.49-.18.16-.21.58l-.28-.12.11-.21c-.24,0-.46-.3-.67-.16l.18.17-.46-.08.26-.16c-.25-.22,0-.54-.3-.42.07,0-.24,0-.37.26h0c-.12-.14-.25-.28-.43-.18s0,.47,0,.56c-.12-.35-.57-.09-.72-.47a.66.66,0,0,1,0,.36l-.1-.29c-.11.09-.13.13-.11.31-.34,0,.11-.54-.3-.31,0,0,0,.07.09.11-.41.13-.79-.18-1.17,0-.11.43.33.11.2.47-.53-.08-1.11-.51-1.63-.41l.09-.05c-.07-.6-.39.3-.65,0,.06,0,.08.34.07.27-.36.1-.73-.15-1.28-.34l.07.16c-.21.14-.55.08-.78.15-.07-.16-.2-.13-.12-.36-.7.89-1.34-.47-2,.27.07,0,.18.13.12.13l-.53-.14c0-.26.07-.16.18-.37a.45.45,0,0,0-.35-.27c.24.17,0,.42-.11.57a1,1,0,0,0,0-.25c-.27.46,0-.53-.42-.22l0,.14c-.14-.07-.27-.25-.43-.21-.06.3.16.14.17.39-.22,0-.43-.58-.62-.27.09.08.22.08.31.17-.21.35-.23.26-.39.32h0l-.36.16.09-.09c-.27-.8-.54-.15-.91-.67.36.49.06.29.09.63-.09.1-.23.2-.19.3-.17-.28-.29.22-.53-.19,0,.11-.18,0-.14.29-.23-.08.05-.19,0-.33-.34-.38-.8.46-1.3-.06-.42-.21-.5-.59-.89-.78-.14.18.1.41.1.41a.44.44,0,0,1-.57,0c0,.09,0,.17-.07.3-.16,0-.11-.41-.32-.24a2,2,0,0,0,.16.44c-.19-.1-.38-.3-.58-.41,0,.2.12.3.19.43-.22-.09-.57-.18-.64-.49l.14-.11c-.08,0,0,.27,0,.32.19.24.27-.1.29-.22l-.15-.07c.15-.65.57.11.85.07l-.11-.47.29.39c.06-.12.1-.39,0-.46.2-.23.18.17.36-.09,0,0,0-.07,0-.08l.2.14c0-.1,0-.34-.09-.27.36-.27.57.36.71,0l0,0c.49.16,0,.35.42.75l.25-.85,0,.34a.14.14,0,0,0,.13-.17c.19.23,0,.15.08.37.24-.31.68.15.73-.4.09.26-.23.2,0,.38.07-.59.3.11.53-.17-.07-.31-.28-.14-.06-.42.14.52.44-.11.63,0,0,.41.41.17.73.31,0-.14.59-.23.89-.38v-.07c.06.42.36.34.59.43a.55.55,0,0,0-.17-.46h.21a.37.37,0,0,0,.25.25l-.06-.31c.28,0,.56.37.92.16,0,.29-.28.81.09,1,0-.16,0-.43-.07-.5s.12.14.18.07l-.15-.27c.17-.11.09.22.22.2,0-.23.1-.16.08-.34,0,0-.12.09-.17,0a.6.6,0,0,0,.39-.34c0,.13,0,.3.1.33.28,0,.1-.27.26-.38.07.15.25,0,.25.33.08,0,.1-.16.13-.25.14.15.67,0,.51.4l0,0,0,0h0c.48.33,1-.19,1.45-.05V138c.28.13.62.07.82.32a.32.32,0,0,0,.16-.34c.21.08.24.21.55,0-.22-.2.07-.17-.22-.14.27-.1.34-.28.64,0-.11-.29.2-.37.34-.28l-.2.21a.94.94,0,0,0,.41,0l-.07-.38c.57-.46,1,.78,1.46,0,.15.27-.31.19-.18.5.26-.05.53-.6.62-.6.35-.21.33.56.7.41,0,.14-.09.5.19.63.26-.05.32-.57.16-.68s-.1,0-.09.08-.2-.11-.09-.26l0,.14c.13-.14.49-.12.4-.35.2.13.09.23-.06.3.34-.2.53,0,.87-.14,0,.07-.11.23,0,.23.51-.17.22.26.57.32.19-.21-.07-.5.27-.32.21-.14,0-.36,0-.47.32.26.59-.17.77-.22l-.17-.11a.46.46,0,0,0,.27.06l-.1.27c.1-.05.18-.05.18-.16.1.18-.08.45.12.69.13-.13.4.15.44-.21-.41.12,0-.36-.3-.42a.25.25,0,0,0,.25,0,.12.12,0,0,0,0-.1c.39-.32.17.41.58.4,0-.2.09-.38.16-.34-.16,0-.08.34.07.49.26-.16.28.12.42.1l-.16.07c.06.21.18.18.37.24,0-.15-.17-.1-.1-.17.2.35.45-.37.73-.13.13-.14,0-.38.13-.48.31.27.34-.27.66-.06-.09.28-.11.21.13.47l-.55-.19.35.4c-.16,0-.34-.17-.44-.13.16.23.15.16.07.38.22-.4.44.24.7,0v-.68c.39-.3.69.35,1.2.18l-.16.12c.06.26.31,0,.47.14a.76.76,0,0,1,.16-.45c0,.17.37,0,.41.44l.23-.3c.41-.12.46.64.86.57-.12-.25.06-.41-.21-.58.13,0,.25,0,.25.11.08-.14.37.3.49.09,0,.1.07.33.22.32a.36.36,0,0,0,0-.11c0,.11.23.15.1.4.4-.71,1.13.05,1.48-.56a5,5,0,0,0,.89.17c0-.07,0-.11,0-.09.35-.21.22.65.62.41.21-.36-.21-.2-.08-.33.05-.74.49.1.76-.33l-.07-.05c.21-.25.52.28.86.23a.19.19,0,0,1,0-.11,1.67,1.67,0,0,0,1,.61c-.1-.29-.15-.16-.09-.45.15,0,0,.47.26.55.09-.16.3-.29.33-.61l-.28,0c.15-.4.36,0,.51-.05l0-.18c.43.06.43.51.89.47l0,.14c.25.44.21-.25.46.08l.08-.45a3.84,3.84,0,0,0,.87.52,2.41,2.41,0,0,0-.73-.7c.17,0,.56,0,.64.25-.06,0-.15-.15-.21-.08a.88.88,0,0,0,.79.52c-.06-.88.85-.22,1.09-.9.57.32,1.14-.14,1.81-.09-.24.68.2,0,.16.72.15,0,.21,0,.23,0l.47-.42c.11-.2-.15-.15-.14-.31.35-.05.15-.3.37-.48,0,.25.12.36.32.26l-.28.32c.48.37.42-.58.9-.21l-.15-.22c.25.13.91,0,1.15.55,0-.08.11-.27,0-.32.59-.08,1.31.6,1.77.25l0-.17c.11.05.19.32.33.15,0-.07-.05-.17,0-.18s.3.3.44.2l-.12-.19c.58-.23.88.46,1.37.58,0-.5.45-.66.68-.75v-.07c.67-.06,1.14.42,1.76.62.39-.55,1.31-.23,1.93-.54-.09.09,0,.39.13.44.14-.1.4.35.38-.11h-.05c.11-.45.4-.33.64-.34l0,.6c.61-.88,1.6.32,1.93-.46.15.15.33.15.48.3v-.33a2.58,2.58,0,0,1,1.12,0l-.1-.23c.28,0,.36.93.62.95l.08-.49c.5,0,1-.41,1.49,0,0-.07,0-.21-.1-.23.23,0,.9-.33.82.33,0-.43.51,0,.78.15l0-.32c.22.41.23.52.55.63.07,0,.06-.25,0-.17.25-.17.2.3.5.13l-.11-.2c.26,0,.24.08.38.32s.48-.08.52-.37c0,.18.18.41.33.33a.26.26,0,0,0-.06-.21c.43-.22.64.37.93.06a.4.4,0,0,1,.05-.19,2.1,2.1,0,0,0-.59,0c0-.29.28-.34.06-.74.22.22.6.7.87.56l0-.1,0,0a.14.14,0,0,1,.17,0,.61.61,0,0,1,.23-.09c0-.24.31-.13.45-.14,0,.32.17.27,0,.53,0,0,0,0-.12-.05s0,0-.05,0v0l-.34,0c.11.16.22.3.38.12l.19.52c.19-.45.55-.69.6-1,.42.18,1,.12,1.25.72.12.08.14-.17.19-.27s-.15,0-.19-.13c.24.15.71.06.76.48.3-.19-.17-.39.25-.32l-.06-.13c.82-.67,1.32,1.07,2.23.21-.07.05-.1.08-.11.15,1-.38,2.12.36,3.13-.25.29-.12.32.15.5.35l.06-.34.3.4c.43.29.74-.85,1.28-.3l-.07.23c.2,0,.62.14.59-.13,0,.05.06.25.14.12v-.18l.48.31c.37-.13-.06-.71.48-.75.2.07.57.53.5.65a.29.29,0,0,0-.22.29l.19.09c0,.54.17,1.08-.28,1.45l-.31-.33-.1.26.26,0c-.15.24-.25,0-.35-.12a.49.49,0,0,1-.13.28l-.31-.5c0,.2.14.41-.07.52-.14-.23.14-.46-.1-.62-.15.24-.11.44-.28.23a.28.28,0,0,0,.08.29c-.16-.17-.41-.07-.5-.35-.15.29-.52-.08-.51.42-.05-.12-.28-.39-.42-.41.26.6-.54,0-.47.68-.19-.54-.7-.24-1.05-.54,0,0,.06.13.09.1-.19,0-.25.21-.37.31,0-.45-.33-.55-.49-.83-.24.44.14.53.06.94,0-.36-.41-.36-.33-.66-.18.27-.15.13-.25.5,0-.56-.17-.1-.32-.44-.26.28-.07.53-.36.36C153.57,140.18,153.82,140.37,153.82,140.37Zm-6.88-1h0l.15,0Zm-.57,0h.25c0-.11,0-.22-.06-.22S146.45,139.31,146.37,139.4Zm1.22-2.22c-.09,0-.12,0-.14.09l.16,0s0,0,0,0A.62.62,0,0,0,147.59,137.18Z"/><path class="cls-1" d="M147.75,137.6l0,0,0,.07a1,1,0,0,0,0-.1Z"/><path class="cls-1" d="M95.35,138.08h0l0,.05Z"/><polygon class="cls-1" points="138.38 140.02 138.38 139.94 138.44 140.01 138.38 140.02"/><path class="cls-1" d="M92.16,139.18a.09.09,0,0,1,0,.08A.2.2,0,0,1,92.16,139.18Z"/><path class="cls-1" d="M90.79,139.25l-.2.11A1.07,1.07,0,0,1,90.79,139.25Z"/><path class="cls-1" d="M89.73,139.41a.93.93,0,0,1,0-.14h0Z"/><path class="cls-1" d="M106.54,139.79h0C106.68,139.86,106.62,139.84,106.54,139.79Z"/><path class="cls-1" d="M101.54,139l.16.15C101.61,139.21,101.54,139.22,101.54,139Z"/><path class="cls-1" d="M112.13,140.17Z"/><path class="cls-1" d="M101.93,139.18a.18.18,0,0,1-.23,0C101.77,139.17,101.86,139.13,101.93,139.18Z"/><path class="cls-1" d="M85.15,139.55l-.05,0a.43.43,0,0,0,0,0Z"/><path class="cls-1" d="M85.09,139.52l-.06,0S85.08,139.48,85.09,139.52Z"/><path class="cls-1" d="M84.91,139.4l.12.08A.1.1,0,0,1,84.91,139.4Z"/><path class="cls-1" d="M86.55,139.41v.11A.31.31,0,0,1,86.55,139.41Z"/><path class="cls-1" d="M87,139.44c-.1,0-.25.25-.39.17l0-.09C86.63,139.69,86.88,139.24,87,139.44Z"/><path class="cls-1" d="M88.75,138l-.36.1c.06-.13.15-.29,0-.32C88.82,137.41,88.28,138.05,88.75,138Z"/><path class="cls-1" d="M89.85,137.82c-.19,0,0-.18,0-.25C90,137.69,90,137.71,89.85,137.82Z"/><path class="cls-1" d="M97.84,137.82l0-.29C98,137.57,97.82,137.64,97.84,137.82Z"/><polygon class="cls-1" points="99.37 139.33 99.22 139.51 99.16 139.24 99.37 139.33"/><polygon class="cls-1" points="100.27 137.25 100.21 137.21 100.45 137.32 100.27 137.25"/><path class="cls-1" d="M113.69,137.36l0,.35C113.54,137.65,113.52,137.25,113.69,137.36Z"/><path class="cls-1" d="M119.48,137.72c.06-.18.22-.29.32-.12C119.67,137.63,119.54,137.77,119.48,137.72Z"/><polygon class="cls-1" points="136.85 137.14 136.73 137.02 136.95 137.12 136.85 137.14"/></g></g></svg>