<svg id="Layer_1" data-name="Layer 1" xmlns="http://www.w3.org/2000/svg" viewBox="0 0 384.021 512"><title>figurka konik</title><path d="M93,638c-5.7-3.0492-7.5487-7.79-6.9046-14.1257,2.9551-29.0656,17.3184-49.75,44.5952-60.8531,3.8913-1.584,5.6693-3.1983,5.4641-7.7436-.4431-9.8106.3485-19.6843-.2443-29.479-1.0146-16.7668,9.2469-31.7211,28.9136-34.0532,1.2722-6.0134,2.3745-12.1964,3.8992-18.2734,9.7513-38.8644,31.6723-69.4592,63.3181-93.6,11.9223-9.0948,24.4128-24.4449,29.34-34.551-13.8681-5.0356-26.5943-2.3914-38.1209,6.0171A147.6424,147.6424,0,0,0,207.24,365.5926c-17.56,17.2426-41.1095,17.5728-58.7711.5046-7.667-7.4093-15.1832-14.98-22.6251-22.6159-13.2995-13.647-13.2259-31.0757.2819-44.8137,12.7327-12.95,25.7074-25.6617,38.4274-38.6237a11.6741,11.6741,0,0,0,3.3325-6.2913c3.0952-29.2264,26.2055-54.9726,54.944-60.5218,3.42-.66,4.2832-1.863,4.2542-5.122-.1438-16.1608.1373-32.3275-.169-48.4839C226.7985,133.4927,228.5161,128.9232,234,126h65c1.61.36,3.24.651,4.8278,1.0917,13.2464,3.6755,27.2338,5.7312,39.6,11.3508,62.46,28.3843,102.7684,75.7934,118.9928,142.8883a270.2445,270.2445,0,0,1,6.3611,89.2369c-2.0839,22.24-7.2634,43.8894-13.8331,65.2194-2.9447,9.5608-4.9459,11.1921-14.7881,11.1937-16.3069.0027-32.6139.0008-49.0185.0008-4.8216,14.9611-5.9784,29.7978-2.8783,44.8658,17.8645,2.4806,28.8443,16.4794,27.8187,33.988-.564,9.6282.1639,19.327-.218,28.9731-.1781,4.5,1.19,6.5213,5.4583,8.2491,27.29,11.0475,41.6223,31.7708,44.5819,60.8215C466.55,630.2133,464.6969,634.9516,459,638ZM246.9815,146.2359c0,17.9.01,35.2242-.0038,52.5483-.0074,9.5054-3.2477,12.8063-12.8583,13.1739-23.8491.9124-45.2386,22.1987-46.1973,46.1535a18.5145,18.5145,0,0,1-5.83,13.23c-13.9054,13.66-27.6415,27.4923-41.3842,41.3166-5.921,5.9562-6.06,11.0087-.3469,16.8731,7.44,7.6368,14.9321,15.2317,22.63,22.6062,9.0874,8.7053,20.2678,8.5172,29.3776-.2138,3.3672-3.2272,6.5574-6.6452,10.0085-9.7778,9.4986-8.6217,20.1371-15.3183,32.8387-18.0593,14.36-3.0988,28.1286-.9489,41.2277,5.52,13.2849,6.5609,26.5537,6.422,39.92.3335a58.9833,58.9833,0,0,1,6.9253-2.7987c5.7345-1.7756,10.6633.417,12.7621,5.4883,2.0591,4.9753.4288,10.0309-4.7491,12.6731-14.6775,7.49-30.022,11.969-46.65,8.24-3.1518-.7068-4.46.2427-5.9333,2.6774a155.24,155.24,0,0,1-38.3595,42.9828c-22.0566,16.9877-38.2044,38.3878-47.5637,64.6288-3.1921,8.95-5.2182,18.3151-7.8918,27.9021H367.2658c-.1686-2.2743-.4858-4.25-.4316-6.2158.2512-9.1006-.595-18.4423,1.1933-27.2422,2.9678-14.6049,7.448-28.9212,11.6663-43.2486,5.2616-17.8706,10.2036-35.7468,11.8091-54.4362a182.7494,182.7494,0,0,0-1.944-46.7579c-2.5289-14.7172-5.3085-29.4714-12.8395-42.7523-17.787-31.3675-44.3748-50.634-79.6047-58.1022-7.5789-1.6066-10.07-4.7291-10.089-12.4283-.0283-11.1626.1062-22.3268-.0433-33.4875-.1513-11.2934-6.8955-19.5577-17.6673-20.6843C262.1129,145.6258,254.7682,146.2359,246.9815,146.2359ZM155.9887,558.0184c4.1675,0,7.7971,0,11.4267,0,22.4952.0009,44.9906-.0461,67.4856.0292,7.6041.0255,12.6235,6.1283,10.7029,12.6838-1.3616,4.6478-5.25,7.23-11.2267,7.2366-24.9947.03-49.9917-.1731-74.9824.1422a64.9837,64.9837,0,0,0-19.1184,2.8469c-17.8177,5.8223-28.5644,18.4056-32.988,36.7638H444.6025a47.0038,47.0038,0,0,0-12.2791-23.8858c-10.5781-11.2237-23.9365-15.8066-39.0573-15.8393-24.1614-.0524-48.323-.014-72.4845-.0144-1.3331,0-2.6673.0315-3.999-.0111-6.4461-.2065-10.77-4.2677-10.7264-10.0489.044-5.77,4.3721-9.8556,10.8835-9.8734,24.4946-.067,48.9894-.0286,73.4842-.03h5.1055a9.5873,9.5873,0,0,0,.4254-1.5971q.0459-14.4959.0613-28.9917c.0077-12.4715-2.9273-15.4473-15.2088-15.4475q-104.7276-.0012-209.4553,0c-1.333,0-2.6689-.0514-3.9987.0154-7.1587.36-11.1891,4.1422-11.3124,11.2747C155.8452,534.5907,155.9887,545.9153,155.9887,558.0184ZM436.51,426.7944c10.8134-35.3362,16.8023-71.8864,10.7579-116.086-4.9683-36.3306-16.384-69.7649-39.7724-98.5216C385.5089,185.1543,358.8535,164.5223,325.6971,153c-7.2019-2.5028-14.7512-4.0059-22.8234-6.1509,1.3267,4.391,2.8508,7.3529,3.0262,10.3926.6124,10.6095.9963,21.2467.9593,31.8717-.0139,3.9919,1.0817,5.6255,4.9827,6.8444,49.9836,15.6178,82.5852,47.8691,94.63,99.6024a213.4462,213.4462,0,0,1-1.64,105.6124c-2.2876,8.4708-4.818,16.8762-7.3257,25.6219Z" transform="translate(-85.9734 -126)" fill="#fff"/><path d="M235.7118,281.9518c-3.3184-.0021-6.645.1474-9.9532-.0354a9.912,9.912,0,0,1,.0782-19.8209q10.1944-.3108,20.4049.0061a9.764,9.764,0,0,1,9.7021,9.9377c-.0206,5.3916-4.0713,9.5909-9.7807,9.8819C242.6878,282.0983,239.1961,281.9539,235.7118,281.9518Z" transform="translate(-85.9734 -126)" fill="#fff"/><path d="M276.0808,577.9439a9.9442,9.9442,0,1,1,9.863-9.7765A9.9755,9.9755,0,0,1,276.0808,577.9439Z" transform="translate(-85.9734 -126)" fill="#fff"/></svg>