<?xml version="1.0" encoding="utf-8"?>
<!-- Generator: Adobe Illustrator 25.0.0, SVG Export Plug-In . SVG Version: 6.00 Build 0)  -->
<svg version="1.1" id="Layer_1" xmlns="http://www.w3.org/2000/svg" xmlns:xlink="http://www.w3.org/1999/xlink" x="0px" y="0px"
	 viewBox="0 0 384 384" style="enable-background:new 0 0 384 384;" xml:space="preserve">
<style type="text/css">
	.st0{fill:#FFFFFF;}
</style>
<g>
	<path class="st0" d="M0,262c1.2-5.1,2.1-10.2,3.7-15.1c1.6-4.5,3.5-8.8,5.8-12.9c1.8-3.4,5-4.2,7.9-2.5c2.6,1.6,3.6,4.8,1.9,7.8
		c-11.3,20.4-10.4,41.4-1.1,61.9c13.4,29.8,36.1,49.2,68.3,56.2c30.3,6.6,57.4-7.9,66.7-35.4c2.8-8.3,4.1-17.2,5.4-25.9
		c1.5-10.4,6.5-17.9,15.8-22.5c7.4-3.7,14.9-7.1,22.1-10.9c3.6-2,7-4.3,10.2-6.9c1-0.8,1.2-2.6,1.8-4c-1.5-0.2-3.1-0.7-4.6-0.5
		c-5.4,0.8-10.7,2.8-16,2.7c-8.7-0.2-15.3-5.4-20.8-11.9c-0.9-1.1-1.7-2.1-2.6-3.3c-2.8,2.8-5.5,5.5-8.3,8.2
		c-4.9,4.9-10.2,5-15.1,0.2c-6.1-6-12.2-12.1-18.3-18.3c-5-5.1-5-10.4,0.1-15.3c11.9-11.6,23.9-23.1,35.9-34.5
		c1.2-1.2,2.5-2.4,4.1-3.8c-0.9-1.3-1.6-2.3-2.4-3.4c-11.2-16.6-9.5-33.6,4.9-47.6c0.8-0.6,1.5-1.3,2.2-2.1c0.6-1.2,1.1-2.5,1.5-3.8
		c-1.3-0.4-2.7-1.3-3.9-1.2c-11.7,1.7-20.6,8.3-27.2,17.5c-4.8,6.6-8.3,14.1-11.9,21.5c-3.3,6.8-5.8,14.1-9.1,20.9
		c-6.5,13.2-17.2,21.4-31.7,24.4c-12.8,2.7-25.5,5.9-37.2,12.1c-3.7,2-7.2,4.4-10.8,6.7s-6.7,2-8.6-0.6s-1.2-6,2-8.4
		c12.9-9.7,27.8-15,43.2-18.8c2.3-0.6,4.6-1.1,6.9-1.5c13.6-2.3,22.7-10.1,28-22.7c3.9-9.2,7.5-18.5,11.9-27.4
		c6.8-13.8,16.7-24.9,30.9-31.3c4.4-1.8,8.9-3.1,13.6-3.7c5.9-1,11.7,2.1,14.1,7.6c2.7,5.3,1.5,11.7-2.8,15.8
		c-2.5,2.3-4.8,4.7-7,7.3c-7.3,9.4-6.5,21.4,1.9,30.4l36.4-35c23.7-22.8,47.5-45.7,71.2-68.5c1.6-1.6,2.4-4,3.4-6.2
		c3.5-7.2,6.8-14.4,10.5-21.4c0.9-1.6,3.2-2.8,5.1-3.4c5-1.7,10-3,15.1-4.4c4-1.1,7,0.2,8,3.3c1.1,3.4-0.7,6.2-4.8,7.5
		c-0.4,0.1-0.7,0.2-1.1,0.3c-4.5,1.3-10.1,1.5-13.3,4.4c-3.5,3.2-4.9,8.8-7,13.4c-0.5,1-0.5,2.8,0.1,3.5c4.7,5.1,9.7,10,13.7,14.1
		c5.9-1.5,10.7-2.8,15.6-4c1.2-0.3,2.5-0.2,3.7,0.4c3.9,2,6.2,0.5,8.1-2.9c0.9-1.5,2.2-2.7,3.1-4.2c7.3-11.2,16.7-20.1,29.2-25.4
		c1.1-0.6,2.2-1.2,3.2-1.9c-3.6-3.3-6.9-6.4-10.3-9.2c-0.9-0.6-2-0.7-3-0.4c-4.6,1.2-9.1,2.6-13.7,3.8c-4.2,1.1-7.2-0.2-8.2-3.6
		s1-6,5.2-7.3c5.1-1.5,10.3-2.9,15.5-4.4c4-1.4,8.5-0.3,11.3,2.9c3.8,4,7.8,7.7,11.6,11.7c5.2,5.4,4.6,13-2.2,15.8
		C362.3,52.2,352.2,63.9,343,77c-1.6,2.3-3.7,4.8-6.1,5.8s-5.7,0.1-8.6-0.1c-2.4-0.2-5.3-1.4-7.1-0.5c-5.2,2.7-10.8,4.5-15.1,9
		c-43.8,45.6-87.6,91.2-131.6,136.7c-0.6,0.6-1.2,1.3-1.7,1.9c5.3,11.5,15.8,16.3,26.9,11.1c9.2-4.3,18,0.1,20,9.4
		c1.2,4.9-0.6,10-4.7,13c-5.1,4-10.5,7.6-16.1,10.8c-5.3,3-10.8,5.6-16.5,7.9c-8.4,3.5-12.2,9.7-13.3,18.6
		c-0.8,7.9-2.4,15.8-4.7,23.4c-9.1,28.9-34.3,46.8-64.9,46c-32-0.8-56.9-15.8-76.8-39.7c-12.1-14.3-19.8-31.8-22-50.4
		c-0.1-0.7-0.3-1.5-0.6-2.2V262z M131.6,220.6l17.5,17.5l10.1-10.6l-17-17L131.6,220.6z M176.6,209.5L160.3,193l-8.3,8.8l16.3,16.3
		L176.6,209.5z M178.7,175l-8.6,9.8l15.4,15.5l9.1-9.5L178.7,175z M188.1,167.5l14.1,14.1l9.5-8.2L196.4,158L188.1,167.5z
		 M206.3,150l13.5,13.6l9.4-8.5L215,140.7L206.3,150z M233,123.4l-8.6,8.6l13,13l9.3-7.9L233,123.4z M254.6,127.4l9.5-8.6
		c-4.4-4.5-8.6-8.8-13-13.3l-8.7,9.5L254.6,127.4z M288,70.3l-9.2,10.2c3.2,3.4,7,7.3,9.9,10.4l10.5-9.2L288,70.3z M269.2,88.1
		l-8.6,9.5c3.8,3.8,7.9,7.9,11,11.1l10-8.1L269.2,88.1z"/>
	<path class="st0" d="M97.9,308.7c-0.8,9.9-6.5,14.7-13.1,18.4c-5.4,3-11.1,1.1-16.4-4.2c-6.5-6.5-12.8-13.3-19.6-19.5
		c-9.3-8.3-10.3-17.7,0.3-26.4c2.7-2.2,5.7-3.8,9-4.7c3.7-1,7.7,0.2,10.3,3c8.7,8.5,17.4,17.1,25.8,25.9
		C96.3,303.5,97,306.9,97.9,308.7z M87,310.6c-0.6-1.1-1.2-2.1-1.9-3c-7.6-7.7-15.3-15.3-22.9-23c-1.6-1.6-3.2-1.7-4.8,0l-2.1,2.1
		c-3.2,3.2-3.2,3.8-0.1,6.9c6.9,7,13.8,14,20.9,20.8c1.2,1.1,3.7,2.6,4.5,2.1C82.8,315.1,84.7,312.7,87,310.6z"/>
	<path class="st0" d="M92.8,238c5.5-0.3,10.7,2.6,13.4,7.4c0.9,1.5,0.4,4.7-0.6,6.4c-1.4,2.3-4.2,2.6-6.6,1.2
		c-1.2-0.7-1.9-2.1-3.2-2.6c-1.3-0.5-2.8-0.6-4.2-0.1c-1.5,0.8-2.5,2.3-3.8,3.6c-1.5,1.5-1.4,3,0.1,4.5c7.8,7.7,15.5,15.5,23.2,23.3
		c1.5,1.5,3,1.6,4.5,0.1c1-1,1.9-2,2.9-2.9c2.3-2,2.2-3.9-0.1-5.9c-0.9-0.7-1.6-1.5-2.3-2.5c-1.7-2.5-1.5-5,0.7-7.1
		c1.9-2,5-2.3,7.2-0.5c9.2,6.3,10.1,16.2,2.2,24.2c-1,1-1.9,2-2.9,2.9c-6,5.7-13.8,5.8-19.7,0c-8.1-7.9-16.1-15.9-24-24
		c-5.8-5.9-5.7-13.8,0-19.7C83.6,242.3,87.3,237.8,92.8,238z"/>
	<path class="st0" d="M131.4,312.1c-3.1,0-5.6-2.6-5.6-5.7c0-3.1,2.6-5.6,5.7-5.6c0.1,0,0.2,0,0.3,0c3,0,5.4,2.5,5.3,5.5
		c0,0,0,0.1,0,0.1C137,309.5,134.5,312,131.4,312.1z"/>
	<path class="st0" d="M124.3,330c-3.1-0.1-5.6-2.6-5.8-5.7c0-3.1,2.6-5.6,5.7-5.6s5.6,2.6,5.6,5.7
		C129.7,327.4,127.3,329.9,124.3,330z"/>
	<path class="st0" d="M111.8,331.7c0,3.1-2.5,5.6-5.6,5.6c-3.1,0-5.6-2.5-5.6-5.6c0.1-3.3,2.8-5.8,6.1-5.8
		C109.6,326.1,111.9,328.7,111.8,331.7z"/>
</g>
</svg>
