<svg xmlns="http://www.w3.org/2000/svg" viewBox="0 0 384.1042 349.2002"><title>IKONA3</title><g id="Layer_1" data-name="Layer 1"><path d="M101.5,478c2.84-4.6393,7.0331-6.1455,12.3342-5.8149,4.7163.294,9.4654.0617,13.42.0617-.2673-8.416-.7406-16.5537-.75-24.6919q-.0992-88.6838-.0349-177.3677c.0019-11.1047,5.2875-19.1031,14.7191-21.8378a32.33,32.33,0,0,1,8.8666-1.0586q76.3092-.0918,152.6187-.044h5.1088c0-3.8954.12-7.372-.0791-10.83a4.9161,4.9161,0,0,0-1.676-2.6905c-2.3263-2.264-4.8715-4.3069-7.1518-6.6135-4.478-4.53-5.3163-10.2029-2.3592-15.8023,1.63-3.0873,3.3844-6.12,5.2532-9.0686,3.3754-5.3264,8.7265-7.2954,14.9206-5.6578a14.98,14.98,0,0,1,3.943,1.1192c6.2707,3.8111,11.41.9162,16.3428-2.7087a7.0686,7.0686,0,0,0,2.1976-3.5975c.9029-3.1034,1.37-6.3322,2.2437-9.4456,1.5867-5.6544,5.47-8.9388,11.2464-9.4828a70.1941,70.1941,0,0,1,12.3484-.0375c6.0511.504,10.0492,4.1447,11.676,10.0017.4668,1.6807,1.2528,3.3951,1.2059,5.0748-.2122,7.5974,6.0414,9.2219,10.9442,12.0068.8595.4881,2.3988.02,3.5479-.2895,3.0072-.81,5.951-1.8551,8.9583-2.6639,5.9953-1.6123,11.2949.3187,14.6549,5.4839a107.3836,107.3836,0,0,1,5.627,9.7157c2.693,5.2762,1.8772,10.5-2.1637,14.8776a25.0394,25.0394,0,0,1-4.6247,4.3637c-4.2507,2.7007-5.4107,6.4787-4.7686,11.194a38.6191,38.6191,0,0,1,.0307,4.8289c1.6246.0848,2.94.21,4.2566.2129,8.1246.0187,16.25-.0482,24.3738.0239,12.6979.1126,21.43,8.6568,21.7662,21.3435.1454,5.496.0852,11,.0122,16.4984-.06,4.5058-2.0551,6.88-5.6232,6.9572-3.7517.0816-5.8536-2.3506-5.91-7.0412-.066-5.499.0533-11.0008-.0493-16.4987-.116-6.2171-3.6074-9.6179-9.8729-9.69-5.2488-.06-10.4991-.005-15.7486.0158a3.6843,3.6843,0,0,0-.8781.1734c.2312,3.453.4581,6.8431.7184,10.7312,2.4171,0,5.26-.0689,8.0974.0157,4.5359.1354,6.5454,2.1719,6.7725,6.7281.0435.8729.0123,1.75.0123,2.6245q.0039,86.4341.0063,172.868c0,7.78-1.4665,9.2642-9.1532,9.2644q-135.3695.0022-270.739,0c-7.705,0-9.1682-1.4758-9.1708-9.237-.0034-10.25-.02-20.4992.02-30.7486.0058-1.4813-.2231-3.3891.5679-4.3472,1.371-1.6607,3.4637-3.7748,5.237-3.76,1.7767.0153,3.833,2.1617,5.1833,3.8427.7818.9734.5351,2.8708.5415,4.3533.04,9.238.02,18.4763.02,28.0215H426.2168V281.4187c-4.7673.3121-9.5788-1.5876-13.8392,2.8142-2.5788,2.6644-6.4777,3.0389-10.2244,2.1194-1.5736-.3861-3.3286-.5233-4.6567-1.3363-6.4183-3.9287-11.6205-.8074-16.72,2.72a5.5776,5.5776,0,0,0-1.8506,2.9628c-.8686,3.1183-1.4122,6.3261-2.2436,9.4563-1.5777,5.94-5.5279,9.521-11.6135,10.0039a79.039,79.039,0,0,1-12.7126-.0624c-5.5412-.458-9.13-3.7441-10.8279-8.9707a81.6405,81.6405,0,0,1-2.02-7.97,12.7213,12.7213,0,0,0-15.98-9.1351c-2.8407.9316-5.7562,2.44-8.598,2.3559-3.4242-.102-7.2991-.8865-10.06-2.7423a11.8234,11.8234,0,0,0-7.4531-2.3389c-2.7228.0857-5.45.0187-8.41.0187.603,3.2159,1.0279,6.0324,1.7086,8.7856a4.957,4.957,0,0,0,1.7319,2.2722c.8515.71,1.9975,1.0609,2.8677,1.7536,3.9722,3.1622,8.1287,3.7684,12.765,1.4412a26.3578,26.3578,0,0,1,5.36-1.6178,12.6659,12.6659,0,0,1,14.32,5.55c2.0253,3.1433,3.9049,6.3983,5.6092,9.7264a12.6979,12.6979,0,0,1-2.0837,14.92,27.3443,27.3443,0,0,1-4.9148,4.6026c-3.8025,2.4761-4.5548,5.8221-4.6056,10.1442-.0518,4.4031,1.0724,7.4971,4.6784,10.1158a25.5845,25.5845,0,0,1,6.4344,6.7247c4.748,7.43.097,13.4619-3.3638,19.6866-2.9394,5.2869-6.8231,9.1851-13.2253,8.6537a40.7769,40.7769,0,0,1-10.4348-2.7472c-2.9443-1.0816-5.26-.708-8.082.6851-4.8448,2.3922-7.8563,5.4308-8.2926,11.1674-.236,3.1023-1.8438,6.1514-3.091,9.1157-3.2908,7.8212-28.0587,8.0291-31.4058-.2066-1.72-4.2319-2.5933-8.8007-4.1167-13.123-.5583-1.584-1.8862-2.8976-2.8722-4.3282-.0648-.0942-.2147-.1255-.3126-.2019-4.769-3.7223-9.7827-5.1243-15.4574-1.9145a16.1309,16.1309,0,0,1-3.9492,1.106c-5.9984,1.5341-11.29-.4028-14.6332-5.56-1.8988-2.9287-3.6348-5.9738-5.2785-9.0548-3.1037-5.8177-2.2474-11.3359,2.4037-16.0976a21.0348,21.0348,0,0,1,4.1266-3.8c6.6572-3.8317,4.3716-10.1233,4.46-15.7223.012-.7618-1.0126-1.6307-1.7048-2.2965-2.43-2.3376-5.0514-4.4885-7.3679-6.93-4.112-4.3347-4.9091-9.5711-2.224-14.8435a104.6429,104.6429,0,0,1,5.8274-10.0273,12.5632,12.5632,0,0,1,14.0492-5.3713c2.4169.6067,4.7806,1.4247,7.1963,2.0368,1.8834.4772,4.1338,1.6013,5.6509,1,3.3143-1.314,7.0328-2.9335,9.1369-5.58,1.8815-2.3669,1.8188-6.2793,2.6925-9.8291H160.5367v4.6466q0,51.56.001,103.1208c0,.875.0037,1.75-.0022,2.6249-.0358,5.316-1.9839,8.009-5.7879,8.0054-3.8-.0037-5.7746-2.6948-5.7761-8.0179q-.0163-56.9976-.0023-113.9953c.0018-6.381,1.8481-8.1822,8.3416-8.1832q66.56-.0111,133.12-.0041h4.4311c.1853-3.6826.3567-7.0873.55-10.933h-3.804q-70.8722,0-141.7442.0023c-8.9777.0009-11.8239,2.8647-11.8243,11.9088q-.0041,94.8711.0071,189.7423c.0012,8.764,2.94,11.7161,11.6388,11.7165q143.8065.0057,287.6132,0c8.7107,0,11.66-2.9538,11.661-11.7026q.01-73.31.0188-146.619c.0008-1.7319-.3024-3.8826.5694-5.0947,1.2214-1.6978,3.4143-3.7094,5.1917-3.71s3.8076,2.0875,5.23,3.6987c.74.8383.5405,2.6229.5411,3.98q.0374,74.06-.0364,148.1188c-.0068,3.6823-.8935,7.363-1.4162,11.3919,5.081,0,10.4339-.0235,15.7866.0057,7.5351.0412,10.6651,3.1859,10.63,10.75-.0265,5.7451.4914,11.59-.3753,17.2142-1.9174,12.441-12.1957,20.83-25.3981,21.0321-14.871.2272-29.7481.0962-44.6222.0377-4.612-.0182-7.0881-2.291-6.9634-6.0178.1183-3.5373,2.5193-5.4937,7.0512-5.5064,13.9993-.0394,27.9988-.0085,41.9982-.0178,12.1617-.008,17.0952-4.9157,17.0987-16.9814.0008-2.846,0-5.692,0-8.738H334.0406c-.0928.7052-.2066,1.2907-.2418,1.8807-.6217,10.4159-6.3509,15.8648-16.8829,15.8962-14.8743.0443-29.7488.0121-44.6232.0114-13.3091-.0007-18.0292-4.2651-19.3159-17.7112H112.4361c.3818,5.44.077,11.1232,1.3471,16.4289,1.3164,5.4988,5.7615,8.58,11.5837,9.0864,1.8632.162,3.7464.1244,5.6205.1245q127.4947.0079,254.99.0182a22.3977,22.3977,0,0,1,4.8305.3562,5.0251,5.0251,0,0,1,4.15,5.1042,5.1187,5.1187,0,0,1-3.9795,5.61,15.5861,15.5861,0,0,1-4.0637.4634q-128.9947.0311-257.99.008c-14.0371-.0035-22.6477-6.4413-26.8553-19.8431A4.8079,4.8079,0,0,0,101.5,500.5ZM358.8088,298.8908c7.6433-.1648,5.9647,1.2749,8.109-6.5323a16.1423,16.1423,0,0,0,.4306-2.5814c.6468-6.1344,4.3332-9.6578,9.3194-13.0762,7.99-5.4774,15.8171-6.8965,24.47-2.4749,3.6629,1.8717,5.4814.45,7.254-2.8484,3.8222-7.1136,3.8712-6.9124-2.1666-12.3621-2.5364-2.2894-5.3522-4.8525-6.5951-7.884-3.9415-9.6128-.736-21.1485,7.0564-28.0027a17.697,17.697,0,0,0,3.2352-3.0955c.71-1.0639,1.5627-2.924,1.1071-3.7181a86.1763,86.1763,0,0,0-6.261-8.9134c-.13-.1721-1.1332.3063-1.7258.4956-2.8459.9088-5.6864,1.8342-8.5358,2.7318-8.1524,2.5679-23.889-5.7845-26.3505-13.994-.2132-.711-.27-1.4676-.432-2.1956a80.9589,80.9589,0,0,0-1.9907-8.3482,3.9191,3.9191,0,0,0-2.72-2.1826c-10.4189-1.0149-10.9259-.652-12.5495,9.5586-.8474,5.3293-3.3855,9.279-8.2208,11.7439a35.9185,35.9185,0,0,0-4.5324,2.6167c-5.5746,3.9622-11.2475,4.3186-17.6506,1.739-7.729-3.1137-7.6736-2.6763-12.18,4.4715-1.9741,3.1316-1.7364,5.2275,1.2278,7.0985,8.7819,5.5432,11.3834,13.678,10.025,23.5288a15.9071,15.9071,0,0,0-.0367,2.2463,12.5107,12.5107,0,0,1-4.6242,9.8217,92.3357,92.3357,0,0,0-6.8824,6.3391c-.6973.7521-1.14,2.6615-.6793,3.4272,6.5018,10.7967,2.7891,9.8025,14.2013,6.2953.714-.2195,1.4112-.4932,2.1221-.7234,7.89-2.5537,23.79,5.5293,26.35,13.4344.42,1.2972.5873,2.6759.88,4.0151a44.6078,44.6078,0,0,0,1.6291,6.8928,5.29,5.29,0,0,0,3,2.385C356.1954,299.2013,357.56,298.8857,358.8088,298.8908Zm-35.232,16.4414c-.1838-.5211-.3067-.8664-.4274-1.2125-3.0823-8.8382-5.3989-9.9981-14.0131-7.0144-.7066.2447-1.4263.4593-2.1143.7488a13.2376,13.2376,0,0,1-12.5276-1.1032,62.5974,62.5974,0,0,0-5.5063-3.1846c-5.9425-2.7575-9.0308-7.2167-9.9886-13.8159-1.2347-8.5067-1.5934-8.23-10.1965-8.5417-3.7332-.1355-5.2965,1.1509-5.4814,4.6431-.5356,10.1108-5.9763,16.5465-15.1285,20.2089a6.5306,6.5306,0,0,0-.98.5456,13.6176,13.6176,0,0,1-12.8683,1.242c-2.5409-1.0046-5.2612-1.551-7.8173-2.523-1.8619-.708-3.0183-.3925-3.9671,1.4-5.6427,10.6587-7.0551,7.1784,2.3011,15.3538,4.2871,3.7461,6.5355,8.0463,6.2353,13.7138a36.812,36.812,0,0,0,.0061,4.8713c.5352,6.6773-2.0049,11.6961-7.3433,15.8185-6.6137,5.1072-6.24,5.2264-2.42,12.4769,1.8268,3.4673,3.795,4.5611,7.2906,2.7206,9.0442-4.7619,17.2895-2.8584,25.0442,3.058a18.0716,18.0716,0,0,0,1.9142,1.1736,13.0719,13.0719,0,0,1,6.3435,9.2658,73.0564,73.0564,0,0,0,1.9492,8.7437,4.0926,4.0926,0,0,0,2.9747,2.3552c12.52-.2118,9.5727,2.569,12.4472-9.7328.0282-.1207.02-.25.0415-.3722,1.3614-7.7372,15.75-18.4141,23.5922-17.4419a23.5864,23.5864,0,0,1,3.9664,1.05c2.6184.8078,5.2542,1.5762,7.8224,2.5245,2.1721.8019,3.3227.1076,4.4921-1.85,5.0488-8.45,5.1148-8.41-2.3544-14.8386a12.03,12.03,0,0,1-2.506-2.2348c-1.3152-2.07-3.1934-4.2167-3.4159-6.4729-1.0242-10.3857-2.1783-21.0073,8.9111-27.5847a14.1783,14.1783,0,0,0,2.7062-2.58A11.6579,11.6579,0,0,0,323.5768,315.3322ZM265.16,484.0375c-.6978,5.2754-.0239,6.1872,4.7251,6.1964q23.61.0459,47.22,0c4.7513-.0093,5.4274-.9216,4.7372-6.1963Z" transform="translate(-101.5 -172.1774)" fill="#fff"/><path d="M358.4555,271.94c-16.98-.3262-30.6394-14.3362-30.3212-31.0986.3194-16.8206,14.6685-30.668,31.2861-30.192a30.6491,30.6491,0,1,1-.9649,61.2906Zm.3426-24.6937c4.8647,0,9.7466-.2507,14.5885.0818,3.6613.2515,4.846-1.2181,4.9214-4.5951.1767-7.9214-2.875-14.1719-9.7575-18.0864-6.8558-3.8994-13.9443-3.6485-20.486.8043-6.4192,4.3693-9.0111,10.6658-8.2725,18.4428.2372,2.4983,1.0711,3.4858,3.6653,3.4007C348.5659,247.1274,353.684,247.2455,358.7981,247.2467Zm-5.897,11.7867-.002.8591h11.9118l.0021-.8591Z" transform="translate(-101.5 -172.1774)" fill="#fff"/><path d="M270.6658,369.4459A30.658,30.658,0,1,1,270.83,308.13c16.8755.0872,30.8066,14.0352,30.74,30.7774A30.8536,30.8536,0,0,1,270.6658,369.4459Zm.4863-49.8144c-10.8727-.1234-19.5735,8.1248-19.7161,18.69A19.1651,19.1651,0,0,0,270.13,358.0646c11.0558.1817,19.7129-8.0565,19.8686-18.9073A18.9846,18.9846,0,0,0,271.1521,319.6315Z" transform="translate(-101.5 -172.1774)" fill="#fff"/></g></svg>