<svg xmlns="http://www.w3.org/2000/svg" viewBox="0 0 94.2 20"><g id="Layer_2" data-name="Layer 2"><g id="Layer_1-2" data-name="Layer 1"><g id="Layer_2-2" data-name="Layer 2"><g id="Layer_1-2-2" data-name="Layer 1-2"><path d="M22.2,2.6H3.2A3.22,3.22,0,0,0,0,5.8H0V16.6c0,.2.2.5.4.5h.9a.54.54,0,0,0,.5-.5h0V5.8A1.37,1.37,0,0,1,3.2,4.4h19a1.37,1.37,0,0,1,1.4,1.4v11a1.37,1.37,0,0,1-1.4,1.4H2.6a.43.43,0,0,0-.4.4h0v.9a.37.37,0,0,0,.1.3h0c0,.1.2.2.3.2H22.2a3.16,3.16,0,0,0,3.2-3.2V5.8A3.29,3.29,0,0,0,22.2,2.6Z"/><path d="M12.1,11.5c-.3-.9-1.1-1.5-1.7-1.3s-.8,1.1-.5,2.1,1.1,1.5,1.7,1.2A1.47,1.47,0,0,0,12.1,11.5Z"/><path d="M14.2,15.9c1.8-.6,2.5-3.2,1.6-5.7s-3.1-4-4.9-3.3a3,3,0,0,0-1.8,2c2.3-.6,4.5.2,5.1,1.9s-.6,3.7-2.7,4.7A3.23,3.23,0,0,0,14.2,15.9Z"/><path d="M29.5,5.8c.5-.1,1.1-.2,1.8-.4a22.75,22.75,0,0,1,2.6-.2,5.38,5.38,0,0,1,2.2.4,4.51,4.51,0,0,1,1.4,1,3.29,3.29,0,0,1,.7,1.6,7.49,7.49,0,0,1,.2,2.1v6.3h-2V10.8A10.87,10.87,0,0,0,36.3,9a3.08,3.08,0,0,0-.5-1.2,2.18,2.18,0,0,0-.9-.7,5.85,5.85,0,0,0-1.3-.2H32.2a1.27,1.27,0,0,0-.6.1l-.4.1v9.5h-2Z"/><path d="M50.8,16.4c-.5.1-1.1.2-1.8.4a22.75,22.75,0,0,1-2.6.2,5.7,5.7,0,0,1-2.2-.4,3,3,0,0,1-1.4-1.1,3.29,3.29,0,0,1-.7-1.6,7.49,7.49,0,0,1-.2-2.1V5.5h2v5.9a4.35,4.35,0,0,0,.7,2.9,2.5,2.5,0,0,0,2.2.9h.7l.7-.1.5-.1a.37.37,0,0,0,.3-.1V5.5h2Z"/><path d="M59.1,17a6.72,6.72,0,0,1-2.4-.4A5.23,5.23,0,0,1,55,15.4a4.6,4.6,0,0,1-1-1.8,6.61,6.61,0,0,1-.3-2.4A9.86,9.86,0,0,1,54,8.8a5,5,0,0,1,1-1.9,4.07,4.07,0,0,1,1.7-1.2A4.49,4.49,0,0,1,59,5.3a7.57,7.57,0,0,1,1.5.1,5.73,5.73,0,0,1,1.4.4l-.5,1.7a1.93,1.93,0,0,0-1-.3A2.54,2.54,0,0,0,59.2,7a3,3,0,0,0-2.6,1.1,4.37,4.37,0,0,0-.9,3.1,9.85,9.85,0,0,0,.2,1.7,3.1,3.1,0,0,0,.6,1.3,2.1,2.1,0,0,0,1.1.8,4.67,4.67,0,0,0,1.7.3,6.15,6.15,0,0,0,1.4-.1c.3-.1.7-.2,1-.3l.3,1.7c-.2.1-.3.2-.5.2s-.5.1-.7.2l-.8-.1A2.77,2.77,0,0,1,59.1,17Z"/><path d="M67.6,16.9a3.53,3.53,0,0,1-2.6-.8,3.33,3.33,0,0,1-.8-2.4V.3l2-.3V13.5a2,2,0,0,0,.1.8.55.55,0,0,0,.3.5,2.19,2.19,0,0,0,.5.3c.3.1.5.1.8.2Z"/><path d="M69.5,11.1a7.46,7.46,0,0,1,.4-2.6A5.44,5.44,0,0,1,71,6.7a4.19,4.19,0,0,1,1.6-1.1,5.85,5.85,0,0,1,1.9-.4A4.27,4.27,0,0,1,78,6.6,6.84,6.84,0,0,1,79.2,11v.7H71.5a4.49,4.49,0,0,0,1,2.7,3.66,3.66,0,0,0,2.8.9,5.66,5.66,0,0,0,1.8-.3,4.87,4.87,0,0,0,1.1-.4l.3,1.7a5,5,0,0,1-1.3.4,14.92,14.92,0,0,1-2.1.2,6.9,6.9,0,0,1-2.5-.4,5.67,5.67,0,0,1-1.8-1.2,4.6,4.6,0,0,1-1-1.8A9.86,9.86,0,0,1,69.5,11.1ZM77.2,10a3.41,3.41,0,0,0-.7-2.2,2.46,2.46,0,0,0-1.9-.9,2.66,2.66,0,0,0-1.2.3,5.5,5.5,0,0,0-.9.7,8.79,8.79,0,0,0-.6,1c-.1.4-.2.7-.3,1.1Z"/><path d="M83.2,3.5a1.4,1.4,0,0,1-.9-.3,1.28,1.28,0,0,1-.4-1,1.28,1.28,0,0,1,.4-1,1.49,1.49,0,0,1,.9-.4,1.09,1.09,0,0,1,.9.4,1.28,1.28,0,0,1,.4,1,1.28,1.28,0,0,1-.4,1A1.61,1.61,0,0,1,83.2,3.5Zm1,13.2h-2V5.5h2Z"/><path d="M89.5,5.5h4.2V7.2H89.5v5.2a6.6,6.6,0,0,0,.1,1.4,3.55,3.55,0,0,0,.4.9,1,1,0,0,0,.7.4,2.77,2.77,0,0,0,.9.1A3.18,3.18,0,0,0,93,15l.8-.3.4,1.7c-.3.1-.7.3-1,.4a11,11,0,0,1-1.8.2,6.28,6.28,0,0,1-1.9-.3,2.73,2.73,0,0,1-1.2-.9,3.51,3.51,0,0,1-.6-1.4,13.55,13.55,0,0,1-.2-2V2.4l2-.3Z"/></g></g></g></g></svg>