<svg xmlns="http://www.w3.org/2000/svg" viewBox="0 0 246.09 215.11"><defs><style>.cls-1{fill:#010101;}.cls-2{fill:#0d0e0e;}.cls-3{fill:#0d0d0d;}.cls-4{fill:#fff;}.cls-5{fill:#040404;}.cls-6{fill:#040607;}.cls-7{fill:#fbfcfc;}.cls-8{fill:#070608;}.cls-9{fill:#f6f6f6;}.cls-10{fill:#0a0808;}.cls-11{fill:#f5f6f6;}.cls-12{fill:#f2f2f2;}.cls-13{fill:#f4f4f4;}.cls-14{fill:#e6e6e5;}.cls-15{fill:#34302f;}.cls-16{fill:#080708;}.cls-17{fill:#1c191a;}.cls-18{fill:#d9d9d8;}.cls-19{fill:#5c585c;}.cls-20{fill:#dcdbdb;}.cls-21{fill:#383938;}.cls-22{fill:#bcbcbc;}.cls-23{fill:#0f0f11;}.cls-24{fill:#756d71;}.cls-25{fill:#535151;}.cls-26{fill:#e9ebe8;}.cls-27{fill:#e3e3e3;}.cls-28{fill:#353736;}.cls-29{fill:#1e1f1f;}.cls-30{fill:#2d2e2d;}.cls-31{fill:#474445;}.cls-32{fill:#1d0d0e;}.cls-33{fill:#d8d9d8;}.cls-34{fill:#5a5559;}.cls-35{fill:#7d7d7d;}.cls-36{fill:#7f787b;}.cls-37{fill:#f9f9fa;}.cls-38{fill:#2e2f2d;}.cls-39{fill:#c6c5c5;}.cls-40{fill:#3e3e3e;}.cls-41{fill:#f6f7f6;}.cls-42{fill:#aaa;}.cls-43{fill:#a8a7a7;}.cls-44{fill:#cbcbcb;}.cls-45{fill:#bfbebe;}.cls-46{fill:#f0efef;}.cls-47{fill:#d3d3d3;}.cls-48{fill:#e0e0df;}.cls-49{fill:#f1f2f0;}.cls-50{fill:#bcbcbb;}.cls-51{fill:#aeaeae;}.cls-52{fill:#838384;}.cls-53{fill:#ababab;}.cls-54{fill:#e9e8e9;}.cls-55{fill:#1c1f20;}.cls-56{fill:#b4b4b4;}.cls-57{fill:#969696;}.cls-58{fill:#191819;}.cls-59{fill:#1d1d1d;}.cls-60{fill:#4f4f50;}.cls-61{fill:#9c9c9c;}.cls-62{fill:#b7b7b8;}.cls-63{fill:#bababa;}.cls-64{fill:#f7f8f8;}.cls-65{fill:#5d5d5d;}.cls-66{fill:#d2d2d2;}.cls-67{fill:#acacac;}.cls-68{fill:#908e8f;}.cls-69{fill:#030404;}.cls-70{fill:#c2c1c1;}.cls-71{fill:#1e1e1e;}.cls-72{fill:#020202;}.cls-73{fill:#969494;}.cls-74{fill:#1b191b;}.cls-75{fill:#969393;}.cls-76{fill:#c1c0c0;}.cls-77{fill:#494948;}.cls-78{fill:#c0bdc0;}.cls-79{fill:#b3aeb0;}.cls-80{fill:#202020;}.cls-81{fill:#565656;}.cls-82{fill:#908f8f;}.cls-83{fill:#4f4f4f;}.cls-84{fill:#b5b6b6;}.cls-85{fill:#4c4c4c;}.cls-86{fill:#272626;}.cls-87{fill:#ede8ea;}.cls-88{fill:#766e71;}.cls-89{fill:#e8e2e5;}.cls-90{fill:#999696;}.cls-91{fill:#848181;}.cls-92{fill:#cccccd;}.cls-93{fill:#bbbabc;}.cls-94{fill:#060606;}.cls-95{fill:#cfd1d0;}.cls-96{fill:#595958;}.cls-97{fill:#b9b9ba;}</style></defs><g id="Layer_2" data-name="Layer 2"><g id="Layer_1-2" data-name="Layer 1"><path class="cls-1" d="M0,203.82a15.07,15.07,0,0,0,2.56-1.93q1.5-1.5,3.2-3a21.6,21.6,0,0,0,2.71-3.47,19.18,19.18,0,0,1,4.94-4.82c2.2-1.38,4.42-2.73,6.54-4.23a51.91,51.91,0,0,1,9.75-5.86,12.46,12.46,0,0,1,3.59-1A11.06,11.06,0,0,0,40,176.3c1.27-1.25,3-1.72,4.5-2.46a19.72,19.72,0,0,0,4.24-2.74,10.92,10.92,0,0,1,4.57-2.23,17.07,17.07,0,0,0,4.56-2.12c1.83-1.11,3.8-1.89,5.62-3a9.36,9.36,0,0,0,1.81-1.24,34.74,34.74,0,0,1,5-3.89A34.64,34.64,0,0,1,74.15,156c.63-.34,1.27-.22,1.9-.5a10.37,10.37,0,0,0,2.76-1.76,5,5,0,0,1,3.48-1.45,7.24,7.24,0,0,0,3.2-.34,3.51,3.51,0,0,0,2.24-3.57V135.14a21.47,21.47,0,0,0-1-6.17,33.62,33.62,0,0,1-.94-4.18c-.33-2.2-.46-4.43-.81-6.6a55,55,0,0,1-.26-6.29A3.1,3.1,0,0,0,84,110a3.21,3.21,0,0,0-1.48-1.27c-2.56-.92-4-3-4.83-5.53a43.31,43.31,0,0,1-1.61-9.1c-.26-2.22-.18-4.42-.25-6.62,0-.6-.64-1.08-.39-1.58.67-1.32.18-2.77.62-4.14a40.92,40.92,0,0,1,1.27-4.65c1-2.31,2.92-2.77,5-1.46.47.29.93.53,1.56.9,0-2.83-1.26-5.4-.72-8.09.31-.21.6-.94,1,0,.23.58.22,1.4,1.11,1.36a2.19,2.19,0,0,0,1.88-1.61c.41-1.18,1-2.3,1.3-3.52a2.79,2.79,0,0,1,2-2.26c.53-.14.56-.5.55-1,0-1.49.21-1.77,1.64-2,.39-.08.75-.19.48-.64-.7-1.18.15-1.88.83-2.53a1.76,1.76,0,0,0,.53-.86c.41-1.29.78-2.63,2.45-2.93.8-.14,1.16-.66,1-1.59a1.71,1.71,0,0,1,1.36-2,1.67,1.67,0,0,1,.8.05c1.41.3,1.94-.18,1.83-1.64s.44-2.2,2-2.38a1.16,1.16,0,0,0,.67-.13c1.41-1,2.84-.37,4.37-.14.21-.18.18-.55.16-.87a1.78,1.78,0,0,1,1.6-1.92,11.75,11.75,0,0,1,4.9-.34.63.63,0,0,0,.83-.39,2.39,2.39,0,0,1,.32-.59c.67-.93,1.2.6,1.87.08s1.1-.52,1.68.42a1.49,1.49,0,0,0,1.41.75h3c.43,0,.91.1,1,.61s-.37,1.21-.71,1.16c-1-.12-1,.67-1.42,1.12a.9.9,0,0,1-.72.33l-.29-.07c-.14-.07-.28-.23-.4,0s-.67.52-.89.89c-.37.36-.85.56-1.25.88a1.91,1.91,0,0,0-1.27,1.23,6.07,6.07,0,0,0-1.14,2.47,10.78,10.78,0,0,1-1.32,2.68,2.36,2.36,0,0,0-1,2.31,1.6,1.6,0,0,1,0,.31c-.1.4-.08.82-.18,1.22a1.75,1.75,0,0,1-.13.28c-.31.63-.5,1.31-.8,1.94a2.47,2.47,0,0,1-.71,1.19,2.13,2.13,0,0,0-.73.73,2.24,2.24,0,0,1-1.4.92c-.7,0-1,.44-1.28,1a1.07,1.07,0,0,1-.2.23,1,1,0,0,0-.48,1.33.16.16,0,0,1,0,.07c.1.24.23.47.08.73a1.78,1.78,0,0,1-.27.17c-.18.12-.62,0-.46.41.08.22.38,0,.59,0a2.29,2.29,0,0,1,1.36.24c1,.28,2.1.2,3.09.56a2.84,2.84,0,0,1,1.19.62,1.91,1.91,0,0,1,.22,1c0,.6-.18.86-.8.69-.17,0-.33-.48-.5,0s.2.31.39.3c.56,0,.89.19.9.76s-.42.66-.85.73l-.57.1c-1.24.27-1.23.45-.67,1.54.91,1.76,2.57,3,3.29,4.88a1.17,1.17,0,0,0,1.13.81c.64,0,.78.31.59.89a1.85,1.85,0,0,0-.06,1.44,7.75,7.75,0,0,1,1.45-1.82,1.68,1.68,0,0,1,2-.4c.7.34.51,1,.29,1.6a.76.76,0,0,0,.2.83c.37.4,1,.71.79,1.39a3.16,3.16,0,0,1-1.38,1.75,2.18,2.18,0,0,1-.91.22c.47.44,1.13.64.94,1.42-.09.38.41.37.69.39a12.62,12.62,0,0,0,2.6-.21,2.07,2.07,0,0,1,.78-.1c.47.08,1,.37,1.37-.14a3.62,3.62,0,0,0,1-2.57,16.32,16.32,0,0,0-.42-2.42,14.57,14.57,0,0,0-2.78-4.49c.33.49.83.84,1,1.42.12.34.47.73,0,1s-.67-.1-.86-.38a19.09,19.09,0,0,1-2-3.18,10.64,10.64,0,0,0-3.16-3.94c-.69-.64-1.73-.68-2.58-1.07-.35-.16-.63-.24-.59-.68s.34-.58.71-.61a13.73,13.73,0,0,1,2.72,0c3.47,0,5.82,2.56,8.7,3.89a3.66,3.66,0,0,0,.82.75c.69.35.79.82.25,1.5H130c-.13,0-.08-.07,0-.1.3-.39.59-.14.85,0a6.54,6.54,0,0,1,.84.74c2.16,1.77,2.26,4.06,1.58,6.51a6,6,0,0,0-.18,1.69A29.66,29.66,0,0,1,132.7,87a15.48,15.48,0,0,0,.37,5.42,12.28,12.28,0,0,1-.2,6.72,11.35,11.35,0,0,0-.23,5.87,6.36,6.36,0,0,0,4.75,5,15.43,15.43,0,0,0,2.32.58.75.75,0,0,1,.82.49c.11.4-.24.68-.56.9a8.16,8.16,0,0,1-1.48.81c1.14.19,2-.51,3-.61,1.46.08,3-.31,4.39.25.34.7-.22,1.08-.62,1.41a11,11,0,0,1-4.74,2.39,17,17,0,0,1-4.13.66c-.54,0-1,.27-1.62.25-.09,0,.06.18,0,0s0-.06.11,0c1.13.41,1.26.84.47,1.69a5.2,5.2,0,0,1-1.88,1.44c-2.3.89-4.61.28-6.92.08-1.17.28-2.37.39-3.53.79a9,9,0,0,1-3.83.22,56.4,56.4,0,0,0-7.12-.1c1.55,0,3,.49,4.58.57,2.83.14,5.6.84,8.43,1.11a14.82,14.82,0,0,1,2.85.77c2.38.66,4.81,1,7.22,1.48a38.5,38.5,0,0,1,8.75,2.41,7.32,7.32,0,0,0,4.14.4,7.49,7.49,0,0,1,3.16.09c.41.11.85.25.88.76s-.44.62-.8.83c-2.77,1.55-5.65,3-7.74,5.46a4.79,4.79,0,0,1-2.38,1.5c-1.06.12-2.11.18-2.84-.82-.15-.34.08-.53.27-.74a1.21,1.21,0,0,1,.26-.2,2,2,0,0,1,.45-.15,2.29,2.29,0,0,0,.73-.22,1.15,1.15,0,0,0-1.17.14c-.35.19-.75.29-1.09.5a19.29,19.29,0,0,1-7.36.86c-1.3-.07-2.52-.74-3.84-.82-1-.63-2.14-.13-3.16-.45,0,.13.2.07.29.14a1.92,1.92,0,0,1,.7.63c.76,1,1.43,2.12,2.74,2.57a1.3,1.3,0,0,1,.43.41.81.81,0,0,0,.73.36,4.11,4.11,0,0,1,1.39.2,1.11,1.11,0,0,1,.42.21c.2.07,0,.61.48.37.32,0,.63,0,.77.35-.12.72-.73.66-1.23.76-.78.17-1.64-.2-2.4.36-.19.14-.53,0-.7-.25s-.09-.78-.64-.73c-.81.08-1.64-.42-2.43.13-.37.25-.82.38-1.22.66.43.14,1.11-.1,1.1.61s-.55.81-1.13.87c-1,.09-2-.26-2.88.31-.68.18-1.25.72-2,.53a.43.43,0,0,0-.6.06.47.47,0,0,0-.07.12.69.69,0,0,1-.71.16c-.26-.14-.44-.38-.8-.38a11.26,11.26,0,0,0-4.75,1c-.55.24-.67.56-.44,1.07.81,1.8,1.57,3.6,3.32,4.77a22.18,22.18,0,0,1,2.36,2.29,3.1,3.1,0,0,0,1.58.85,4.7,4.7,0,0,1,1.55,1.29A34,34,0,0,0,124,158.5a15.69,15.69,0,0,0,5.63,2c.52.11,1,.34,1.53.41a10,10,0,0,0,6.74-1.38,41.63,41.63,0,0,0,7.91-6c1.17-1.16,2.24-2.45,3.42-3.63a4.86,4.86,0,0,1,.6-.52,3.54,3.54,0,0,0,1.38-1,21.41,21.41,0,0,1,2.28-2.19,72.68,72.68,0,0,0,5.06-6.41,27.6,27.6,0,0,0,3-5.18c1.17-2.72,2.44-5.38,3.4-8.18.5-1.47.75-3,1.36-4.45,1-2.37,1.85-4.8,2.91-7.15a.43.43,0,0,1,.5-.11.36.36,0,0,1,.18.3c.11,1.32-.78,2.41-.79,3.7-.8,2.06-1.52,4.16-2.24,6.25a59.16,59.16,0,0,1-2.25,6.26c-1,2-1.55,4.08-2.66,6-1.25,2.15-2.69,4.19-4,6.3-.67,1.1-1.77,1.78-2.37,3-.27.53-1.29.46-1.76,1.17a3.26,3.26,0,0,1,2.17,1.25c.5.71,1.66.73,2.35.73,3,0,5.33,1.7,7.81,3a18.23,18.23,0,0,0,6.18,1.74,22.73,22.73,0,0,1,4.66,1.17,55.57,55.57,0,0,1,9.38,3.86,32.68,32.68,0,0,0,6.79,2.86c1.67.48,3.22,1.23,4.86,1.77a8.77,8.77,0,0,1,3,1.7,5.68,5.68,0,0,0,3.13,1.22c2.93.37,5.62,1.56,8.51,2.08a24.94,24.94,0,0,1,5.21,1.94c1.64.67,3.34,1.2,5,1.86A44,44,0,0,1,230,176a51.2,51.2,0,0,1,5.59,3.89,21.31,21.31,0,0,1,4.8,5,26.85,26.85,0,0,0,2.05,2.36c1.1,1.34,2.06,2.8,3.22,4.1a.67.67,0,0,0,.47.27v13.68a2.67,2.67,0,0,1-1.85.36h-21c-1.19,0-1.31.14-1.32,1.31v6.49a2.3,2.3,0,0,1-.37,1.63H1C.2,215,0,214.82,0,214,.06,210.58,0,207.2,0,203.82Z"/><path class="cls-1" d="M123.34,44.47c0-.42.51-.64.52-1.11a.36.36,0,0,1,.32-.4.35.35,0,0,1,.24.06c.26.15.43.56.68,0,.1-.25.5-.43.33-.76s-.6-.24-.93-.24h-3a1.38,1.38,0,0,1-1.5-.94c-.12-.31-.16-.67-.64-.67s-.59.22-.64.61a.43.43,0,0,1-.43.43h0c-.27,0-.39-.22-.42-.46s-.14-.6-.55-.56a.61.61,0,0,0-.61.64v0c0,.71-.44,1-1,.68-1.09-.68-2.16.13-3.27,0a3.56,3.56,0,0,0-1.68.23,2.06,2.06,0,0,0-1.4,2.13c0,1.24-.08,1.23-1,.56a1.11,1.11,0,0,0-.53-.17c-.22,0-.49.11-.67,0-1.35-.61-2.34.81-3.67.59-.89-.14-1.46,1-1.27,2.25a1.53,1.53,0,0,1-1.07,1.88,1.56,1.56,0,0,1-1.14-.13.87.87,0,0,0-1.22.18l0,0c-.41.45-.89.8-.57,1.56a1.29,1.29,0,0,1-.71,1.68l-.29.08a2.88,2.88,0,0,0-2.32,3.19c0,.22,0,.64-.15.56-1-.48-.92.58-1.33.9a.63.63,0,0,0-.26.86.68.68,0,0,0,.26.27.52.52,0,0,1,.25.7.3.3,0,0,1,0,.08.87.87,0,0,1-.83.48c-1.24-.08-1.78.46-1.5,1.61.22.94.07,1.28-1,1.34-.83,0-1.39,1-1.49,1.68-.2,1.41-1.13,2.53-1.32,4C87.38,69,86.6,69.59,86,70c-.94.59-1.87.09-2-1.12-.1-.81-.42-.48-.78-.38-.39-.56.39-1.09,0-1.64s-.07-1.09-.12-1.63c.32-.61.69-.1,1.12-.06a11.47,11.47,0,0,1-.36-4.73A4.11,4.11,0,0,0,83.2,58c.66-.82,0-1.5-.22-2.23-.15-.52.48-.5.61-.9a1.35,1.35,0,0,1-.85-1.71.5.5,0,0,1,.05-.13c.26-.87.31-1.79.64-2.65a1,1,0,0,0,.09-.33,40.18,40.18,0,0,0-.25-5.27c.32-1-.62-.53-.73-.48a16,16,0,0,1-2.48.5,8.36,8.36,0,0,1-2,.08c-.24,0-.44-.06-.38-.37.51-.48,1.14-.14,1.7-.24,1.9-.35,3.86-.87,4.64-2.78a15.4,15.4,0,0,0,1.39-4.68,4.67,4.67,0,0,1,.89-2.42,5.51,5.51,0,0,0,.77-1.67c.3-.58-.16-1.06-.2-1.6a.92.92,0,0,1,.53-1.18.86.86,0,0,1,.27-.05,4.2,4.2,0,0,0,2.47-1.68c1-1.36,1.12-1.9.31-3.39-.59-1.08-.55-1.22.55-1.84a1.83,1.83,0,0,0,.55-.39c.54-.65,1.07-.67,1.54.06.34.51.73.52,1.11.11s.52-.85,0-1.28c-.35-.28-.8-.45-1-.87a32.12,32.12,0,0,1,3.45-2.71c.24.21,0,.5.14.79.6-.54,1.51-.85,1-1.94.56-.45.58-1.33,1.29-1.66.1,0,.14.13.22.19a2.12,2.12,0,0,1-.23-.18c.78-1.18,1.27-2.58,2.58-3.36.12.49.2,1,.9.46a5.86,5.86,0,0,1,1.55-.7c.76-.3,1.49-.41,2,.57a19.87,19.87,0,0,1,2.21-2.19c1.06-.84-.43-.72-.58-1.14A10.67,10.67,0,0,1,110.14,8c2.23-.48,4.47-.19,6.69-.39a10.41,10.41,0,0,0,2.64-1c.27.53-.16.65-.48.83a5.34,5.34,0,0,1-2.51.63h-4a10.68,10.68,0,0,0,6.3-.39c1.49-.54,2.63-1.54,4-2.17.52-.23,1-.78,1.45,0s-.11,1-.65,1.34c-1.07.55-1.89,1.54-3.12,1.83a.62.62,0,0,0-.5.69c.06.39.43.36.72.42a2.37,2.37,0,0,0,1.74-.35,17.61,17.61,0,0,1,5.51-2.08,5.15,5.15,0,0,1,1.46-.16,38.75,38.75,0,0,0,6.46-.33,3.38,3.38,0,0,0,.45,0c.68-.25,1.71.75,2-.46.2-.74.9-1.25.81-2.09,0-.36.13-.77.53-.74.81.07,1.66-.23,2.43.2a.57.57,0,0,1-.38.51c1.6.37,3.08-.52,4.68-.43a32.52,32.52,0,0,0,4.63,0c.57-.18.18-.71.37-1,.64-.36,1.09.27,1.66.34.87.1,1.62-.37,2.45-.34.13.1.12.37.29.37s.07-.24.09-.37c.61-.83,1.64-.19,2.35-.65.37.8-.63.53-.73.94s1,.32.63,1c-1.35.38-2.74,0-4.09.29h-.11a1.85,1.85,0,0,0-.47,0,1.05,1.05,0,0,1,.43.07,1.87,1.87,0,0,1,.78.61c.12.56.31,1.16-.22,1.59a1.37,1.37,0,0,1-1.69-.1c-.23-.14-.47-.31-.74-.16A2,2,0,0,1,149.8,6c-.91-.64-1.92-.33-2.88-.28a6.32,6.32,0,0,1-2.76-.35A8,8,0,0,0,141,5.14c-.37,0-.54.26-.56.61A2.26,2.26,0,0,1,139.92,7c.65-.32,1-.79,1.49-.65s.67.68.91,1.1a1.64,1.64,0,0,0,1.56.94,6,6,0,0,1,2,.37,2.91,2.91,0,0,0,1.55,0c1-.24,2.15-.1,3.22-.29a1,1,0,0,1,1,.65,1.74,1.74,0,0,1,.22.64c.19,1.24.17,2.53.95,3.61-1,1.22-1.11,1.34.06,2.63a68.87,68.87,0,0,0,5,5.57c.92.83,1.62,1.88,2.58,2.69a1,1,0,0,1,.23,1.39,1.54,1.54,0,0,1-.17.19c-.55-.14-.93-.65-1.53-.69a.53.53,0,0,1-.45-.47c-.11-.85-.42-1.25-1.35-.82-.42.2-.81-.11-1.05-.49a1.32,1.32,0,0,1-.22-1.18c.08-.24.71-.27.31-.67s-.65-.77-1.23-.71c-.23,0-.44.13-.67.14a1.08,1.08,0,0,1-1.21-1.28,4.94,4.94,0,0,0-.58-2.39,1.06,1.06,0,0,0-.62-.64,4.11,4.11,0,0,1-2.81-3.36.76.76,0,0,0-.79-.66,14.91,14.91,0,0,1-3.42-.86c-.75-.27-1.3-.23-1.72.52a1.18,1.18,0,0,1-1.32.69c-.61-.13-.6-.66-.69-1.23-.22,1.1-.6,1.37-1.57,1.27a36.18,36.18,0,0,0-7.43.14c-1.66.18-3.28.78-5,.93a2.57,2.57,0,0,0-2,1.39,1.68,1.68,0,0,1-1.49,1,1.17,1.17,0,0,0-1.16,1c-.19.75-.54,1.36-1.44,1.34-.5,0-.4.32-.4.62,0,1.09.91,1.61,1.44,2.36.18.25.39,0,.59-.09,1.11-.6,1.59-.37,1.78.83,0,.26,0,.61.25.72,1.38.65,2.44,2,4.15,1.91a6.07,6.07,0,0,1,3.2,1c.72.37.74,1,.16,1.6a4.38,4.38,0,0,1-2,1.2,3,3,0,0,0-1,.33,1,1,0,0,0-.63,1.26A1.06,1.06,0,0,0,129,31c.24.3.57.56.41,1s-.52.51-.94.34a.41.41,0,0,0-.22,0c0,.09.15.15.18.24a1.92,1.92,0,0,1-.53,2.17c-.2.16-.46.36-.31.66s.45.29.71.27A14.59,14.59,0,0,1,133,36a.45.45,0,0,0,.23,0c.47-.23,1-.24,1.38-.72a.16.16,0,0,0-.05-.21c-.54-.26-.94.15-1.35.36a1.9,1.9,0,0,1-2,.06,2,2,0,0,0-1-.25c-.62,0-1.36-.15-1.38-.89s.79-.73,1.38-.81a36.87,36.87,0,0,0,6.72.46,3.32,3.32,0,0,0,2.11-.62c.94-.24,1.52.49,2.23.81.53-.38-.06-1.57,1-1.47a1.57,1.57,0,0,1,1.44,1.13c.24.8-.65.65-1,1a1.15,1.15,0,0,0,1-.16c.14-.06.28-.2.42-.16,1.94.5,4.07-.3,5.93.85a1.46,1.46,0,0,0,1.51,0,2.1,2.1,0,0,1,2-.16,1.18,1.18,0,0,0,1.35-.3,1.85,1.85,0,0,1,2.61-.31,1.88,1.88,0,0,1,.25.24c.23.18.26.68.73,0s1.12,0,1.55.47a.78.78,0,0,1,.3.59A2.75,2.75,0,0,1,157.9,37c-2.08.06-4.15-.07-6.23,0,.77.1,1.56-.07,2.33.06.43.07.88.14.83.71s-.48.57-.93.53a17.21,17.21,0,0,1,3.27,1.56c.8.39,1.05,1.33,1.75,1.91.88.75.82.89,1.69-.1,0-.13-.15-.15-.23-.22-.26-.26-1-.22-.72-.8a.85.85,0,0,1,1.14-.38l0,0c1.38.66,2.2-.07,3.18-.94,1.5-1.34,2.75-2.92,4.18-4.32.84-.81,1.26-.81,1.8.22a1.37,1.37,0,0,0,1.89.44,2.23,2.23,0,0,0,.24-.19c.21-.28,0-.51-.12-.72-.36-.45-.85-.76-1.24-1.17a15.18,15.18,0,0,1-2.83-3,5.06,5.06,0,0,0-1.45-2.1,2.26,2.26,0,0,1-.87-1.31,8.12,8.12,0,0,0-2.35-3.84c-.56-.59-.66-1.64-1.23-2.36a5.86,5.86,0,0,0-1.32-1.4c-.19.21,0,.34.07.48.21.4.55.84.17,1.25s-.79,0-1.13-.16a3.25,3.25,0,0,0-1.35-.17c-2.15-.21-3.15-1.79-4-3.43a4.22,4.22,0,0,0-.86-1.15,2.37,2.37,0,0,1-.86-2.77,3.15,3.15,0,0,1,2.37,1.24,4.51,4.51,0,0,1,.39.55c1,1.18,1.62,1.46,3,.87a4.13,4.13,0,0,1,4.05.56c.19.12.35.31.57.35.68.12.88-.11.5-.72-.07-.38.12-.79-.16-1.13a2.24,2.24,0,0,1-.22-.4c-.22-.69-.82-1.2-.88-2,0-.51.43-1.16-.48-1.34a4.77,4.77,0,0,1-.65-.41,1.43,1.43,0,0,0-.53-.17c-.62-.14-1-.56-.76-1.14s.8-.34,1.21-.07a1.31,1.31,0,0,0,1.07.2c1.67.18,1.62,1.63,2,2.74A1.24,1.24,0,0,0,164,13a.86.86,0,0,0,0,.32c0,.15.21,0,.06,0s0-.13,0-.2a.44.44,0,0,1,.19-.37c1.07.5,1.2,1.64,1.71,2.53a19.3,19.3,0,0,0,.28,4.42c.37.71.19,1.66,1,2.17a4.82,4.82,0,0,0,.63.35c.15,0,.3.34.45,0a1,1,0,0,1,.16-.38c.35-.48,1-.83.8-1.57a1.64,1.64,0,0,1,0-.93.57.57,0,0,1,.2-.23,5.46,5.46,0,0,0,1.34-.57c.18-.15.25-.38.42-.54.31,0,.36-.11.19-.36a2.28,2.28,0,0,1-.17-1.12c.07-.57.36-.71.85-.39a3,3,0,0,1,1,1.48c.07.15.06.34.19.47a.82.82,0,0,1,.12-.49c.41-.2.6-.65,1-.82a.46.46,0,0,1,.4.29,14.5,14.5,0,0,1,.61,4.86,2.34,2.34,0,0,1-.27,1.29c-.9,0-.77-1-1.33-1.4a2.19,2.19,0,0,0-.08,2.88c.7.84.5,1.47-.54,1.71h-.12a1,1,0,0,0-1,.89c-.05.18.1.26.27.27.52,0,1,0,1.18-.65.09-.29.27-.55.65-.5.33.65,0,1.24-.09,1.95,1-1.38,1.44-3,2.44-4.27.19-.24.17-.7.67-.62.56.73,1.37,1.35,1.17,2.44-.41.53-1.28.72-1.13,1.67a.91.91,0,0,1-.58.75c-.09,0-.14-.09-.18-.07s0,.11,0,.16a2.15,2.15,0,0,1-.73,1.24c.11.14.12-.07.19-.07,1.69-.64,1.75-2.33,2.36-3.66,1.06.24.51.91.4,1.48.16.06.14-.11.16-.17.28-1.44.09-2.91.61-4.37.37-1-.6-2-1.83-2.25a1.5,1.5,0,0,1-1.06-1.1c-.43-1.79-1.41-3.43-1.45-5.32a.46.46,0,0,1,.47-.43,1.14,1.14,0,0,1,1,.35c-.29-.54-1.36-.68-.92-1.62.52-.51,1-.67,1.46.08.34.52,1,.66,1.42,1.24a4.72,4.72,0,0,1,.49,3.76c-.12.72.08,1,.74,1.06a2.34,2.34,0,0,1,.45.07c.34.08.69.18.82.54s-.28.63-.55.86h-.11l-.09-.06c.16,1.25,0,2.51.11,3.85.18-1.34-.16-2.61.16-3.85,1.09.1,1.68.91,1.16,1.82-.78,1.38-.17,2.88-.59,4.27.84-1.59.64-3.33.76-5,0-.37-.12-.77.23-1.06a11.38,11.38,0,0,1-.1,5.47c-.3,1,0,2.06-.43,3.07-.16.37-.6.72-.41,1.23,0,.21-.69.37,0,.63.21.09.13.41.28.58a6.81,6.81,0,0,0,4.27-1.58,12.42,12.42,0,0,0,1-.91c.3.64-.16,1.13-.32,1.67-.09.27-.52.53,0,.83a35,35,0,0,0-6.05,5.41c-.21.09-.29,0-.35-.2-.08-.42.29-.67.37-1.08-.16.32-.35.58-.47.87a3.53,3.53,0,0,0,.26,1.1c.45-.12,1.15-.65.72.51-.08.2-.15.56.18.7a16.85,16.85,0,0,0,3,1.18,24.31,24.31,0,0,1,7.44,2.32c.76.42,1.09,1.28,1.84,1.7-.7.64-1.39,1.23-2.18.1-.14-.2-.45-.27-.69-.37a.36.36,0,0,0-.42.06c-.16.17-.06.33,0,.5a1.53,1.53,0,0,0,1.93,1,1.36,1.36,0,0,0,.3-.13c.32-.11.6-.5,1-.22.6,1.32,0,2.4-.64,3.49-.11,0-.21-.1-.32-.13a.33.33,0,0,0-.36,0c.17.24.52,0,.67.24-.27.55-.8,1-.94,1.6a.9.9,0,0,1-.29.16,1.49,1.49,0,0,1-.94-.26c-.38-1.07.37-1.87.74-2.72s.54-1.14-.59-1.08a3.21,3.21,0,0,1-2.07-1.08,15.18,15.18,0,0,0-3.55-1.9c.72,1.35,2.15,2,2.66,3.44-.08.21-.39.23-.42.49a3,3,0,0,0,1.11.1c.23.06.54.28.46.41-.57.87.79,1.51.23,2.34a.28.28,0,0,1-.38.09h0c-.54-.39-1-.88-1.77-.31a1,1,0,0,1-1.38-.31,1.15,1.15,0,0,1-.12-.25c-.3-.86-1.12-1.46-1.19-2.43a.29.29,0,0,0-.27-.31h0a.62.62,0,0,0-.62.43c-.51,1.3-1.08,2.6-.59,4.06a2.48,2.48,0,0,1,0,1.78.94.94,0,0,1-.95.68c-.5,0-.59-.46-.6-.84a42.77,42.77,0,0,1,.28-8.16,2.2,2.2,0,0,1,.5-1c.72-.89.7-1.08-.21-1.78a5.2,5.2,0,0,0-1-.62c-.36.21-.14,1.22-.81.89s-1.44-.91-1.41-1.77c.07-1.81-.65-3.52-.24-5.4a2.28,2.28,0,0,0-1.91-2.6,2.14,2.14,0,0,0-1.09.1c-.44.11-.9,0-1.28.14a2,2,0,0,1,1.74,2.22,2,2,0,0,1-.14.54,3.49,3.49,0,0,0-.25,2.42.74.74,0,0,1,0,.55c-.84.68-1.32,1.83-2.4,2.12a13,13,0,0,1-2.15.63c-.56,0-.45.42-.23.61,1.83,1.62,1.32,3.79,1.35,5.81a15.27,15.27,0,0,0,1,3.92c.09.3.34.63.79.43.28,0,.37.2.45.41a1.16,1.16,0,0,1,0,.82c-.92.69-.11,1.28.23,1.69a1.57,1.57,0,0,1,.37,1.72,5.86,5.86,0,0,0,.36,3.43c.43.08.5-.31.73-.47a1.18,1.18,0,0,1,1.64.22.86.86,0,0,1,.19,1.2,1.14,1.14,0,0,1-.19.19c-.39.4-.59,1-1.23,1.13-.33.07-.37.31-.31.61a9.3,9.3,0,0,0,.32,1.44,1.17,1.17,0,0,1-.36,1.24c-.33.4-.63.63-1.06,0-.16-.22-.31.37-.61.33a.83.83,0,0,1-.38-.66c-.56-2.55-1.31-5-1.85-7.59-.28-1.33-.84-2.59-1.15-3.91.87-.74.94-1.39.08-2.37a10.76,10.76,0,0,1-1.21-1.57c-.5.28,0,.77-.35,1-.54.09-.84-.29-1.09-.63a8.5,8.5,0,0,1-1.21-1.66,1.22,1.22,0,0,0,.09-1.74.76.76,0,0,0-.09-.09c-.12-.13-.18.14-.09,0a1.38,1.38,0,0,1,.18,1.73c-.11.2-.24.1-.37,0s-.17-.32-.36-.37c0,.15.11.32,0,.46-.56.22,0,.87-.46,1.13a5.37,5.37,0,0,1-2.33-2.29c.44-.41.85,0,1.27,0-.49-1-1.06-1.15-1.7-.46a.72.72,0,0,1-.74-.16c-.92-1.21-2.26-1.45-3.62-1.67a3.66,3.66,0,0,1-2.14-1.2A3.06,3.06,0,0,0,154.42,42c-.29,0-.62,0-.73-.41.5-1.13-.64-1.05-1.07-1.18a5.84,5.84,0,0,1-1.69-.43c-.37-.25-.79.09-1.16.27a11.42,11.42,0,0,0,3.33.58c.48,0,1.12.14.41.83-1.49.11-3-.52-4.38-.43-3.7.22-7.37-.27-11.06-.33a36.47,36.47,0,0,0-12,2.31,8.22,8.22,0,0,0-1.19.67C124.36,44.33,123.93,44.72,123.34,44.47Z"/><path class="cls-1" d="M173.74,51.28l-.08,1a8.25,8.25,0,0,1-2-5.61c.08-1.38-.26-2.71-.25-4.08a.86.86,0,0,0-.66-.84c-.79-.23-.63-1-.81-1.49-.11-.31.15-.36.41-.32,1.26.21,2.71-.72,3.63-1.33a2,2,0,0,0,.9-2.62,1.45,1.45,0,0,1,.34-.94c.63-.94,0-1.76-.26-2.58-.19-.54-.64-.13-1-.09s-.44.27-.61,0a.69.69,0,0,1,0-.53c.1-.35.37-.27.65-.23a3.09,3.09,0,0,0,1.77-.27,1.44,1.44,0,0,1,2,.6l0,.08c.63,1.11,1.25,2.25.71,3.58a3,3,0,0,0,.09,2,3.5,3.5,0,0,1,.2,2c-.22.87.86,1.1,1.18,1.75.11.23.37-.1.36-.34a10.57,10.57,0,0,0-.14-1.13,12.11,12.11,0,0,1,2.55,1.85c.27.32.55.74.11,1-1.29.64-1.25,1.89-1.32,3-.14,2.18,0,4.38,0,6.57,0,.25,0,.58.3.64a.71.71,0,0,0,.72-.47,1.52,1.52,0,0,0,.07-1.33c-.87-1.6,0-3,.32-4.51.11-.57.67-.8,1.21-.9.36-.07.67.13.49.51-.35.7.25,1.06.5,1.5a3.72,3.72,0,0,1,.54,1c.18.79.89.7,1.36.42.85-.49,1.48-.33,1.79.63a1.78,1.78,0,0,1-1.05,1.56c.53.22,1.61-.53,2.16.5a3.29,3.29,0,0,0,2.16.83,7.87,7.87,0,0,0,4.74-1.11,4.62,4.62,0,0,1,.62-.23c.42-.06.89-.37,1.16.24a6.73,6.73,0,0,1-5.6,2.79c-1.25,0-2.71.38-4-.43-.52-.33-.81.29-.94.78-.44-.16-.59-.62-.92-.9-.66-.18-1.08.29-1.63.55a3.12,3.12,0,0,1,1.56,1.6c.24.61.45,1.45,1.5,1.36.47,0,.26.52.33.82.17.75-.58.66-.88,1s-.65,0-.84-.27c-.42-.64-.83-1.28-1.19-2-1.05-1.93-1.92-2-3.39-.32-.66.66-.06,1.4,0,2.08a11.12,11.12,0,0,0,.28,2.29c.85,1.63,1.43,2.14,2.32,1.7,1.23-.59,2.63-.6,3.82-1.27.4-.12.45.2.56.45a1,1,0,0,0,0,.48.35.35,0,0,1-.09.23c-1.73,0-3.15,1.09-4.82,1.42-1.09.21-1.82,1.59-1.83,2.76,0,1.84-.89,3.39-1.34,5.08-.32,1.22-.57,2.47-1,3.67A13.7,13.7,0,0,1,178,79.9a13.74,13.74,0,0,0-3.36,6.53,5.45,5.45,0,0,0,0,3.1,3.68,3.68,0,0,0,.41,1.15c.4.53-.2,1.16-.39,1.65-.76,2-1.06,4.07-1.83,6-.19.47.16,1-.2,1.51-.58.24-.64-.21-.71-.56a5.16,5.16,0,0,1,0-1.36,36.58,36.58,0,0,0,.88-9.12,7.6,7.6,0,0,1,.6-2.87,9.45,9.45,0,0,0,.48-2.68,17.89,17.89,0,0,1,.63-4.25,10.6,10.6,0,0,0,.1-4.38c-.31-1.82.08-3.62.05-5.44a7.67,7.67,0,0,0-.12-1.79,3.85,3.85,0,0,1,0-2.23c0-.34-.16-.82.45-.86s.27.55.46.8c1.43-.93.34-2.07.27-3.1,0-.26-.39-.71.12-.63,1.16.18,1.21-1,1.84-1.38.38-.25,0-.7-.34-.89s-.87-.56-1.27.06c-.21.32-.25.88-.87.66s-.19-.71-.32-1a3.48,3.48,0,0,1-.28-2.75c.67-1.25-.35-1.89-.78-2.45-.74-1-.25-1,.45-1.18a2.54,2.54,0,0,0-.23-1.93c-.28-.37-.09-.93-.52-1.23-.07,0,0-.17-.14-.19a1,1,0,0,0,.21.38A2.52,2.52,0,0,1,173.74,51.28Z"/><path class="cls-1" d="M152.75,13.48c-.17-.33-.28-.72-.66-.9a.75.75,0,0,1-.41-1v0a1.8,1.8,0,0,0,0-1.21c-.41-1.83-.52-1.9-2.34-1.29a1,1,0,0,1-1-.08c-.19-.14-.43-.33-.61-.12-.78.91-1.59.26-2.38.08A3,3,0,0,0,144,8.7c-1.22.23-1.84-.53-2.19-1.48s-.72-.89-1.23-.23c-.31.4-.64.61-1,.22s.18-.5.36-.69a.68.68,0,0,0,.22-.73c-.36-1,.3-1,.94-1,1.3.18,2.6-.22,3.91.56.91.54,2.18-.11,3.3-.08a2.26,2.26,0,0,1,1.58.38c.62.49,1.34,1.14,2.16.2.18-.21.44-.08.57.13a1.27,1.27,0,0,0,1.48.57c.82-.23.12-.93.37-1.35l.09-.21c.75-.38,1.39.07,2.06.27a12.13,12.13,0,0,0,3.92.57c1.73-.07,3.47,0,5.2,0,.15,0,0-.28,0-.13s0,0-.06,0A10.57,10.57,0,0,1,162.8,5a10.86,10.86,0,0,0-3.57-.63c-.39,0-.86,0-1-.46a.43.43,0,0,0-.43-.3c-.46-.06-.86-.29-.85-.76s.56-.32.89-.39A.46.46,0,0,0,158.2,2c.25-.38.62-.18.93-.19h5a9.23,9.23,0,0,1,5.14,1.69A31.59,31.59,0,0,1,175.83,9a32.72,32.72,0,0,1,4.07,5.62,20.19,20.19,0,0,1,2.23,5.41c0,2.34.21,4.7-.71,7.05-.35-.68-1.2-1.08-.47-2.05.24-.31,0-1,.05-1.45a2.64,2.64,0,0,1,.51-1.94c.58-.67-.14-1.36-1-1.57h0c.68-.8.32-1.09-.55-1.17-1.45-.14-1.14-.16-1.18-1.56,0-.83.73-1.77,0-2.51s-.59-1.62-1.69-1.93c-.44-.12-.72-.86-1.39-.36,0,.07,0,.17-.11.2-1.4.54-1.12,1.74-1.14,2.83a1.58,1.58,0,0,1-.26,1.19c.33.84-.26.78-.78.79-.77-.34-.26-1.19-.67-1.67a13.88,13.88,0,0,0-1.25-3.71,7.13,7.13,0,0,0-4.9-3.88c-1.15-.3-2.29-.77-3.53-.28,2-.11,3.55,1.1,5.22,1.9.43.2,1,.41.59,1.09a9.4,9.4,0,0,0-1,.71.86.86,0,0,1-.69-.31,9,9,0,0,0-1-.64c-.13-.08-.25-.06-.11,0v.1c0,.29,0,.56-.34.64-.54,0-.78-.54-1.18-.78-.75-.46-1.4-1.26-2.45-.75-.26.6-.53.4-.91.08s-.53-.6-1-.41c-.19.08-.18.3-.12.49.15.5.46.62.94.47.09,0,.24.15.36.23-.35.68.41,1,.47,1.6a2.2,2.2,0,0,0,.41.94,4.31,4.31,0,0,1,.88,1.9,2.26,2.26,0,0,0,.19.49,1.76,1.76,0,0,1,.32.39c.15.34.69.16.79.6-.66.8-1.26.89-2.15.16a3.66,3.66,0,0,0-4-.47,2.25,2.25,0,0,1-3-.91C154.74,14.45,153.68,14.09,152.75,13.48Z"/><path class="cls-1" d="M142.11,3.71c-.74,0-1.47.4-2.22,0-.19-.09-.62.08-.51.26.75,1.2-1.22,1.66-.72,2.83.12.27-.46.63-.86.49-1.55-.54-3.09,0-4.6.12-1.23.09-2.47.08-3.69.1a14.71,14.71,0,0,0-5.7,1.5c-1.07.45-2,1.4-3.31,1.07-.45-.11-1.06-.06-1.09-.58a1.18,1.18,0,0,1,1-1.23,3.69,3.69,0,0,0,2.27-1.36c.29-.35.71-.21,1-.43s.63-.49.37-.92-.67-.23-.91.07c-.82,1-2.46.87-3,2.21-1-.32-1.76.32-2.59.64-1.79.68-3.55.06-5.32,0-.26,0-.6,0-.6-.34s.34-.33.6-.33h4.55a3,3,0,0,0,2.75-1.14c1.33-.67,2.51-1.6,3.92-2.16a22.62,22.62,0,0,1,3.87-1.06c1.7-.38,3.39-.81,5-1.32,1.21-.37,2.42-.73,3.66-1a26.51,26.51,0,0,0,3-.84,8.16,8.16,0,0,1,4.33,0c1.42.24,2.79.65,4.19.89a14,14,0,0,1,3.82,1.59c.12.38.81.74.06,1.16a41.66,41.66,0,0,1-4.18-.1,19.5,19.5,0,0,0-3.74.17A1.53,1.53,0,0,1,142.11,3.71Z"/><path class="cls-1" d="M93.23,20.54c.49,0,.78.44,1.19.62.73.31.54.82.35,1.4-.25.74-.88.77-1.46.84-.37,0-.2-.42-.34-.62-.31-.48-.66-1-1.08-.09-.21.47-.67.44-1,.59s-.74.48-.39.93c.89,1.14,1.29,2.33.37,3.61a4.56,4.56,0,0,1-3.1,2.28c-.7.08-.64.49-.63.95a1.06,1.06,0,0,1-.42.92c-.39.4-.87.73-1,1.33-.29.33-.81-.13-1.07.31,0,.35-.08.55-.44.34-.19-.1-.36-.28-.09-.5,1.41-1.17.7-3,1.28-4.41a12.71,12.71,0,0,1,1.93-3.5A25.89,25.89,0,0,1,93.23,20.54Z"/><path class="cls-1" d="M107.79,8.67h.34c.4,0,.9-.08,1,.47s-.31.82-.64,1c-1.06.48-1.56,1.48-2.29,2.27-.93-1.1-1.81-1.13-3.44-.11l-.09.07c-.33.38-.8.63-1.2.36s.33-.65.2-1.05a5.84,5.84,0,0,1,3.28-2C105.93,9.33,106.86,9,107.79,8.67Z"/><path class="cls-2" d="M172.12,97.81c.24.67-.42,1.53.45,2.06a7.39,7.39,0,0,0-.19,3,29.12,29.12,0,0,1-.7,6.37c-.54,2.34-1.29,4.62-1.67,7a14.72,14.72,0,0,1-.83,2.36,3.9,3.9,0,0,1,.49-2.37c.28-.51.1-1,.18-1.55q.35-.92.6-1.86c0-.35-.24-.14-.09-.19s0,0,0,.08a7.8,7.8,0,0,1-.54,2h-.45a2.12,2.12,0,0,1,.12-1.76c.88-2,.82-4.2,1.38-6.28.68-2.54.33-5.18.68-7.75C171.63,98.48,171.5,98,172.12,97.81Z"/><path class="cls-1" d="M83.27,44.71c.66.41.54,1.07.48,1.67a6.11,6.11,0,0,0,.09,2.13c.34,1.38-.37,2.64-.64,3.94a5.33,5.33,0,0,0-.2,1.44.68.68,0,0,0,.46.59c.28.12.77-.45.82.14s-.52.56-.86.78l-.45.3c-.62.16-.65-.27-.69-.68-.57-.72-.31-1.51-.18-2.28a10.91,10.91,0,0,0,.62-2.87C82.68,48.12,83.2,46.44,83.27,44.71Z"/><path class="cls-1" d="M83.2,58a1.88,1.88,0,0,1,1,1.85,14.27,14.27,0,0,0,.37,5.48,3,3,0,0,1-.13.55c-.41-.31-.61-.83-1.13-.81-.37-.29-.14-.69-.19-1-.09-.54.14-1-.52-1.54-.42-.31-.36-1.24.15-1.82C82.5,59.65,83.23,58.86,83.2,58Z"/><path class="cls-1" d="M186.36,31.06c-.61.15-.61-.1-.4-.56.27-.64.51-1.29.77-1.94a19.88,19.88,0,0,1,1.82-1.85c.28-.23.75-.72,1.21-.26s-.09.86-.27,1.15A14,14,0,0,1,186.36,31.06Z"/><path class="cls-1" d="M193.32,44.48a10.07,10.07,0,0,1-1.19.58,2.36,2.36,0,0,1-2.61-1.4.42.42,0,0,1,.21-.56h0c.22-.11.4-.47.68-.23s1,.38,1,.55c.43,1.35,1,.26,1.54.16h.34a.56.56,0,0,1,.12.79A.52.52,0,0,1,193.32,44.48Z"/><path class="cls-3" d="M188.29,24.89c-.18-.08-.26-.23-.57-.12a10.43,10.43,0,0,0-3.44,1.53c-.39,0-.44-.15-.28-.46s.17-.6.58-.55c.27-.31.79-.23,1-.63a4.7,4.7,0,0,1,2.09-1.19c.93-.38,1.54.22,1.82,1.14C189.23,25.29,188.72,25,188.29,24.89Z"/><path class="cls-1" d="M97.84,16.68c.66.07.72.43.41.93a3,3,0,0,1-1.11,1.09c-.23.12-.43.57-.76.23s.13-.52.22-.77a2,2,0,0,0,.08-.33A4.1,4.1,0,0,1,97.84,16.68Z"/><path class="cls-1" d="M192.67,48.13c-.38-.13-.62.74-1,.15-.18-.26-.22-.63.13-.76s.83-.14.92.45v.08Z"/><path class="cls-1" d="M155.87,2.73a.5.5,0,0,1,.25.67.66.66,0,0,1-.12.17.43.43,0,0,1-.41.06c-.38-.24,0-.6-.1-.9Z"/><path class="cls-4" d="M172.12,97.81a.08.08,0,0,0-.08.08c.11,1.75-.56,3.43-.47,5.19a27.86,27.86,0,0,1-.7,5.45c-.33,2.11-1,4.12-1.47,6.16a30.38,30.38,0,0,1-1.79,5.14c-1.24,2.21-1.62,4.68-2.49,7-.79,2.12-1.81,4.14-2.55,6.27a40.33,40.33,0,0,1-4.2,7.52c-.5.81-1.22,1.59-1.83,2.38-.91,1.17-2,2.16-2.87,3.39a5.45,5.45,0,0,0-2.43,2,3.17,3.17,0,0,1-1.2.94,39,39,0,0,0-2.75,2.85c-1,1.24-2.28,2.07-3.3,3.23-1.41,1.6-3.42,2.41-5.05,3.74a11.38,11.38,0,0,1-2.71,1.39c-2,.84-3.95.58-6,.27-1.54-.23-2.93-.84-4.41-1.2A7.21,7.21,0,0,1,123,158a49.72,49.72,0,0,1-5.3-4.85,5.22,5.22,0,0,1-1.37-1.44,41.08,41.08,0,0,1-1.43-5.44v-.12c-.42-1.55-.43-1.62,1.22-2,2-.45,3.9-1.43,6-1.73.69-.1,1.47.17,2-.45a56.14,56.14,0,0,1,7.35-1.65,2.42,2.42,0,0,1,1.22.14c-.77-.19-1.25-1-2.16-.89-.17-.06-.23-.21-.32-.34h-.35c-.28-.58-.84-.23-1.25-.36a1.33,1.33,0,0,1-.33-.49c-.59-.36-1.28-.55-1.85-.95-.86-.44-1.23-1.45-2.14-1.85l-.49-.62c0-.23.07-.36.29-.35a8.32,8.32,0,0,1,2.44.1c2.08.15,4,1.45,6.15,1,1.73-.39,3.56-.31,5.24-1,.35-.06.78-.36,1,.26h0c-.41.39-1.17.7-1,1.33s1,.37,1.58.42a3,3,0,0,0,1.43-.2,1.59,1.59,0,0,0,.24-.2,11.88,11.88,0,0,0,3-2.32,12.5,12.5,0,0,1,4.63-3.24c1.11-.35,1.72-1.66,3.07-1.65.24,0,.3-.5,0-.62a4.75,4.75,0,0,0-3.37-.39c-1.82.7-3.4.2-5-.47a41,41,0,0,0-5.09-1.56,36.17,36.17,0,0,0-5.14-1,34,34,0,0,1-6-1.32c-1.55-.52-3.18-.47-4.69-1.06a.86.86,0,0,0-.45,0c-2.58.1-5.06-.7-7.62-.87a31.94,31.94,0,0,1-3.77-.41,6.9,6.9,0,0,1,3-.65c2.09.19,4.18-.21,6.29.32a4.72,4.72,0,0,0,3.41-.56,9.64,9.64,0,0,1,3.15-.53c2.37.4,4.74,1.18,7.1,0,.83-.37,1.29-1.14,2-1.71s-.07-.65-.28-.86-.68.07-1-.32a22,22,0,0,1,3-.57c3.22-.43,6.38-1.14,8.64-3.8a.58.58,0,0,1,.6-.21,1,1,0,0,0-.61-.2c-1.52.14-3.06-.13-4.58.15a5.67,5.67,0,0,1-3.84.49,10.07,10.07,0,0,0,2.52-1.36c.25-.17.46-.25.38-.56s-.36-.22-.57-.23a14.38,14.38,0,0,1-3.77-1,5.68,5.68,0,0,1-3.57-4.21,11.23,11.23,0,0,1,0-6.19,12.92,12.92,0,0,0,.54-5.82,43.08,43.08,0,0,1-.7-5.17c-.08-2.16.41-4.27.49-6.43a30.7,30.7,0,0,0,.28-3.83c-.12-1.23-1.13-1.94-1.78-2.85a17,17,0,0,0-2.72-2.71q-2-1-3.89-2.18A10.33,10.33,0,0,0,120,68.64a11.35,11.35,0,0,0-2.33-.12c-1-.11-2-.08-2.69-1.06a17.3,17.3,0,0,0-4.36-1.08c-.23-.93.64-.59,1-.86a8.4,8.4,0,0,1-1-.07,2.08,2.08,0,0,1-.93-.39c-.8-1-.78-1.26.23-2.13h0a2.06,2.06,0,0,1,1.4-1,3.58,3.58,0,0,0,1.34-1,3.08,3.08,0,0,1,.66-.64c.43-.25.45-.76.71-1.11.46-.62.41-1.48.94-2.07h0c.24-.44,0-1,.19-1.4v-.23c-.34-1.07.43-1.74.91-2.51.42-1.23,1.39-2.24,1.36-3.68,0-.67.86-1,1.16-1.56a10.76,10.76,0,0,1,1.35-1.18,3.1,3.1,0,0,1,1.17-.86,4.56,4.56,0,0,1,1.65-.89l.62-.27c2.23-1.55,4.88-2.07,7.39-2.86,1-.31,2.21-.34,3.25-.57,2.26-.5,4.5-.15,6.74-.3a7.33,7.33,0,0,1,3.66.69c.53.24.71-.3,1.12-.32a36.52,36.52,0,0,1,8.15.65h0c.58.39,1.26.14,1.92.35,1.08.35,1.37,1.54,2.45,1.83.61.16,1.21.22,1.79.36a4,4,0,0,1,2.56,1.36c.28.42.68.35.87.66a.52.52,0,0,1,.45.45c.63.89,1.69,1.35,2.29,2.27a4.62,4.62,0,0,1,2.11,2.45c.06.18.11.37.36.32.42-.71-.38-1-.55-1.46a4.6,4.6,0,0,0-.52-.56,2.77,2.77,0,0,1-.88-1.52c.06-.24-.07-.61.38-.59l.25.2h0c1.08.44,1.23,1.8,2.26,2.28A4.06,4.06,0,0,1,171,53a26.56,26.56,0,0,1,1.8,6.18q.53,2.38,1.29,4.73c.12.45,0,1,.34,1.37.15,1.34.32,2.68.48,4,.23,1.78-.44,3.46,0,5.31a13,13,0,0,1-.54,6.54,3.34,3.34,0,0,0-.11,1,17.93,17.93,0,0,1-1.08,5.36,2.87,2.87,0,0,0-.07.78c0,2.57.16,5.15-.75,7.64C172.16,96.44,172.56,97.19,172.12,97.81Z"/><path class="cls-4" d="M154.38,149.61a32,32,0,0,0,.17,5.36,13.53,13.53,0,0,1-.19,5.7c-.37,1.35,0,2.88-.1,4.31a33.79,33.79,0,0,1-1,5.62c-.83,3.35-2.75,6.13-4.57,8.92-.93,1.43-2.12,2.75-3.18,4.12-2.1,2.7-4.7,4.89-7,7.33a15.88,15.88,0,0,1-5,3.28,23.33,23.33,0,0,0-2.37,1.59c-.42.25-1,0-1.5.24a12.9,12.9,0,0,0-1.95,1.33,10.81,10.81,0,0,1-1.64.8c-.09,0-.22,0-.28.11-1.26,1.2-2.89,1.88-4.21,3s-3.15,1.88-4.62,3a5.79,5.79,0,0,1-3.78,1.08,6,6,0,0,0,6.13.17c1.34-.88,2.75-1.68,4.14-2.49a10.06,10.06,0,0,1,2.4-1.33c.32-.08.7-.31.75.3a5.69,5.69,0,0,1-2.38,1.59,53.29,53.29,0,0,1-5.22,3,8.17,8.17,0,0,1-3.87,1,27.11,27.11,0,0,1-4.81-.95c-1.1-.34-2.27-.5-3.39-.87a14.78,14.78,0,0,1-4.32-2.32,97.62,97.62,0,0,1-7.69-7.25c-.8-.76-1.16-1.84-2.07-2.48-.15-.36-.41-.74.23-.89,2.69,2.79,6,4.88,8.62,7.76a5.34,5.34,0,0,0,2.24,1.42,1.14,1.14,0,0,1,.23.15,3.45,3.45,0,0,0,.57.41,6.44,6.44,0,0,0,.74.25c.84.2,1.15-.06,1.13-.94,0-.36-.2-.73.11-1.06a9.92,9.92,0,0,0,.74-6.54,47.71,47.71,0,0,0-1.92-6.41,43.88,43.88,0,0,1-.77-4.68c-.18-.9,1.4-2.07,2.61-2.13a7.46,7.46,0,0,1,4.13,1.36c.79,1.72,2.48,1.92,4,2.32,1.74.47,3.58.41,5.29,1.07.57.22.87-.14,1-.63a38.75,38.75,0,0,0,1.32-5.81,3,3,0,0,1,1.05-2.16,15.26,15.26,0,0,0,3.29-4c3.05-3.18,6.19-6.23,10.11-8.35a17.17,17.17,0,0,0,2.13-1.76c2.42-2,5.06-3.76,7-6.22,1.76-2.2,3.87-4.09,5.39-6.47a7,7,0,0,1,1.12-1.12C153.64,149.26,154.13,149,154.38,149.61Z"/><path class="cls-4" d="M122.64,89.12a2.5,2.5,0,0,1-2,1.69c-.43.08-.17.59-.3.89-1.08,2.49-1.47,5.19-2.46,7.71l-.52,1.36a11.4,11.4,0,0,1-3,3.38,28.69,28.69,0,0,1-6.45,2.94,5,5,0,0,1-3.23-.16,11.89,11.89,0,0,1-4.47-2.84,1.3,1.3,0,0,1-.16-.31,17.12,17.12,0,0,0-1.74-4.61A14.24,14.24,0,0,1,98,97.61a9.49,9.49,0,0,1,0-1.92,6.19,6.19,0,0,0-1.84-5.12,2.8,2.8,0,0,0-1-.64,1.62,1.62,0,0,1-.74-.7c-.11-.24.1-.41.15-.61a1.23,1.23,0,0,0,0-.76c-.07-.38,0-.65.51-.61.67,0,1.12-.79,1.87-.5a16.17,16.17,0,0,1,1.48.69,2,2,0,0,1,.58.85,1.8,1.8,0,0,0,1.51,1.62c1.55.28,3,.81,4.62,1,1.84.34,3.72.34,5.57.56a7.87,7.87,0,0,0,2.63-.42c1.07-.21,2.13-.35,3.2-.49,2-.6,4.14-.85,5.95-2,.12-.12.27-.19.37,0S122.78,88.92,122.64,89.12Z"/><path class="cls-5" d="M114.93,67.46a8.29,8.29,0,0,0,4.44,1c.2,0,.46-.09.58.2h-2.62c-.29,0-.55.06-.57.41s.35.21.54.3c1.46.71,2.94,1.19,4.11,2.59,1.5,1.79,2.16,4,3.63,5.75.16.19.3.44.69.42-.12-1.21-1.28-1.85-1.54-3A5,5,0,0,1,126,77.07c.66,1.07,1.61,2,1.77,3.37a13.36,13.36,0,0,1,.46,2.51,7.42,7.42,0,0,1-1.11,2.66c-.12.21-.32.4-.55.34-1.69-.47-3.35.36-5,.11-.21,0-.48-.15-.43-.24.54-1.16-.93-1.29-1.12-2.19a1.9,1.9,0,0,0,1.84-.58c1-1.14,1-1.22-.1-2.23-.35-.34-.66-.7-.28-1.17s.46-1,.07-1.18a1.26,1.26,0,0,0-1.54,0c-.52.53-1.21.93-1.46,1.7-.11.34-.31.7-.68.65-.57-.08-.19-.54-.21-.83a2.18,2.18,0,0,1,.65-1.83A1.61,1.61,0,0,1,116,77.1a11.32,11.32,0,0,0-2.12-3,25,25,0,0,1-1.54-2.44c-.35-.47.15-.85.61-1a11.72,11.72,0,0,1,1.55-.28c.32,0,.6-.09.52-.55s-.25-.46-.63-.38a9.4,9.4,0,0,1-1.3,0L114.19,68c.56,0-.14.87.52.72s.06-.63.2-.94C115,67.79,114.92,67.61,114.93,67.46Z"/><path class="cls-4" d="M133.77,132.27a17.89,17.89,0,0,1-5.59-.71,6.93,6.93,0,0,0-1.93,0,6.21,6.21,0,0,1-3.89-1.3,11.4,11.4,0,0,0-3.31-1.41,7.71,7.71,0,0,0-3.3-.8.77.77,0,0,1-.72-.76c0-.55.5-.31.79-.34a10.71,10.71,0,0,1,5.49,1,5.16,5.16,0,0,0,2.47.09c.84-.08,1.49.39,2.26.51a1.24,1.24,0,0,1,.8.75c.53,1.37.92,1.29,1.42,0,.09-.25.47-.68.81-.39.62.52,1.3.31,2,.3a23.77,23.77,0,0,1,6.72.77,1,1,0,0,0,.77-.12c1.1-.69,2.16,0,3.21.2.49.12.15,1.25-.34,1.84-.92,1.07-1.69.92-2.43-.11-.23-.33-.65-.16-.87-.47a.38.38,0,0,0-.54-.12l-.06.05c-.25.23-.09.49,0,.72.19.57-.2.82-.55.58-.81-.53-1.58-.19-2.36-.08A.88.88,0,0,1,133.77,132.27Z"/><path class="cls-4" d="M99.46,122.42c1.18,1.52,1.84,3.37,3.27,4.72s2.48,2.79,2.34,4.93a2.83,2.83,0,0,1-1.57,2.73c-.72.39-1.24-.15-1.65-.32A5.88,5.88,0,0,1,98,130.35c-.37-1.71-.79-3.58-.12-5.21a8.68,8.68,0,0,1,1.54-2.69A.05.05,0,0,1,99.46,122.42Z"/><path class="cls-6" d="M102.1,151c-.64.48-1-.12-1.39-.24s-.68-.69-1.21-.35-.11.77-.07,1.14a23.37,23.37,0,0,0,.56,4.16c.66,2.35,2.64,3.88,4,5.82.16.24.46.38.51.71s.59.71,0,1-.84-.21-1-.68c-.25-.87-1.07-1.22-1.59-1.82-1.26-1.48-3-2.68-3.45-4.76A5.67,5.67,0,0,0,97,153c-.58-.57-1.13-1.18-.44-2.06.23-.29.07-.58-.16-.81-.41-.39-.81-.81-1.25-1.16a3.51,3.51,0,0,1-.63-3.6c.3-.42.7-.38,1.1-.11a8.17,8.17,0,0,1,2.46,2.11C99.08,148.78,100.72,149.68,102.1,151Z"/><path class="cls-7" d="M127.44,173.26c-.32,1.76-1.63,2.78-2.83,3.92a4.4,4.4,0,0,0-1.18,2.28c-.28,1,0,2.17-.67,3.12s-.36,2-.73,2.92-.74.92-1.36.64c-1.6-.71-3.36-.61-5-1a9,9,0,0,1-3.7-1.43c-.29-.25-.31-.81-.46-1.23,1.18,1,2.7,1.09,4.13,1.37.82.16,1.68-.12,2.5.36.37.22,1,.07.62-.65a.9.9,0,0,1,.34-1.13,31.08,31.08,0,0,0,2.25-2.34.72.72,0,0,0,.16-.81c-.15-.32.16-.49.25-.73-.11-.59.25-.83.68-1.14a41.9,41.9,0,0,0,4.11-3.28A9.08,9.08,0,0,1,127.44,173.26Z"/><path class="cls-8" d="M116.57,151.82c.43.41,1.11.63,1.11,1.38a1,1,0,0,1-1.21-.32c-1.36-1.51-3-2.66-4.37-4.2a14.56,14.56,0,0,1-2-3.75.66.66,0,0,1,.17-.92.38.38,0,0,1,.17-.08,22.27,22.27,0,0,1,5.57-1.26c.4-.07.28.54.51.76-.14.9-.92.82-1.53,1-.38.12-1,.07-.65.82l.23.2a4.59,4.59,0,0,1,.46.81,1.71,1.71,0,0,0,0,.32A14.16,14.16,0,0,0,116.57,151.82Z"/><path class="cls-9" d="M114.55,78.05H111c-1.78,0-3.57-.07-5.35,0-1.2.07-2.36.63-3.63.24a3.48,3.48,0,0,1,2.37-.93c1-.21,2.06-.74,3.17-.5.79.17,1.42-.35,2.17-.4A6.63,6.63,0,0,1,114.55,78.05Z"/><path class="cls-10" d="M131.78,140.67a17.11,17.11,0,0,0-5.56,1.22c-.62.27-1.37-.08-2,.38a15.14,15.14,0,0,1-4.19.3l-.16-.12c.14-.53.57-.4.93-.4H123c.42,0,.7-.24.68-.6s-.44-.27-.72-.28-.71.44-.86,0,.42-.46.69-.62a3.79,3.79,0,0,1,3.79-.71c.33.08.65,0,.93.09.27.34-.91.57,0,.91s.31-.86.88-.89c.45.73,1.71.76,3,.07C131.79,140,132,140.19,131.78,140.67Z"/><path class="cls-11" d="M117.08,84c-.72.69-1.32,1.25-1.89,1.83a1.1,1.1,0,0,1-.8.34,17.11,17.11,0,0,1-6.16-.71,7.08,7.08,0,0,0-2.43,0,3,3,0,0,1,3.43-1.08,12.27,12.27,0,0,0,4.92.65c.62-.06,1-.59,1.54-.88A1.47,1.47,0,0,1,117.08,84Z"/><path class="cls-12" d="M104.86,79.8c4.63-1.1,9.83-.86,10.94.48A51.35,51.35,0,0,1,104.86,79.8Z"/><path class="cls-13" d="M87.31,153.6c-1,.19-1.4,1.19-2.25,1.66s-1.75,1.21-2.63,1.81a3.93,3.93,0,0,0-1.61,2.1,1.9,1.9,0,0,1-.81,1,5.78,5.78,0,0,1,2.39-4.55,40.84,40.84,0,0,1,4.21-2.41C87.29,153.05,87.36,153.09,87.31,153.6Z"/><path class="cls-14" d="M111,89.85c-.78.35-1.63,0-2.42.19a15.67,15.67,0,0,0-2.63-.35,8.43,8.43,0,0,1-2.7-.76,1,1,0,0,0-.81,0c-.61-.09-1-.61-1.52-.85a.37.37,0,0,1,.09-.52s0,0,.06,0a1,1,0,0,1,.58.25c1.46.31,2.92.59,4.37.94a13.43,13.43,0,0,0,4.76.5,5.34,5.34,0,0,1,.8,0c.31,0,.69.07.59.48s-.43.26-.66.11-.34.07-.51.07c-.44-.42-1-.15-1.49-.25C110.05,89.7,110.6,89.44,111,89.85Z"/><path class="cls-15" d="M100.35,104a12.53,12.53,0,0,0,4.67,2.77,6,6,0,0,0,3.08,0c2.3-.5,4.21-1.87,6.33-2.78.24-.06.32,0,.25.26a5.74,5.74,0,0,1-2,1.16c-.61.3-1.25.55-1.86.86a.87.87,0,0,0-.91.46,12.55,12.55,0,0,1-4.23.89,6.8,6.8,0,0,1-5.11-2.47C100.28,104.78,99.91,104.41,100.35,104Z"/><path class="cls-16" d="M116.51,90.53c-.55.5-1.26.18-1.89.37a15.15,15.15,0,0,1-8.31.26,5.16,5.16,0,0,0-1.36,0c-.78-.41-1.74-.27-2.49-.78a3.08,3.08,0,0,1-1.77-1.18.51.51,0,0,1,0-.48,33.73,33.73,0,0,0,5.63,1.94c1.49.31,3,.14,4.43.51a3.21,3.21,0,0,0,2-.24A9.38,9.38,0,0,1,116.51,90.53Z"/><path class="cls-16" d="M101,88l1.47.91a1.19,1.19,0,0,1-1.11-.38c-.29-.28-.65-.49-.82.15a.47.47,0,0,1-.61-.12,7.11,7.11,0,0,0-3.07-1.64c-.76-.14-1.23.89-2.09.52-.12,0-.16.39,0,.55.41.39-.07.49-.2.7s-.16.08-.19-.06c-.27-1.28.55-1.78,1.54-2.16.14,0,.36-.07.4-.17.24-.48.38-1.12,1-.37,1-.78,1.52.4,2.3.52.15.18.34.32.49.5s.31.33.47.5S100.82,87.85,101,88Z"/><path class="cls-17" d="M100.35,104c.2,1.35,1.25,1.91,2.29,2.51a6.31,6.31,0,0,0,6,.44,3.61,3.61,0,0,1,1.22-.18,8.55,8.55,0,0,1-7.81.26,5.6,5.6,0,0,1-2.41-2.74A12.86,12.86,0,0,1,98,99.66a.23.23,0,0,1,.28,0c.29.43.34,1,.65,1.38a1.71,1.71,0,0,1,.14.27,6.75,6.75,0,0,1,.29,1,1.37,1.37,0,0,0,.37.75,2.32,2.32,0,0,1,.52.68A.53.53,0,0,1,100.35,104Z"/><path class="cls-18" d="M223.35,189.65a2.1,2.1,0,0,0,.09,2.06,1.54,1.54,0,0,1-.05.17c-.28.91,0,1.86-.22,2.78a.58.58,0,0,1-.21.28c-.44-.25-.22-.68-.23-1,0-1.73-.06-3.46,0-5.19a13.15,13.15,0,0,0-.28-2.17c0-.43.29-.47.28-.73.35-.22.75-.26.74.23A11.27,11.27,0,0,1,223.35,189.65Z"/><path class="cls-19" d="M97.13,94.87c-.7-1.35-1.74-2.53-2.07-4.07-.3-.31-.36-.6.1-.82a1,1,0,0,1,1,.62,15.66,15.66,0,0,0,1,2.7C97.39,93.84,97.58,94.36,97.13,94.87Z"/><path class="cls-20" d="M223.42,199l-.23-.45a13.12,13.12,0,0,0,0-3.65,12,12,0,0,1,.13-3.11l.1-.11c.24,1.76,0,3.53.11,5.3a2.87,2.87,0,0,0,.12,1.33c.08.08.21.14.22.25a29.48,29.48,0,0,1-.07,5.23C223.31,202.25,223.76,200.61,223.42,199Z"/><path class="cls-21" d="M223.42,199c.33,1.55,0,3.13.31,4.68a17.9,17.9,0,0,0-.06-5.37c.42,0,.44.34.44.66v4.43c0,.31,0,.71-.38.73s-.35-.42-.35-.7C223.38,202,223.4,200.51,223.42,199Z"/><path class="cls-22" d="M106.7,200.84a2.63,2.63,0,0,0,.12.67,1.52,1.52,0,0,1-.25,1.59c-.44.57-.9,0-1.34-.06a3.94,3.94,0,0,1-.82-.34c.49-.84,1.73-.81,2.09-1.81a.14.14,0,0,1,.19-.06Z"/><path class="cls-23" d="M114.3,145.43c-.7-.55-.63-.92.23-1.16.7-.2,1.48-.2,2-.86l.68-.23a.53.53,0,0,1,.46-.22c.84.23,1.45-.56,2.26-.51v.07c-.25.76-1,.87-1.59,1.06a15.72,15.72,0,0,1-3.62,1.08C114.19,144.71,114.43,145.17,114.3,145.43Z"/><path class="cls-24" d="M97.13,94.87a4.15,4.15,0,0,0-.72-2.63,3,3,0,0,1-.42-1.7,7.16,7.16,0,0,1,1.88,3.57c-.15,1,.49,2.08-.09,3.09C97,96.59,97.65,95.56,97.13,94.87Z"/><path class="cls-25" d="M133.6,120a4.13,4.13,0,0,1-3.42.81,21.6,21.6,0,0,0-3-.39c-.23,0-.45-.25-.67-.38,1.07.12,2.16.17,3.22.38C131.08,120.62,132.32,120.1,133.6,120Z"/><path class="cls-26" d="M141.11,136.54c-1,.93-2.12.51-3.18.38-.48-.07-.82-.55-.25-1.18a2.68,2.68,0,0,1,1.18-.75c0,.32-.23.38-.46.46-.06.94.62,1,1.29,1.13C140.17,136.65,140.63,136.33,141.11,136.54Z"/><path class="cls-27" d="M133.77,132.27c1.12.14,2.26-.55,3.37.13.21.13.32-.22.37-.45.3.31.44.78,1,.84a.81.81,0,0,1-1.12.15,3.07,3.07,0,0,0-2.73-.36C134.3,132.67,133.94,132.78,133.77,132.27Z"/><path class="cls-28" d="M124.27,135.63c1.08.1,1.4,1.21,2.23,1.65.16.36.77.36.71.89a3.28,3.28,0,0,1-2.2-1.48C124.73,136.37,124.52,136,124.27,135.63Z"/><path class="cls-29" d="M141.11,136.54c-.64,0-1.15.47-1.83.34-.88-.17-1.26-.71-.88-1.43.67,1,1.7.91,2.72.89A.28.28,0,0,1,141.11,136.54Z"/><path class="cls-30" d="M141.34,112.41a34.52,34.52,0,0,1,5.57-.09c-.27.48-.64.36-1,.35-1-.48-2.08-.11-3.11-.21C142.33,112.41,141.84,112.42,141.34,112.41Z"/><path class="cls-31" d="M114.68,104.22l-.25-.26a30.12,30.12,0,0,0,3-3.19c0,.58-.42.94-.66,1.4a11.74,11.74,0,0,1-1.18,1.33Z"/><path class="cls-32" d="M139.1,128.12a6.14,6.14,0,0,1-2.51.41.3.3,0,0,1-.32-.25.27.27,0,0,1,.23-.31h0A5.33,5.33,0,0,1,139.1,128.12Z"/><path class="cls-2" d="M109.7,65a1.1,1.1,0,0,1,.88.28c.25.27.66,0,1.06.49a5.84,5.84,0,0,1-2,.11l-.29-.17c-.14-.07,0,0-.1,0s.07.06.08.11a.42.42,0,0,1,0,.38c-.3.09-.61.46-.89.06a.78.78,0,0,1,0-.63c.19-.52.71-.24,1.07-.37C109.55,65.13,109.57,65,109.7,65Z"/><path class="cls-33" d="M109.44,65.45a3.54,3.54,0,0,0,2,.26c-.14-.58-.72-.12-.9-.49a2.51,2.51,0,0,1,1.66.21c-.33.76-1.43.1-1.67,1-.38-.31-.85-.19-1.28-.28l-.13-.38C109.19,65.57,109.35,65.55,109.44,65.45Z"/><path class="cls-16" d="M103.29,89a13.42,13.42,0,0,0,3.72.68,3,3,0,0,1,1.61.43,28.1,28.1,0,0,1-5-.68A.5.5,0,0,1,103.29,89Z"/><path class="cls-34" d="M96.87,86.91a5.58,5.58,0,0,1,3.68,1.76.46.46,0,0,0,.16.07,1.49,1.49,0,0,0,.11.4c-.68.26-1-.32-1.44-.63s-.67-.7-1.1-1S97.15,87.54,96.87,86.91Z"/><path class="cls-35" d="M106.5,200.89c0,1.42-1.34,1.28-2.09,1.81l-.43-.48a.34.34,0,0,1,.38-.07c.15,0,.44.3.27-.17Z"/><path class="cls-36" d="M97.78,97.2c.1-1.1-.38-2.16-.19-3.26.51,0,.43.43.44.74,0,1,.19,1.91.13,2.87,0,.72.4,1.42.08,2.15l-.17-.09A4.33,4.33,0,0,1,97.78,97.2Z"/><path class="cls-37" d="M128.62,72.51a6,6,0,0,1,2.72,2.71,7,7,0,0,1-.58-.51c-.42-.48-.74-.56-.84.24l-.22-.18C130.58,73.42,129,73.28,128.62,72.51Z"/><path class="cls-38" d="M131.78,140.67a.72.72,0,0,0-.45-.7c-.26-.28-.61-.14-.92-.19a.19.19,0,0,1,0-.26l0,0c1.1-.08,1.85.84,2.87,1-.39.15-.78,1.12-1.14,0Z"/><path class="cls-39" d="M126.51,134.76c-.9.17-1.86-.28-2.73.25q-.39,0-.78,0a.43.43,0,0,1-.33-.41c0-.26.34-.25.43-.22C124.21,134.7,125.42,134.29,126.51,134.76Z"/><path class="cls-40" d="M223.35,189.65a15.58,15.58,0,0,0,.14-3.34c0-.58-.34-.55-.74-.47v-.53a.49.49,0,0,1,.64,0A6.53,6.53,0,0,1,223.35,189.65Z"/><path class="cls-41" d="M85,89.1c-.12-.67.33-1.17.52-1.75.23-.14.5-.14.42.17a3.81,3.81,0,0,1-.22,1.18c-.47.25-.14.82-.46,1.13a.78.78,0,0,1-.34-.46A.41.41,0,0,1,85,89.1Z"/><path class="cls-42" d="M151.11,148.4a3.41,3.41,0,0,1,2.56-2,12.21,12.21,0,0,0-2.24,2.07.2.2,0,0,1-.27,0A.35.35,0,0,1,151.11,148.4Z"/><path class="cls-43" d="M85.73,88.7c-.34-.41.46-1-.2-1.35.08-.21.15-.42.24-.63a.41.41,0,0,1,.51-.28.39.39,0,0,1,.14.08c.31.2,0,.36-.08.55C86.12,87.6,85.93,88.15,85.73,88.7Z"/><path class="cls-44" d="M127.21,138.17c-.21-.32-.77-.36-.71-.89l2.05.95c-.3.32-.53.84-1.08.35Z"/><path class="cls-45" d="M154.38,149.61c-.31-.41-.78-.15-1.17-.27.54-.37,1.14-.11,1.71-.18.23,0,.48,0,.53.3a.57.57,0,0,1-.07.42c-.25.2-.37-.12-.56-.19A2.14,2.14,0,0,0,154.38,149.61Z"/><path class="cls-46" d="M223.34,194.89a11.44,11.44,0,0,1-.15,3.69c-.24-1.2.16-2.45-.23-3.64v-.24A.27.27,0,0,1,223.34,194.89Z"/><path class="cls-10" d="M111.29,61.87c-.33.53-1,.56-1.4,1C110.16,61.9,110.55,61.61,111.29,61.87Z"/><path class="cls-29" d="M138.86,134.33v-.1a1.68,1.68,0,0,1,1.6-.06.25.25,0,0,1,.09.35l0,0c-.36.42-.9.26-1.36.37,0-.9.71-.33,1-.53C139.8,134.31,139.32,134.58,138.86,134.33Z"/><path class="cls-47" d="M106.92,126.06c.72.15.91.78,1.17,1.32,0,.11-.29.22-.45.07s-.49-.56-.74-.84A.48.48,0,0,1,106.92,126.06Z"/><path class="cls-10" d="M109.7,65l-.28.23c-.74-1.27-.64-1.78.45-2.23A1.25,1.25,0,0,0,109.7,65Z"/><path class="cls-48" d="M127.21,201.07a1.23,1.23,0,0,1,1.61-.67q.09.06.06.12c0,.06,0,0-.08,0-.32.31-.86.31-1.08.76C127.45,201.43,127.19,201.52,127.21,201.07Z"/><path class="cls-49" d="M138.86,134.33a2.49,2.49,0,0,1,1.48,0c-.22.54-1,0-1.12.61l-.36.06c-.26-.33-.64-.17-1-.26C138.12,134.37,138.69,134.83,138.86,134.33Z"/><path class="cls-50" d="M127.21,201.07a.58.58,0,0,0,.51.26l-1.14.72c-.16-.33-.47-.29-.75-.3A2.36,2.36,0,0,1,127.21,201.07Z"/><path class="cls-10" d="M116,52.91c-.19.88-1.07,1.51-.91,2.51C114.6,54.28,115.27,53.58,116,52.91Z"/><path class="cls-51" d="M119.9,46.49a2,2,0,0,1-1.35,1.18A1.41,1.41,0,0,1,119.9,46.49Z"/><path class="cls-16" d="M101.69,87.75a.42.42,0,0,1-.5-.17c-.11-.17-.36-.06-.51-.17l-.67-.54a.38.38,0,0,1,0-.41C100.7,86.74,101.42,87,101.69,87.75Z"/><path class="cls-50" d="M106.92,126.06v.55h-.1c-.33-.39-.88.82-1,0S106.53,126.21,106.92,126.06Z"/><path class="cls-52" d="M84.58,91.43a3.66,3.66,0,0,1-1,1A1.7,1.7,0,0,1,84,91.18C84.16,91.27,84.4,91.25,84.58,91.43Z"/><path class="cls-17" d="M110.8,106.24a2.94,2.94,0,0,1,1.86-.86A2.89,2.89,0,0,1,110.8,106.24Z"/><path class="cls-10" d="M114.94,57c-.39.66-.23,1.56-.94,2.07C114.22,58.37,114.17,57.51,114.94,57Z"/><path class="cls-53" d="M93.06,192.85c-.42.21-.11.6-.23.89a2.7,2.7,0,0,0-.29-.56c-.22-.25-.41-.58-.15-.77S92.87,192.64,93.06,192.85Z"/><path class="cls-10" d="M128.65,138.83c.5-.13,1.09-.48,1.19.45a4.57,4.57,0,0,0-1.72-.21C128.14,138.66,128.38,138.71,128.65,138.83Z"/><path class="cls-54" d="M84.58,91.43c-.22-.06-.61.45-.65-.2h0c.41-.17.22-.65.46-.9a.17.17,0,0,1,.17,0c.41,0,.42.16.25.45Z"/><path class="cls-55" d="M128.65,138.83l-.53.24c-.32,0-.6-.1-.65-.49.5.32.6-.58,1.08-.35Z"/><path class="cls-56" d="M128.8,200.57a.14.14,0,0,1,0-.17c.06-.72.68-.34,1-.68C129.75,200.51,129.18,200.39,128.8,200.57Z"/><path class="cls-57" d="M122.64,89.12c-.11-.19.41-.56-.18-.62l1.13-.6A1.94,1.94,0,0,1,122.64,89.12Z"/><path class="cls-58" d="M115.57,103.5a2.65,2.65,0,0,1,1.18-1.33A2.16,2.16,0,0,1,115.57,103.5Z"/><path class="cls-50" d="M87.31,153.6c0-.49-.45-.32-.7-.41a2.33,2.33,0,0,1,.49-.21c.21,0,.4-.53.62-.13S87.72,153.49,87.31,153.6Z"/><path class="cls-59" d="M122.72,44.74c-.43.51-1.1.59-1.65.89,0-.65.84-.4.92-.93a.24.24,0,0,1,.35,0,.08.08,0,0,1,0,0Z"/><path class="cls-60" d="M95.13,90a.72.72,0,0,0-.07.77,1,1,0,0,1-.69-1.16l.11-.09c.26,0,.4.22.58.36A.35.35,0,0,1,95.13,90Z"/><path class="cls-45" d="M84.81,90.73a.5.5,0,0,0-.25-.45c.17-.39-.21-1,.45-1.18v1C85,90.31,85.19,90.63,84.81,90.73Z"/><path class="cls-61" d="M151.11,148.4l.32,0c-.4.39-.74.9-1.39.92Z"/><path class="cls-62" d="M121.74,178.51l-.25.73c-.8-.11-.85-.19-.33-.46C121.35,178.68,121.55,178.6,121.74,178.51Z"/><path class="cls-10" d="M130.44,139.49v.29c0,.18-.11.45-.29.31s.12-.51.07-.79C130.36,139.25,130.4,139.36,130.44,139.49Z"/><path class="cls-63" d="M105.08,125.76c0,.14,0,.31-.23.3s-.22-.23-.22-.39.07-.29.25-.25S105.08,125.61,105.08,125.76Z"/><path class="cls-64" d="M85.06,90.08c-.26-.22-.31-.45,0-.7a.44.44,0,0,1,.24.45Z"/><path class="cls-8" d="M117.65,143a.5.5,0,0,1-.46.22c0-.2-.07-.47.18-.55S117.6,142.8,117.65,143Z"/><path class="cls-65" d="M122.38,44.7H122c0-.23-.17-.59.25-.54S122.42,44.49,122.38,44.7Z"/><path class="cls-66" d="M223.41,185.34h-.64c0-.27.15-.37.4-.35S223.41,185.16,223.41,185.34Z"/><path class="cls-10" d="M115.12,55.65c-.06.47-.12.93-.19,1.4C115,56.58,114.72,56.07,115.12,55.65Z"/><path class="cls-67" d="M104.9,123.41c.2,0,.35.1.31.29s-.17.13-.27.13-.32,0-.25-.25S104.84,123.45,104.9,123.41Z"/><path class="cls-18" d="M118.92,159.21a.38.38,0,0,1-.19.29c-.1,0-.21-.12-.23-.25s0-.31.14-.35S118.88,159,118.92,159.21Z"/><path class="cls-68" d="M100,86.46l.08.36a.21.21,0,0,1,0,.29.08.08,0,0,0,0,0c-.27-.16-.56-.31-.39-.71Z"/><path class="cls-10" d="M113.29,60.21a.81.81,0,0,1-.66.64.63.63,0,0,1,.6-.65Z"/><path class="cls-52" d="M84.39,90.33c-.06.35.11.81-.46.9C84.15,91,84.06,90.54,84.39,90.33Z"/><path class="cls-40" d="M104.63,202c.12,1-.51,0-.65.24a.13.13,0,0,1-.07-.17v0Z"/><path class="cls-60" d="M94.39,88.62a.33.33,0,0,1,.19.06l-.19.49a.28.28,0,0,1,0,.4l0,0h0a.69.69,0,0,1,0-1Z"/><path class="cls-1" d="M130,33.74c-.4.1-1.1-.15-1.08.5s.68.7,1.17.64a1.42,1.42,0,0,1,1.31.4.89.89,0,0,0,1.15,0,13.06,13.06,0,0,1,1.64-.8.52.52,0,0,1,.72.16.68.68,0,0,1,.07.2c.14.43,0,.8-.34.82-.86,0-1.49.92-2.63.31a5.16,5.16,0,0,0-2.81-.06,6.86,6.86,0,0,1-.9.09c-.46,0-1,.19-1.27-.45s.37-.76.67-1a1.31,1.31,0,0,0,.17-1.84,1.29,1.29,0,0,0-.17-.16c-.18-.17-.37-.37-.23-.58.23-.37.43,0,.64.1s.67.56,1,.06-.23-.57-.42-.83-.87-.27-.62-.9.55-1.25,1.31-1.41A5.61,5.61,0,0,0,132,27.71c.54-.51.62-1-.16-1.29-1.06-.39-2-1.07-3.26-.87A2,2,0,0,1,127,25a9.61,9.61,0,0,0-1.87-1c-.59-.3-1.16-.57-.86-1.43a.59.59,0,0,0-.31-.78.2.2,0,0,0-.11,0,.77.77,0,0,0-1,.32c-.41.82-.62.45-1.07-.06-.91-1.05-1.69-2.09-1.43-3.57,1.38.42,1.52.36,1.93-1.15a1.22,1.22,0,0,1,1.34-1.07h0a1.06,1.06,0,0,0,1.23-.75,2.73,2.73,0,0,1,2.44-1.72,15.32,15.32,0,0,0,4.54-1c.43-.18.82.1,1.23,0,1.83-.39,3.72.17,5.54-.38a2,2,0,0,1,.63.22,1.35,1.35,0,0,0,1.41-.08c.57-.4-.11-.81,0-1.31.43.21,1.13.05.81.94-.12.32.1.5.39.57a.71.71,0,0,0,.88-.36c.54-1.47,1.45-1.24,2.63-.8a8.19,8.19,0,0,0,3.41.75c.56,0,.52.39.57.78a3.44,3.44,0,0,0,2.56,3.1,1.28,1.28,0,0,1,.9.93c.1.91,1.07,1.61.5,2.72-.29.54.66,1,.9.82,1.19-.84,1.66.24,2.37.73.16.1.35.15.38.37-.95.45-1.12.91-.56,1.56a.68.68,0,0,0,.93.24l.07,0c.92-.52,1.17-.38,1.3.7.06.49.12.78.74.66s.72.59,1.09.87a.44.44,0,0,1,.57-.25.21.21,0,0,1,.1.06c.84.51,1.73,1,1.94,2.08a2.12,2.12,0,0,0,.27.75A3.73,3.73,0,0,1,163,33c-.8,1.05-1.3,2.4-2.73,2.86a4.11,4.11,0,0,1-.57-.53c-.23-.32-.41-.68-.88-.58s-.35.49-.3.82-.12.26-.27.27-.3-.07-.33-.32c-.15-1-1.11-.93-1.75-1.17-.47-.18-.86.16-1.08.81-.13.41-1,.62-1.59.27a1.45,1.45,0,0,0-1.78.13,1.75,1.75,0,0,1-1.82,0,9.32,9.32,0,0,0-4.21-.62c-1.16.06-2.51.61-3.76,0,.18-.41.53-.42.76-.6s.82,0,.83-.41-.41-.61-.73-.81a5.59,5.59,0,0,0-.86-.4l-.44,1.85a11.66,11.66,0,0,0-2.49-1.2,1.92,1.92,0,0,1-1.3.29,44.37,44.37,0,0,1-6.1-.19C131.09,33.37,130.45,33.18,130,33.74Z"/><path class="cls-1" d="M106.48,20.77c-.07,1,.72,1.16,1.35,1.46s1.53-.1,1.72.92c.73-.43,1.21.24,1.79.42a3,3,0,0,1,1.82,1.6c.26.51.38.88,0,1.31s-.42.75,0,1.08.78.71,1.31.33.8-.39,1.07.06.91.71.48,1.45a1.16,1.16,0,0,0,.48,1.47c.46.37.66,0,.84-.38s.31-.14.53,0a6.53,6.53,0,0,1,3,2.67.83.83,0,0,0,1.07.49,1,1,0,0,0,.23-.13,4.31,4.31,0,0,1,2.61.73c.09.13.14.28,0,.4-.31.26-.78.47-1,.24-.69-.55-1.27-1-1.94,0a.36.36,0,0,1-.32,0c-1.11-1.3-2.57-.11-3.83-.54-.52-.17-1,.32-1.2,1s-.49,1.2-1.45,1.07c-.68-.1-1.42.36-2.14,0a.11.11,0,0,0-.11,0c-.39,1.3-2.34.8-2.59,2.25a.51.51,0,0,1-.3.37,3.46,3.46,0,0,0-2.5.53c-.52.23-1,.32-1.38-.39-.2,1.58-1.54,1.7-2.51,2.18a1.63,1.63,0,0,0-1,1,.81.81,0,0,1-.26.18c-1,0-1.89,0-2.16,1.19a1.24,1.24,0,0,1-.27.17c-.39.13-.72-.07-1.08-.17a.86.86,0,0,0-1.07.38c.26.33.84.16,1,.64,0,.58-.45.55-.84.6-.62.12-1.24.63-1.82-.18-.22-.32-.55,0-.77.2a3.11,3.11,0,0,1-3.4.41,1.06,1.06,0,0,1-.79-1c0-1.36,0-2.72,1.28-3.7a5.15,5.15,0,0,0,1.87-3.72c-.27-.24-.38.08-.55.17-.54.3-.74,0-.69-.45a2.67,2.67,0,0,0-.46-1.7A2.57,2.57,0,0,1,93.72,32h0c.49-.15.58-.3.59-.84,0-2,.16-4.08,1.89-5.56.09-.07.23-.15.24-.23,0-1.54,1.39-1.76,2.35-1.9A10,10,0,0,0,103.28,22c.4-.28,1,0,1.36.33s.61.59,1.2.48c-.48-.78-.69-1.54.32-2.05A.36.36,0,0,1,106.48,20.77Z"/><path class="cls-69" d="M102.15,42.2h.22c1.42-.48,2.35-2,4.06-1.87a1.26,1.26,0,0,0,1.09-.71c.37-.57.76-.91,1.48-.57a.74.74,0,0,0,.9-.27l.23-.23a1.17,1.17,0,0,0,1.18-.14,1.77,1.77,0,0,1,2.5-.29,1.59,1.59,0,0,1,.29.29c.15.14.27.05.36-.1s.21-.31.09-.51-.5-.09-.39-.54c.92.47,1.52-.42,2.35-.59,1.09-.21,1.09,1.48,2.13.9.22-.39-.94-.45-.24-.91a.64.64,0,0,1,.9.11.75.75,0,0,1,.1.2c.26.92.66,0,1,.13a9.41,9.41,0,0,0,2.37.12c.6,0,1,0,1-.81,0-.39.06-.92.69-1s.79.34,1,.8a.88.88,0,0,0,1.08.63l.12,0A11.9,11.9,0,0,1,132,37a54.31,54.31,0,0,0,5.56.26c.4,0,1.1-.29.92.64,0,0,.12.19.2.2.32,0,.31-.24.43-.42a1.64,1.64,0,0,1,2.16-.84,1.23,1.23,0,0,1,.25.14c-1.27.25-1.44,1.69-2.67,1.63-.14,0-.38.12-.41.06-.86-1.15-2-.5-3-.5-4.48,0-9-.18-13.44.07a36.7,36.7,0,0,0-6,.73,20.82,20.82,0,0,0-5.3,1.55c-1.15.58-2.57.51-3.49,1.54-.35.38-.87.14-1.3.32a12.42,12.42,0,0,0-5.22,3.26c-1.43,1.78-3.41,3-4.58,5.08a27,27,0,0,1-1.73,2.67,3.94,3.94,0,0,1-1.58,1.31,1.66,1.66,0,0,0-1.14,1.44c0,.7-.75.8-1.09,1.22S89.51,58,90,58.48s.83-.26,1.16-.57a2.76,2.76,0,0,0,.27-.58A1.78,1.78,0,0,1,91,59.26c-1.1,1.49-1.86,3.18-2.93,4.68a.17.17,0,0,0,0,.1c0,.93-1.81.1-1.31,1.16.39.81-.11,1.27-.18,1.88a2.22,2.22,0,0,1-.59,1c-.23.26-.46.7-.92.36a.73.73,0,0,1-.12-1,3.1,3.1,0,0,0,.12-2.58c-.39-1.81-.63-3.66.5-5.36.12-.18.15-.47.43-.47s.37.31.46.56.32.72.08,1.09c-.67,1-.2,2.18-.21,3.29.74-1.4,1.74-2.67,1.52-4.42-.08-.65.76-1,1-1.68-1-.06-1.83-.32-2.67.22-.35.22-.77.17-.81-.24-.06-.61.34-.14.55-.19.41-.08.26-.37,0-.55-.79-.6-.8-1.11.1-1.62a.88.88,0,0,0,.48-1c-.1-.33-.47-.25-.79-.23-.69,0-.42-.82-.88-1-.63-.28-.82-.55,0-.93.25-.12,0-.41,0-.63a2.16,2.16,0,0,1,1.08-2.14c.65-.41.86-1.41,1.92-1.54.25,0-.07-.59-.48-.74-1.17-.42-1.15-.93-.67-2A16.19,16.19,0,0,0,88,41.62a5.71,5.71,0,0,0-.4-3.6c-.35-.76.17-1.62.44-2.4a.42.42,0,0,1,.53-.25.45.45,0,0,1,.14.1c.68.58,1.31,1.21,1,2.24,0,.15-.16.16-.76,0,.48.88,1.58,1.32,1.34,2.59,1.28-.67.93-1.72.77-2.55s.06-1.87-.79-2.54a.45.45,0,0,1-.11-.42c.57-1,.38-2.27,1-3.31.32-.57,1.24-1,.63-1.93a1,1,0,0,1,.29-.43c.8-.48.52-1.14.47-1.86s1.19-.24,1.17-1.14a1.9,1.9,0,0,0-.15-.59v-.52c1.8-.65,2.16-2.64,3.55-3.75a31.14,31.14,0,0,0,4.64-5.23c.35-.45.81-.86,1.21-1.31.73-.83,1.47-.56,2.12.09a4,4,0,0,0,2.38,1.43c-.28.52-.68.38-1,.33s-.51-.14-.76-.23a3.28,3.28,0,0,0-4.23,1.91,3.35,3.35,0,0,0-.2.95c-.09.88-1.14.41-1.21,1.18a6.41,6.41,0,0,1,1.16-.1c.67,0,.94-.16,1-.89,0-1,.88-1.44,1.82-.94a2.9,2.9,0,0,0,1.27.45c2.43,0,4.32,1.31,6.17,2.68a12.85,12.85,0,0,0,1.52,1c1.4.72,1.84,2.17,2.64,3.34.11.15.29.42.07.62s-.53,0-.68-.16c-.62-.75-1.2-1.53-1.79-2.3-.09-.12-.09-.39-.17-.41-1.37-.28-1.93-1.77-3.36-2.11-1-.25-2-1-3.18-.83h-.23a5.38,5.38,0,0,1-2.72.67,12.66,12.66,0,0,0-4.23.67c-1.84.42-4.54,3.7-4.67,5.59a6.45,6.45,0,0,1-1,2.73C93,31.75,92,33.12,92.4,34.71c.22.94.46,1.88.73,2.8a2,2,0,0,1-.32,1.91c-.48.64-.83,1.36-1.27,2a2.27,2.27,0,0,0-.36.71c-.18.64.24,1.39-.32,2A8.15,8.15,0,0,0,89.58,46c2.33-.73,4.56,1,6.79-.27.42-.23.83-.47,1.22-.73.36,0,.83.15.91-.46.41-.38,1-.52,1.37-.91A5.92,5.92,0,0,0,102.15,42.2Z"/><path class="cls-69" d="M160.27,35.82a17.58,17.58,0,0,0,3.21-4.22c.57-1,.06-1.76-.22-2.65a4.68,4.68,0,0,0-2.14-3.13.62.62,0,0,0-.62,0c.21-.74-.11-1.17-.64-1.73a59.1,59.1,0,0,1-5.52-6,26.19,26.19,0,0,1-2.12-2.48c-.74-1.4-.81-1.37.53-2.06a1.67,1.67,0,0,0,.31,1.59,42.88,42.88,0,0,1,2.88,4.17,3.26,3.26,0,0,0,3.22,1.26c.49-.05.7.35,1.09.42.2,0,.35.36.59.14s0-.42-.06-.62a1.55,1.55,0,0,0-.22-.39c-.19-.32-.82-.6-.29-1s.77.19,1,.48c.82,1,1.95,1.78,1.94,3.25,0,.3.13.38.43.33.12,0,.37.06.39.14.3,1.16,1.53,1.81,1.67,3.08a2.92,2.92,0,0,0,1.65,2.34c.32.17.36.42.43.73a4.37,4.37,0,0,0,1.49,2.34c.94.84,1.88,1.68,2.77,2.57s.82,1.19-.37,1.56a1.23,1.23,0,0,0-.31.14c-.82.47-1.37.46-1.61-.67s-.63-1-1.29-.32a48.48,48.48,0,0,1-4.31,4.41c-.47.36-.79.92-1.39,1.2a1.52,1.52,0,0,1-1.59,0c-.51-.37-.95-.25-1.62,0l1.88,1c-.43.34-.94.3-1.11.9s-1.21.23-1.52-.43c-.2-.43-.3-.87-.94-.64-.16.06-.48-.12-.43-.26.17-.43.23-.85-.23-1-1.12-.44-2-1.29-3.26-1.53-.31-.06-.81.07-.69-.47s.45-.57.86-.21c.25.23.41.06.49-.19s-.18-.48-.45-.49H152c-.4,0-.84.13-1.29-.39a7.84,7.84,0,0,1,3.05-.2c1.73.45,3.46-.23,5.2,0C159.43,36.7,159.66,35.82,160.27,35.82Z"/><path class="cls-1" d="M177.15,23.53c.52-.91.29-2,.65-2.93.1-.2.22-.49.47-.41a2.78,2.78,0,0,1,1.3,3.73c0,.09-.09.18-.14.27a1.13,1.13,0,0,0-.13,1.27,3.26,3.26,0,0,1-.13,2c-.08.38-.29.83-.73.64s-.2-.6,0-.9c.31-.46.64-.91-.19-1.19h0a2.68,2.68,0,0,0-.86-1.82A.86.86,0,0,1,177.15,23.53Z"/><path class="cls-1" d="M174.87,23.29c-.22,1.06-.44,2.12-.67,3.18a.63.63,0,0,0-.46.59c0,.7-.35.87-.92.77s-1,.46-1.27-.26c-.14-.45,1-1.49,1.51-1.42a.8.8,0,0,0,.79-.3.68.68,0,0,0-.12-.84,2.43,2.43,0,0,1-.09-3.44l0,0a8,8,0,0,0,.32-.75C174,22,175,22.37,174.87,23.29Z"/><path class="cls-1" d="M171,52.91l-1.6-2.74a4,4,0,0,0-.26-.6c-.2-.39.17-.55.31-.77a.31.31,0,0,1,.43-.09.28.28,0,0,1,.12.16c.42,1.18,1.65,1.83,1.92,3.11C172.14,53.07,172.11,53.14,171,52.91Z"/><path class="cls-1" d="M139.7,40.6c-.87-.29-1.84.14-2.81,0-.38,0-1,.2-1-.46a.87.87,0,0,1,.86-.89.73.73,0,0,1,.25,0c.91.22,1.74.58,2.68,0a.74.74,0,0,1,.92.52.57.57,0,0,1,0,.18C140.68,40.66,140.23,40.6,139.7,40.6Z"/><path class="cls-1" d="M153.65,41.76a.42.42,0,0,0-.51-.46c-1.41.24-2.69-.45-4-.53.89-1.09,1.31-1.16,2.42-.41.15.09.26.15.4,0,1-.8,1.36.47,2,.7.36.13.16.58-.3.66Z"/><path class="cls-1" d="M169.84,25.45v1.21a1.2,1.2,0,0,1-1.06,1.15c-.64.07-1-.37-1-1a.9.9,0,0,0-.39-.77c-.24-.15-.27-.35,0-.54a.29.29,0,0,1,.42,0,.22.22,0,0,1,.07.09C168.38,26.62,169,26.16,169.84,25.45Z"/><path class="cls-1" d="M167.85,51.76c-.2-1.2-1.34-1.75-1.88-2.72.11-.46-.15-.83-.44-1.3l.9.16c.16.09,0,.34.24.41l.92,1.38a1.6,1.6,0,0,0,.48.7,2.37,2.37,0,0,1,.15.4c.09.28.2.55.32.83a.31.31,0,0,1-.12.26A.49.49,0,0,1,167.85,51.76Z"/><path class="cls-69" d="M141.26,36a13.63,13.63,0,0,1,4.37-.14c.28,0,.64.22.56.57s-.44.31-.74.18a5.1,5.1,0,0,0-2.79-.18A2.26,2.26,0,0,1,141.26,36Z"/><path class="cls-1" d="M163.68,46.77a.8.8,0,0,1-.45-.45c.08-.29-.34-.58,0-.83s.49,0,.73.14l.63.24c.53.23,1,.7.82,1.19-.3.8-.67-.2-1.07-.13C164.13,47,163.9,46.83,163.68,46.77Z"/><path class="cls-1" d="M124.14,30.38c-.09.38-.36.68-.62.59a3.44,3.44,0,0,1-1.41-1.34c-.17-.23.32-.5.6-.5C123.56,29.11,123.63,30,124.14,30.38Z"/><path class="cls-1" d="M182.14,33.12c0,.17-.13.41-.24.34-.57-.38-1.23-.23-1.83-.37a.34.34,0,0,1-.14-.45l0,0a2.78,2.78,0,0,1,.68-.5c.4.44,1,.46,1.44.72C182.14,32.86,182.13,33,182.14,33.12Z"/><path class="cls-1" d="M167.12,47.88c0-1.45,0-1.45-.76-2,.68-.09,1.31-.11,1.4.66.05.47.45,1.3-.63,1.32Z"/><path class="cls-5" d="M171.23,17.56c.19-.58-.54-1.15,0-1.74-.15-.21-.41-.4-.24-.7a.31.31,0,0,1,.45,0,.08.08,0,0,1,0,0c.14.46.63.79.52,1.34-.15.11-.53-.68-.5.11a9.34,9.34,0,0,0,.21,1.27C171.4,18,171.34,17.71,171.23,17.56Z"/><path class="cls-1" d="M174.3,30.51c-.56.22-1,.42-1.5.59-.22.08-.36-.07-.45-.23s.12-.25.25-.33C173.11,30.21,173.62,29.87,174.3,30.51Z"/><path class="cls-1" d="M171.42,21c-.37.1-.85.25-1-.25-.14-.67.54-.64.92-.92.24.44,0,.8,0,1.15Z"/><path class="cls-1" d="M131.18,41.28c-.38,0-.56-.18-.51-.55s.17-.54.48-.48a.74.74,0,0,1,.53.76C131.71,41.31,131.39,41.27,131.18,41.28Z"/><path class="cls-1" d="M187.63,46.3a1.38,1.38,0,0,1,.68.69.55.55,0,0,1-.69.18c-.25-.11-.69,0-.71-.39S187.28,46.29,187.63,46.3Z"/><path class="cls-1" d="M160.34,17.08l-1,.4c-.28.12-.61.57-.8.1s.38-.47.66-.6A1.22,1.22,0,0,1,160.34,17.08Z"/><path class="cls-1" d="M162.63,12.62c-.29-.37-.69-.67-.69-1.2C163.26,11.19,162.72,12,162.63,12.62Z"/><path class="cls-1" d="M126.07,42.78c.12-1.21.81-.73,1.4-.6C127.08,42.58,126.41,42.25,126.07,42.78Z"/><path class="cls-1" d="M164.17,12.76V13c0,.37.44.76,0,1.1a.25.25,0,0,1-.34-.09.13.13,0,0,1,0-.05c-.07-.45-.32-1,.4-1.17Z"/><path class="cls-69" d="M142.4,37.22l.76,1.43C142,38.61,142.36,37.78,142.4,37.22Z"/><path class="cls-1" d="M100.75,47.46c.25,0,.45.07.44.36a.43.43,0,0,1-.38.45.42.42,0,0,1-.44-.4C100.33,47.63,100.49,47.48,100.75,47.46Z"/><path class="cls-69" d="M169.26,36.83c-.22-.06-.45-.11-.5-.37s.14-.39.39-.39.44.09.43.37A.39.39,0,0,1,169.26,36.83Z"/><path class="cls-70" d="M166.67,48.31l-.24-.41-.59-.86c.4.14,1,0,1,.64C166.65,47.84,166.75,48.1,166.67,48.31Z"/><path class="cls-1" d="M99.12,15c.24,0,.62-.38.7.17a.45.45,0,0,1-.35.51h-.11c-.54-.05-.06-.49-.23-.7Z"/><path class="cls-1" d="M110.8,8.42a.79.79,0,0,1-1.07.1C110,8.15,110.35,8.19,110.8,8.42Z"/><path class="cls-69" d="M149.85,12c-.1-.08-.33-.17-.37-.31s.16-.28.35-.27a.34.34,0,0,1,.37.33C150.21,12,150.08,12,149.85,12Z"/><path class="cls-1" d="M158,42.91c.3,0,.43.14.39.37a.21.21,0,0,1-.2.22l-.12,0c-.15-.07-.42-.08-.34-.34S157.94,43,158,42.91Z"/><path class="cls-69" d="M151.33,12.88c.11.08.32.17.39.32s-.11.25-.27.25a.48.48,0,0,1-.43-.32C151,13,151.1,12.87,151.33,12.88Z"/><path class="cls-1" d="M176.81,16c0,.23-.23.27-.4.34s-.32.06-.31-.16a.4.4,0,0,1,.37-.37C176.63,15.77,176.78,15.78,176.81,16Z"/><path class="cls-1" d="M122.63,34.52a.28.28,0,0,1,.33.22h0c0,.23-.14.32-.34.35s-.31,0-.33-.2S122.43,34.57,122.63,34.52Z"/><path class="cls-1" d="M167.38,24a.42.42,0,0,1-.51.15.29.29,0,0,1-.16-.37h0c.1-.24.28-.2.46-.09S167.47,23.77,167.38,24Z"/><path class="cls-1" d="M83.76,57.51a.72.72,0,0,1,.09-.83c.07,0,.18,0,.2.08A.59.59,0,0,1,83.76,57.51Z"/><path class="cls-1" d="M118,36a1.1,1.1,0,0,1-.25-.28c0-.15,0-.28.23-.28s.29.06.3.24S118.27,36,118,36Z"/><path class="cls-1" d="M167.8,22.36l.65-.07c0,.24.15.6-.21.64S167.92,22.58,167.8,22.36Z"/><path class="cls-69" d="M149.07,36.31c.15,0,.34.09.3.27s-.23.16-.37.13-.22-.11-.23-.19S148.92,36.31,149.07,36.31Z"/><path class="cls-1" d="M104.09,17.32c.3-.31.56-.17.9-.14C104.7,17.48,104.48,17.66,104.09,17.32Z"/><path class="cls-69" d="M123.23,36.45c-.09.06-.2.18-.32.19s-.24-.16-.2-.31a.31.31,0,0,1,.2-.2C123.07,36.12,123.18,36.23,123.23,36.45Z"/><path class="cls-1" d="M176.42,28.28l-.53-.12c0-.09.07-.24.13-.26.3-.09.4.11.43.36Z"/><path class="cls-71" d="M189.44,62c.18.09.16.18,0,.26S189.29,62.11,189.44,62Z"/><path class="cls-1" d="M169.85,114.69c-.19-.86.43-1.51.61-2.27C170.46,113.23,170.6,114.08,169.85,114.69Z"/><path class="cls-1" d="M168.45,89.42C167.17,88,165.66,86.83,165,85c-.19-.58-.95-.89-.8-1.65,0-.07-.11-.14-.25-.13-2,.11-3.88-.58-5.82-.85a8.46,8.46,0,0,0-3.87.33c-.64.21.07.53-.18.78s0,.34.24.38a44.84,44.84,0,0,1,7.3,2.48,13.67,13.67,0,0,1,4.3,3c1.14,1,1.71,2.61,2.53,4,.13.3.75-.14.68.45-.67.88-1.64.59-2.4.4a18.64,18.64,0,0,1-3.89-1.47c-1.06-.56-1.91-.12-2.79.23a1.86,1.86,0,0,1-1.14.09c.46-.78,1.29-1.4,1.06-2.48-.54,0-.72.53-1.06.78a4.22,4.22,0,0,1-3.84.45,11.24,11.24,0,0,1-2.56-.55c-.4-.21-.63.11-.25.52.15.3.31.6.48.89a13.6,13.6,0,0,0,4.83,2c.59.1.85,1,1.6.55.92,1.11,2.19.45,3.29.63a1.2,1.2,0,0,1,.49.14,5.83,5.83,0,0,1-2.7,1c-2.4.11-4.59-.77-6.84-1.4a41.81,41.81,0,0,1-6.87-3.06,4.37,4.37,0,0,0-1.9-.15c-1,0-1.33-.51-1.06-1.47,1,.48,2.71,0,3-.71-.35-.32-.79-.16-1.16-.14a1.32,1.32,0,0,1-1.45-.81c-.08-1.16-.82-.9-1.53-.73-.31-.09-.77.16-.92-.36.27-.86,0-1.82.47-2.64,0-.62-.26-1.28.29-1.82a.49.49,0,0,0,0-.41c-.91-.23-.15-.84-.3-1.24a4.72,4.72,0,0,1-.41-1.6c0-1.91,0-1.86,1.79-2.35,1-.28,2-.77,3.08-1.08a2.73,2.73,0,0,0,1-.71,3,3,0,0,1,2.2-.9h6.78a1.16,1.16,0,0,1,1.26.7.64.64,0,0,0,.53.48,16,16,0,0,1,3.52,1.36c1.68.72,2.76,2,4.14,3.07a9,9,0,0,1,3.29,4.82,3,3,0,0,1-.42,2.71h0c-.17.26.11.38.17.57C169.06,89.55,168.78,89.52,168.45,89.42Z"/><path class="cls-72" d="M157.79,125c-.74.52-.48,1.44-.71,2.14a18.72,18.72,0,0,1-2.07,4.09c-.91,1.44-1.9,1.32-3.4-.35.74-.21,1.59-.09,2.06-.87a6.26,6.26,0,0,0,1-4.43,14.74,14.74,0,0,0-.19-1.77A9.71,9.71,0,0,0,152,120a11.51,11.51,0,0,1-2.48-5.31,8.16,8.16,0,0,1-.21-4.3h0a3.62,3.62,0,0,1,2.12,1.26c1.17,1.06,2.61,1.85,3.35,3.34a40.86,40.86,0,0,1,2.61,4.24,11.27,11.27,0,0,1,.61,5.4C158,124.79,157.87,124.87,157.79,125Z"/><path class="cls-73" d="M114.3,145.43c-.11-.41-.26-.8.4-.92a18.93,18.93,0,0,0,5.24-2c1.42-.46,2.88-.14,4.32-.25-.11.48-.51.4-.83.4a19.34,19.34,0,0,0-5.51,1.3c-1.13.36-2.28.62-3.71,1,.9.31,1.09.81.91,1.45-.08.1-.15.09-.2,0a.41.41,0,0,0,0-.22c-.2-.18-.2-.51-.44-.67A.16.16,0,0,0,114.3,145.43Z"/><path class="cls-74" d="M157.79,125a9.39,9.39,0,0,0-1.94-8c-.5-.64-1.22-1.17-1.25-2.1.78.31,1,1.12,1.54,1.67,2,2.37,2.15,5.19,2,8.09A.39.39,0,0,1,157.79,125Z"/><path class="cls-75" d="M156.14,116.54c-.76-.33-.93-1.2-1.54-1.67-.79-1.34-2.38-1.86-3.24-3.13.34-.29.53.06.77.18C154.12,112.89,155.08,114.76,156.14,116.54Z"/><path class="cls-23" d="M114.92,146.37a.34.34,0,0,0,.2,0c.58.59.28,1.39.51,2.08.36,1.1.63,2.23.94,3.35A8.48,8.48,0,0,1,114.92,146.37Z"/><path class="cls-76" d="M142.46,88.45c.4-.57,1.07-.4,1.55-.37s.33.52.07.84c-.1.19-.21.38-.46.2Z"/><path class="cls-77" d="M143.62,89.12l.46-.2a1.43,1.43,0,0,0,1.62.91c.29,0,.71-.18.88.28-1-.17-2.07.08-3-.46-.14-.09-.41,0-.38-.28S143.44,89.16,143.62,89.12Z"/><path class="cls-78" d="M149.37,110.38a18.81,18.81,0,0,0,.21,4.3c-.11-.08-.32-.16-.33-.26A7.9,7.9,0,0,1,149.37,110.38Z"/><path class="cls-79" d="M152.13,111.92l-.77-.18a6,6,0,0,0-2-1.34c.28-.42.5,0,.73.06A7,7,0,0,1,152.13,111.92Z"/><path class="cls-80" d="M142,85.45c-.27.86,0,1.82-.47,2.64L140.9,88c.72-.38.71-1,.65-1.62A1.18,1.18,0,0,1,142,85.45Z"/><path class="cls-81" d="M168.72,88.48a6.45,6.45,0,0,0,.42-2.71A2,2,0,0,1,168.72,88.48Z"/><path class="cls-82" d="M168.07,50.81l-.11-.38a.19.19,0,0,1,.06-.24c.21.67,1.66,1,.46,2a.3.3,0,0,1,0-.4l0,0h0C168.57,51.37,168,51.23,168.07,50.81Z"/><path class="cls-81" d="M168.45,89.42c.23-.09.54-.13.2-.48-.16-.15-.31-.36.07-.46.26.4.68.71.7,1.38C169.05,89.7,168.69,89.76,168.45,89.42Z"/><path class="cls-83" d="M169.16,93.71c-.14-.27-.64,0-.68-.45a.93.93,0,0,0,1.06-.29C169.71,93.49,169.37,93.56,169.16,93.71Z"/><path class="cls-84" d="M170.32,89a.28.28,0,0,1,.25-.31c.17,0,.38.09.34.3a.44.44,0,0,1-.3.28C170.46,89.34,170.34,89.22,170.32,89Z"/><path class="cls-85" d="M152.77,92.57c-.13-.31-1-.23-.48-.89a.67.67,0,0,1,.5.82A.64.64,0,0,0,152.77,92.57Z"/><path class="cls-86" d="M168.5,51.79v.44c-.38.08-.47-.24-.63-.47Z"/><path class="cls-86" d="M168,50.19l-.06.24c-.43-.09-.42-.41-.37-.74Z"/><path class="cls-7" d="M116.37,190c.76.08,1,.79,1.56,1.08a19.59,19.59,0,0,0,2.8.84,1.71,1.71,0,0,1,1.22,1.45,10.39,10.39,0,0,1,0,3.77c-.14.67-.39,1.23-1.22,1.22a.64.64,0,0,0-.6.25c-.12.17-.25.44-.52.2s0-.52.09-.72c1.06-1.55.61-3-.16-4.53-.61-1.17-1.92-1.66-2.68-2.68C116.7,190.61,116.35,190.46,116.37,190Z"/><path class="cls-1" d="M153.52,152c0-.2,0-.35.23-.32s.14.17.13.24.06.35-.19.29C153.61,152.15,153.56,152,153.52,152Z"/><path class="cls-87" d="M98.07,97.54a13.64,13.64,0,0,0-.48-3.6L96,90.54c-.28-.18-.43-.58-.86-.51h0c-.19-.09-.18-.23-.11-.4A5.73,5.73,0,0,1,98.28,94v3.52C98.19,97.72,98.11,97.71,98.07,97.54Z"/><path class="cls-88" d="M98.28,87.56c1,.19,1.53,1.31,2.54,1.58l1.56,1.16c-2.07.07-3-.46-3.63-2.09Z"/><path class="cls-89" d="M98.75,88.21c.7,1.58,2.23,1.72,3.63,2.09.78.51,1.85.19,2.57.88-1.49-.31-3-.6-4.48-1C99.43,90,98.66,89.44,98.75,88.21Z"/><path class="cls-90" d="M100.32,103.75l-.66-.46a5,5,0,0,1-.35-.88,2.17,2.17,0,0,0-.38-1.16h0a2.87,2.87,0,0,1-.42-2.11A10.39,10.39,0,0,1,100.32,103.75Z"/><path class="cls-91" d="M98.52,99.15l.42,2.11a2,2,0,0,1-.7-1.56,9.18,9.18,0,0,1-.17-2.16.37.37,0,0,0,.21,0C98.61,98.06,98.46,98.62,98.52,99.15Z"/><path class="cls-19" d="M95,89.64a1.4,1.4,0,0,0,.11.4l-.71-.44v-.43Z"/><path class="cls-1" d="M124.34,79.15c1,.33.91,1.28,1.37,1.83a.23.23,0,0,1,0,.32l-.08,0a.59.59,0,0,1-.62-.13C124.43,80.68,124.47,80,124.34,79.15Z"/><path class="cls-1" d="M124.4,78.13c-1.06-.07-1.48-.52-1.23-1.47C123.74,76.85,123.74,76.85,124.4,78.13Z"/><path class="cls-23" d="M114.45,145.48c.6-.07.49.32.44.67C114.45,146.12,114.45,145.8,114.45,145.48Z"/><path class="cls-4" d="M111,89.85c-.76-.13-1.55.11-2.28-.3C109.48,89.63,110.32,88.9,111,89.85Z"/><path class="cls-92" d="M100.89,87.28c.19,0,.34.06.3.3L101,88c-.26,0-.33-.25-.47-.41S100.58,87.16,100.89,87.28Z"/><path class="cls-93" d="M100.89,87.28l-.35.3-.47-.43v-.33Z"/><path class="cls-91" d="M98.93,101.25a1.15,1.15,0,0,1,.46,1.17c-.1.06-.16,0-.18-.08C99.21,102,98.8,101.67,98.93,101.25Z"/><path class="cls-15" d="M99.21,102.34l.18.08.27.87A1,1,0,0,1,99.21,102.34Z"/><path class="cls-7" d="M223.34,194.89l-.34-.19v-2.35c0-.24-.06-.56.36-.53Z"/><path class="cls-4" d="M109.44,65.45l-.28.27c-.21,0-.3.38-.54.25a.39.39,0,0,1-.06-.39C108.79,65.24,109.13,65.37,109.44,65.45Z"/><path class="cls-1" d="M97.59,45a1.1,1.1,0,0,1-.69.84,5.89,5.89,0,0,1-5.33.21.63.63,0,0,0-.82.09c-.39.36-.86.23-1.3.19-.28,0-.6-.31-.26-.51.72-.44.59-1.49,1.41-1.83.14-.06.32-.36.28-.46-.72-1.58.47-2.71,1.25-3.59,1.31-1.48.56-2.86.26-4.22-.13-.58,0-1.37-.64-1.86-.14-.12,0-.36.08-.52,1-1.33,1.24-3,2.26-4.29a1.18,1.18,0,0,0,.2-.83c0-2.17,2.75-5.9,4.89-6.39a12.72,12.72,0,0,1,4.58-.66c.9.12,1.61-.64,2.49-.34-.37.55-1.15,1.08,0,1.68a.39.39,0,0,1,.17.5.55.55,0,0,1-.55.32,2,2,0,0,1-1.28-.67c-.69-.61-1.8-.67-2.19.09-.62,1.22-1.59.8-2.44.76a3.15,3.15,0,0,0-1.21.28c-1,.29-1.42,1-2.06,1.74a6.48,6.48,0,0,0-1.83,6c.1.5-.13.65-.61.7a2.09,2.09,0,0,0-1.61,2.49,2,2,0,0,0,.23.61c.47.7.47.73.37,2,.39,0,.31-.55.73-.61s.73,0,.66.45a5.41,5.41,0,0,1-1.9,3.8c-1.37,1-1.35,2.28-1.44,3.6,0,.71,1.49,1.37,2.42,1.12a2.38,2.38,0,0,0,1.53-.9c.2-.32.62-.6.81-.22C96.42,45.4,97,45.19,97.59,45Z"/><path class="cls-1" d="M109.9,38.78c-.13.75-.61.87-1.15.51s-.63-.13-.84.27a1.94,1.94,0,0,1-2,1.08c-1.08-.08-1.58.44-1.62,1.54-.67-.68-1.26-.07-1.89,0-.09-.75.09-1.1,1-1.21a7.38,7.38,0,0,0,2.1-1c.34-.19.06-.36,0-.55-.16-.44.16-.66.47-.77s.43.14.5.45c.14.72.63.24.77.09A1.93,1.93,0,0,1,109.9,38.78Z"/><path class="cls-1" d="M99.87,43.57a1.19,1.19,0,0,1-1.37.91h-.22c-.33-.28-.86.31-1.1-.26a.44.44,0,0,1,.18-.59h0c.49-.2,1-.7,1.55-.27A1.66,1.66,0,0,0,99.87,43.57Z"/><path class="cls-1" d="M102.15,42.2a2.2,2.2,0,0,1-2.28,1.37C100,42.11,100.88,41.82,102.15,42.2Z"/><path class="cls-1" d="M91.17,53.53a11.12,11.12,0,0,0,2.75-3.28.46.46,0,0,1,.61-.27l.06,0c.43.27-.11.4-.14.61-.16,1.37-1.75,1.65-2.18,2.84C92.23,53.57,91.68,53.51,91.17,53.53Z"/><path class="cls-1" d="M87.48,49.16a13,13,0,0,0,.15,1.64.36.36,0,0,1-.27.46l-.07,0c-.33,0-.71.15-1-.12a.56.56,0,0,1,0-.73A14.58,14.58,0,0,0,87.48,49.16Z"/><path class="cls-1" d="M90.24,54.85a.25.25,0,0,1-.27-.28.61.61,0,0,1,.59-.58c.22,0,.32.25.28.42S90.48,54.75,90.24,54.85Z"/><path class="cls-1" d="M87.18,53.75c0-.43.19-.66.54-.68a.3.3,0,0,1,.2.23C87.89,53.68,87.58,53.71,87.18,53.75Z"/><path class="cls-1" d="M89.76,41.61s-.1.15-.18.18a.14.14,0,0,1-.16-.17.35.35,0,0,1,.16-.23C89.69,41.35,89.77,41.44,89.76,41.61Z"/><path class="cls-1" d="M168,32.75a.3.3,0,0,1,.19.37c0,.14,0,.33-.24.28s-.19-.21-.17-.36S167.85,32.74,168,32.75Z"/><path class="cls-94" d="M166.31,18l.17-.4h.57c.72.48.35,1.22.45,1.84a4.56,4.56,0,0,1-.26,1.41l-.13.12A6.69,6.69,0,0,0,166.31,18Z"/><path class="cls-86" d="M168.07,50.81c.14.33.72.46.43,1C168.21,51.52,167.88,51.28,168.07,50.81Z"/><path class="cls-12" d="M156.85,85.51a16.51,16.51,0,0,1,5,2.08,13.42,13.42,0,0,1,2.31,2.08c.16.28.14.46-.25.42a28.27,28.27,0,0,1-3.76-2.21,17.78,17.78,0,0,0-3-1.48c-.4-.63-1.12-.09-1.59-.44h0a.36.36,0,0,1,0-.5l0,0A2.46,2.46,0,0,1,156.85,85.51Z"/><path class="cls-44" d="M155.49,85.5V86c-.46-.34-1,0-1.57-.29.42-.68,1-.42,1.57-.37.08.05.1.09.08.14S155.51,85.5,155.49,85.5Z"/><path class="cls-95" d="M163.89,90.09l.25-.42c.36.25.75.49.43,1A1,1,0,0,1,163.89,90.09Z"/><path class="cls-44" d="M155.5,86c.53.13,1.25-.38,1.59.44C156.66,85.9,155.94,86.44,155.5,86Z"/><path class="cls-96" d="M147.81,90.23c-.15.14-.26.34-.41.37s-.19-.16-.17-.3.13-.37.36-.34C147.66,90,147.72,90.11,147.81,90.23Z"/><path class="cls-97" d="M155.49,85.5a.67.67,0,0,1,0-.2c.45.09,1-.21,1.36.21Z"/><path class="cls-72" d="M167.41,19.6a.11.11,0,0,1,.15.07v1c0,.36-.18.37-.41.15C167.18,20.38,167,19.9,167.41,19.6Z"/><rect class="cls-1" x="214.53" y="182.11" width="14.68" height="24.44"/><rect class="cls-1" x="97.37" y="121.88" width="9.26" height="13.37"/><rect class="cls-1" x="105.26" y="125.11" width="4.72" height="3.29"/><rect class="cls-1" x="118.79" y="158.68" width="0.98" height="0.98"/></g></g></svg>