<svg xmlns="http://www.w3.org/2000/svg" viewBox="0 0 131.48 58.88"><defs><style>.cls-1{fill:#fff;}</style></defs><g id="Layer_2" data-name="Layer 2"><g id="Layer_1-2" data-name="Layer 1"><polyline points="2.55 22.13 126.12 22.13 131.48 27.32 0 32.86"/><path d="M2.31,5.7Q2.31.5,7.5.5t5.21,5.2V9.12h-4V5.7c0-.9-.4-1.35-1.18-1.36h0c-.78,0-1.17.46-1.17,1.36V7.85q0,1.46,3.09,3.68c2.2,1.57,3.3,3.44,3.3,5.64v3q0,5.22-5.19,5.22T2.31,20.15V16.73h4v3.42c0,.91.4,1.36,1.2,1.36s1.18-.45,1.18-1.36v-2.7c0-1.06-1-2.34-3.09-3.81a6.88,6.88,0,0,1-3.3-5.72Z"/><path class="cls-1" d="M7.52,25.87c-3.73,0-5.71-2-5.71-5.72V16.23h5v3.92c0,.8.33.86.7.86s.68-.06.68-.86v-2.7c0-.61-.5-1.7-2.88-3.41A7.37,7.37,0,0,1,1.81,7.92V5.7C1.81,2,3.78,0,7.51,0s5.7,2,5.7,5.7V9.62h-5V5.7c0-.79-.33-.85-.69-.86s-.69.07-.69.86V7.85c0,.55.5,1.57,2.88,3.27s3.51,3.69,3.51,6.05v3C13.21,23.89,11.24,25.87,7.52,25.87ZM2.81,17.23v2.92c0,3.21,1.5,4.71,4.71,4.72s4.69-1.5,4.69-4.72v-3c0-2-1-3.75-3.09-5.23S5.82,9,5.82,7.85V5.7c0-1.18.61-1.86,1.67-1.86A1.63,1.63,0,0,1,9.2,5.7V8.62h3V5.7c0-3.21-1.5-4.7-4.7-4.7s-4.7,1.49-4.7,4.7V7.92A6.35,6.35,0,0,0,5.9,13.23c2.22,1.59,3.3,3,3.3,4.22v2.7C9.2,21.33,8.58,22,7.52,22a1.63,1.63,0,0,1-1.7-1.86V17.23Z"/><path d="M35.61,20.15q0,5.21-5.2,5.22t-5.19-5.22V5.7q0-5.2,5.19-5.2t5.2,5.2ZM31.6,5.7c0-.9-.39-1.35-1.18-1.36h0c-.78,0-1.17.46-1.17,1.36V20.15c0,.91.39,1.36,1.18,1.36s1.19-.45,1.19-1.36Z"/><path class="cls-1" d="M30.41,25.87c-3.72,0-5.69-2-5.69-5.72V5.7c0-3.73,2-5.7,5.69-5.7s5.7,2,5.7,5.7V20.15C36.11,23.88,34.14,25.86,30.41,25.87ZM30.41,1c-3.2,0-4.69,1.49-4.69,4.7V20.15c0,3.22,1.49,4.72,4.69,4.72s4.7-1.51,4.7-4.72V5.7C35.11,2.49,33.62,1,30.41,1Zm0,21c-1.07,0-1.68-.68-1.68-1.86V5.7c0-1.18.61-1.86,1.67-1.86A1.63,1.63,0,0,1,32.1,5.7V20.15C32.1,21.33,31.48,22,30.41,22Zm0-17.17c-.37,0-.69.07-.69.86V20.15c0,.8.32.86.68.86s.69-.06.69-.86V5.7C31.1,4.91,30.78,4.85,30.42,4.84Z"/><path d="M58.52,20.15q0,5.21-5.21,5.22t-5.19-5.22V5.7q0-5.2,5.19-5.2t5.21,5.2V9.12h-4V5.7c0-.9-.4-1.35-1.18-1.36h0c-.78,0-1.17.46-1.17,1.36V20.15c0,.91.4,1.36,1.18,1.36s1.2-.45,1.2-1.36V16.73h4Z"/><path class="cls-1" d="M53.32,25.87c-3.73,0-5.7-2-5.7-5.72V5.7c0-3.73,2-5.7,5.69-5.7S59,2,59,5.7V9.62H54V5.7c0-.79-.33-.85-.69-.86s-.69.07-.69.86V20.15c0,.8.33.86.68.86s.7-.06.7-.86V16.23h5v3.92C59,23.88,57.05,25.86,53.32,25.87ZM53.31,1c-3.2,0-4.69,1.49-4.69,4.7V20.15c0,3.22,1.49,4.72,4.69,4.72S58,23.36,58,20.15V17.23H55v2.92A1.63,1.63,0,0,1,53.31,22c-1.06,0-1.68-.68-1.68-1.86V5.7c0-1.18.61-1.86,1.67-1.86A1.63,1.63,0,0,1,55,5.7V8.62h3V5.7C58,2.49,56.52,1,53.31,1Z"/><path d="M81.3,20.15q0,5.21-5.2,5.22t-5.19-5.22V5.7Q70.91.5,76.1.5t5.2,5.2V9.12h-4V5.7c0-.9-.39-1.35-1.18-1.36h0c-.78,0-1.17.46-1.17,1.36V20.15c0,.91.39,1.36,1.18,1.36s1.19-.45,1.19-1.36V16.73h4Z"/><path class="cls-1" d="M76.1,25.87c-3.72,0-5.69-2-5.69-5.72V5.7c0-3.73,2-5.7,5.69-5.7s5.7,2,5.7,5.7V9.62h-5V5.7c0-.79-.32-.85-.68-.86s-.69.07-.69.86V20.15c0,.8.32.86.68.86s.69-.06.69-.86V16.23h5v3.92C81.8,23.88,79.83,25.86,76.1,25.87ZM76.1,1c-3.2,0-4.69,1.49-4.69,4.7V20.15c0,3.22,1.49,4.72,4.69,4.72s4.7-1.51,4.7-4.72V17.23h-3v2.92c0,1.18-.62,1.86-1.69,1.86s-1.68-.68-1.68-1.86V5.7c0-1.18.61-1.86,1.67-1.86a1.63,1.63,0,0,1,1.7,1.86V8.62h3V5.7C80.8,2.49,79.31,1,76.1,1Z"/><path d="M93.93.87h9.44V4.72H97.94V11h4.68v3.85H97.94v6.29h5.43V25H93.93Z"/><path class="cls-1" d="M103.88,25.48H93.43V.37h10.45V5.22H98.44V10.5h4.68v4.85H98.44v5.29h5.44Zm-9.45-1h8.45V21.64H97.44V14.35h4.68V11.5H97.44V4.22h5.44V1.37H94.43Z"/><path d="M115.77.87H121q4.84,0,4.84,5.22V9.64c0,2.18-.88,3.6-2.63,4.24L127.11,25h-4.37L120,14.61h-.21V25h-4Zm4,3.85V11h.48a3,3,0,0,0,.84-.07,1.23,1.23,0,0,0,.76-1.29V6.09c0-.92-.39-1.37-1.18-1.37Z"/><path class="cls-1" d="M127.81,25.48h-5.46l-2.07-7.85v7.85h-5V.37H121c3.49,0,5.34,2,5.34,5.72V9.64c0,2.21-.84,3.73-2.5,4.52Zm-4.69-1h3.29l-3.8-10.9.46-.17c1.55-.57,2.3-1.8,2.3-3.77V6.09c0-3.21-1.38-4.71-4.34-4.72h-4.76V24.48h3V14.11h1.1Zm-2.86-13h-1V4.22h1.4c1.07,0,1.68.68,1.68,1.87V9.64a1.69,1.69,0,0,1-1.07,1.75A2.8,2.8,0,0,1,120.26,11.5Zm0-6.28V10.5a3.09,3.09,0,0,0,.65,0c.21-.08.43-.25.43-.82V6.09c0-.81-.32-.87-.68-.87Z"/><circle class="cls-1" cx="100.41" cy="45.9" r="11.94"/><path d="M100.41,58a12,12,0,1,1,12-12.05A12.06,12.06,0,0,1,100.41,58Zm0-23.89A11.85,11.85,0,1,0,112.26,45.9,11.85,11.85,0,0,0,100.41,34.06Z"/><path d="M97.71,57.2a5.61,5.61,0,0,1,.05-2.62l.18.07a5.6,5.6,0,0,0,0,2.52ZM106,53.6a8,8,0,0,1-3.93-1l.1-.18a7.72,7.72,0,0,0,5.26.89l0,.2A9.39,9.39,0,0,1,106,53.6ZM94.32,51.07h-.61a4.68,4.68,0,0,1-3.61-1l.14-.15a4.5,4.5,0,0,0,3.47,1h.61Zm16-1c-.12-2.07-.23-4.21-1-5.69l.18-.09c.8,1.51.92,3.68,1,5.77Zm-8.95-2-.13-.15a27.67,27.67,0,0,0,4.37-4.69l.16.12A27.24,27.24,0,0,1,101.4,48.07Zm-4.83-.9c-1.47-2.3-2.09-4.39-1.84-6.21l.19,0c-.24,1.77.37,3.81,1.82,6.07Zm-7.84-1-.11-.06a8.38,8.38,0,0,1,3-5.45l.12.17A8.31,8.31,0,0,0,88.81,46h-.1Zm22.82-4.26a2,2,0,0,0-1.39-.68V41a2.16,2.16,0,0,1,1.52.74Zm-7.47-2.6a15.11,15.11,0,0,0-5.65-1.48l-.32,0,0-.2.32,0a15.2,15.2,0,0,1,5.73,1.5ZM92.86,38.14l-.78-.79.15-.14L93,38Zm14-.75a8.86,8.86,0,0,0-2.48-2.65l.13-.16A9.16,9.16,0,0,1,107,37.3ZM96.19,35.68l-.14-.15a8.33,8.33,0,0,1,4.44-1.68l0,.2A8,8,0,0,0,96.19,35.68Z"/><path d="M92.25,37.36a19.13,19.13,0,0,1,4.3-2.13,10.66,10.66,0,0,1,1.87,2.47,40.46,40.46,0,0,0-3.64,3.8,31.36,31.36,0,0,1-3.71-.3A7.93,7.93,0,0,1,92.25,37.36Zm14.6-.2a21.13,21.13,0,0,1,3.64,4,18.68,18.68,0,0,1-.91,3.54c-1.17-.18-2.69-.63-4.12-1-.69-1.79-1.16-3.14-1.71-4.64A12.86,12.86,0,0,1,106.85,37.16ZM90.4,52.4a11.86,11.86,0,0,1-1.9-7l.29,0A10.57,10.57,0,0,0,90.36,50a4,4,0,0,0,.25,2.3Zm6-5.65c1.84.3,3.61.6,5.33.9a25.14,25.14,0,0,1,.78,5c-1.32,1.09-3.14,1.44-4.74,2.11a14.79,14.79,0,0,1-3.7-3.86A19.15,19.15,0,0,1,96.41,46.75Zm15.15,3.41a12,12,0,0,1-4.65,5.76l-.59,0a4.58,4.58,0,0,0,.6-2.46c1.16-.55,2.33-2.32,3.5-3.88A4.75,4.75,0,0,1,111.56,50.16Zm-11.5,7.67a11.88,11.88,0,0,1-5-1.26A4.06,4.06,0,0,0,97.8,57C98.06,57.36,98.68,57.66,100.06,57.83Z"/><path d="M.51,39.22Q.51,34,5.69,34t5.21,5.2v3.42h-4V39.22c0-.9-.4-1.35-1.18-1.36h0c-.78,0-1.16.45-1.16,1.36v2.14c0,1,1,2.21,3.08,3.69s3.3,3.44,3.3,5.63v3c0,3.48-1.73,5.21-5.19,5.21S.51,57.14.51,53.67V50.25h4v3.42c0,.91.39,1.36,1.19,1.36s1.18-.45,1.18-1.36V51q0-1.61-3.09-3.81A6.9,6.9,0,0,1,.51,41.44Z"/><path d="M23.94,53.67c0,3.47-1.74,5.21-5.2,5.21s-5.19-1.73-5.19-5.21V39.22q0-5.2,5.19-5.2c3.46,0,5.2,1.73,5.2,5.2Zm-4-14.45c0-.9-.4-1.35-1.18-1.36h0c-.78,0-1.16.45-1.16,1.36V53.67c0,.91.39,1.36,1.18,1.36s1.19-.45,1.19-1.36Z"/><path d="M37,53.67c0,3.47-1.74,5.21-5.2,5.21s-5.19-1.73-5.19-5.21V39.22q0-5.2,5.19-5.2c3.46,0,5.2,1.73,5.2,5.2v3.42H33V39.22c0-.9-.39-1.35-1.18-1.36h0c-.77,0-1.16.45-1.16,1.36V53.67c0,.91.39,1.36,1.18,1.36S33,54.58,33,53.67V50.25h4Z"/><path d="M39.81,34.39h4V58.5h-4Z"/><path d="M47,34.39h9.44v3.84H51v6.29h4.67v3.85H51v6.29h5.43V58.5H47Z"/><path d="M68.41,34.39v3.84h-3.2V58.5h-4V38.23H58V34.39Z"/><path d="M73.73,34.39l2.08,9.31,2.08-9.31h4.24l-4.22,13.7-.09.26V58.5h-4V48.36l-.09-.27-4.23-13.7Z"/><rect class="cls-1" x="3.28" y="28.66" width="87.34" height="0.8" transform="translate(-1.2 2.04) rotate(-2.46)"/><path d="M121.44,39.4a3.66,3.66,0,1,1,3.65-3.66A3.66,3.66,0,0,1,121.44,39.4Zm0-6.57a2.92,2.92,0,1,0,2.91,2.91A2.91,2.91,0,0,0,121.44,32.83Z"/><path d="M121.24,35.45a.66.66,0,0,0,.44-.12.48.48,0,0,0,.14-.38.45.45,0,0,0-.14-.37.66.66,0,0,0-.44-.12h-.42v1h.42m-.42.68v1.44h-1V33.75h1.5a1.92,1.92,0,0,1,1.11.25.94.94,0,0,1,.35.81,1,1,0,0,1-.18.62,1,1,0,0,1-.55.35.86.86,0,0,1,.36.22,1.72,1.72,0,0,1,.32.49l.54,1.08h-1.05l-.47-1a1.09,1.09,0,0,0-.28-.39.67.67,0,0,0-.39-.1h-.28"/><line x1="106.03" y1="33.95" x2="118.03" y2="32.73"/><rect x="106" y="33.22" width="12.06" height="0.25" transform="translate(-2.81 11.58) rotate(-5.84)"/><line x1="112.56" y1="49.22" x2="119.36" y2="40.1"/><polygon points="112.67 49.29 112.47 49.14 119.27 40.02 119.47 40.17 112.67 49.29"/><line x1="111.94" y1="39.19" x2="116.94" y2="37.16"/><polygon points="111.99 39.3 111.89 39.07 116.89 37.04 116.98 37.27 111.99 39.3"/></g></g></svg>