<svg xmlns="http://www.w3.org/2000/svg" viewBox="0 0 382.18 113.79"><g id="Layer_2" data-name="Layer 2"><g id="Layer_1-2" data-name="Layer 1"><path d="M111,69a20,20,0,0,0,10.07,3c5.55,0,8.16-2.78,8.16-6.25,0-3.65-2.17-5.64-7.81-7.72-7.55-2.69-11.11-6.86-11.11-11.89,0-6.77,5.47-12.32,14.49-12.32a21,21,0,0,1,10.33,2.6L133.25,42a16.37,16.37,0,0,0-8.59-2.43c-4.51,0-7,2.6-7,5.73,0,3.47,2.52,5,8,7.11,7.29,2.78,11,6.42,11,12.67,0,7.37-5.73,12.58-15.71,12.58a24,24,0,0,1-11.8-2.86Z"/><path d="M146.44,48.54c0-5.38-.17-9.72-.35-13.71H153l.35,7.2h.17c3.12-5.12,8.07-8.16,14.92-8.16,10.15,0,17.79,8.59,17.79,21.35,0,15.1-9.2,22.56-19.09,22.56-5.55,0-10.41-2.43-12.93-6.6H154V94h-7.55V48.54ZM154,59.74a16.53,16.53,0,0,0,.35,3.12A11.79,11.79,0,0,0,165.8,71.8c8.07,0,12.76-6.59,12.76-16.23,0-8.42-4.43-15.62-12.5-15.62a12.17,12.17,0,0,0-11.54,9.46,12.34,12.34,0,0,0-.52,3.12v7.21Z"/><path d="M233.81,55.49c0,15.53-10.76,22.3-20.91,22.3-11.37,0-20.13-8.33-20.13-21.61,0-14.06,9.2-22.3,20.83-22.3C225.66,33.88,233.81,42.64,233.81,55.49Zm-33.32.43c0,9.2,5.29,16.14,12.76,16.14,7.29,0,12.76-6.86,12.76-16.32,0-7.12-3.56-16.14-12.58-16.14S200.49,47.93,200.49,55.92Z"/><path d="M243.44,47.93c0-4.94-.09-9.2-.35-13.1h6.68l.26,8.24h.35c1.91-5.64,6.51-9.2,11.63-9.2a8.38,8.38,0,0,1,2.17.26v7.2a11.65,11.65,0,0,0-2.6-.26c-5.38,0-9.2,4.08-10.24,9.81a21.9,21.9,0,0,0-.35,3.56V76.83h-7.55V47.93Z"/><path d="M283.09,22.77V34.83H294v5.81H283.09V63.29c0,5.21,1.48,8.16,5.73,8.16a17.05,17.05,0,0,0,4.43-.52l.35,5.73a18.67,18.67,0,0,1-6.77,1c-3.56,0-6.42-1.13-8.24-3.21-2.17-2.26-2.95-6-2.95-10.94V40.64h-6.51V34.83h6.51V24.76Z"/><path d="M311.12,23a4.73,4.73,0,0,1-9.46,0,4.65,4.65,0,0,1,4.77-4.77A4.53,4.53,0,0,1,311.12,23Zm-8.51,53.8v-42h7.64v42Z"/><path d="M323.7,76.83V40.64h-5.9V34.83h5.9v-2c0-5.9,1.3-11.28,4.86-14.67a14.59,14.59,0,0,1,10.24-3.91,17.67,17.67,0,0,1,6.51,1.22l-1,5.9a11.41,11.41,0,0,0-4.86-1c-6.51,0-8.16,5.73-8.16,12.15v2.26H341.4v5.81H331.25V76.82H323.7Z"/><path d="M351,34.83l9.2,24.82c.95,2.78,2,6.07,2.69,8.59h.17c.78-2.52,1.65-5.73,2.69-8.77l8.33-24.65h8.07L370.72,64.76c-5.47,14.4-9.2,21.78-14.41,26.3a20.7,20.7,0,0,1-9.37,5L345,89.59a20.15,20.15,0,0,0,6.68-3.73,23.22,23.22,0,0,0,6.42-8.51,5.44,5.44,0,0,0,.61-1.82,6.64,6.64,0,0,0-.52-2L342.69,34.82H351Z"/><path d="M88.44,56.89a29.33,29.33,0,0,1,1.3-8.64A33.84,33.84,0,0,1,76,51.11c-16.91,0-30.68-12.11-30.68-27C45.34,13.8,52,4.81,61.67.27,59.87.1,58.05,0,56.2,0,25.16,0,0,25.47,0,56.9s25.16,56.89,56.2,56.89a56.09,56.09,0,0,0,49.63-30.21A29.08,29.08,0,0,1,88.44,56.89Z"/><ellipse cx="76.02" cy="24.12" rx="26.93" ry="23.25"/></g></g></svg>