<svg id="Layer_1" data-name="Layer 1" xmlns="http://www.w3.org/2000/svg" viewBox="0 0 384.0573 384.057"><title>sudoku</title><path d="M229.5,223.5H513V602.25c-2.02,4.0716-5.2953,5.31-9.7923,5.307q-182.19-.1332-364.3795-.0716c-7.492,0-9.8135-2.3247-9.8135-9.8244q-.0018-182.19-.072-364.38c-.0033-4.496,1.2262-7.7713,5.3073-9.7814H166.5c4.63,2.9935,6.1478,5.9828,4.9522,9.7545-1.1578,3.6522-3.9466,5.2269-9.2862,5.2307-5.9569.0042-11.9138.0009-17.9412.0009v107.761H251.719V238.4834c-6.7858,0-13.2782.0569-19.769-.02-4.4222-.0523-7.4533-2.9645-7.6836-7.0564C224.0433,227.4423,226.4341,225.26,229.5,223.5ZM390.1521,346.244H497.7109V238.69H390.1521Zm-123,246.0005H374.7114V484.6892H267.1526Zm230.5454.1871V484.74H390.2734V592.4316ZM144.1516,469.2435H251.71V361.69H144.1516Zm.101,15.412V592.2143H251.8137V484.6555ZM390.2241,361.5583V469.2428H497.71V361.5583Zm-123.07-15.3119H374.7133V238.6873H267.1544Zm107.6917,15.5078H267.2873V469.3121H374.8461Z" transform="translate(-128.9427 -223.5)" fill="#fff"/><path d="M200.25,223.5c1.7175,2.01,4.1156,3.7638,4.9927,6.0907,1.3109,3.4779-1.2868,7.3271-4.8554,8.5492a7.5281,7.5281,0,0,1-7.1137-12.9928c.7672-.6209,1.6478-1.1019,2.4764-1.6471Z" transform="translate(-128.9427 -223.5)" fill="#fff"/><path d="M196.7624,392.945c-2.3539,0-4.0978.12-5.82-.0244a7.673,7.673,0,0,1-6.9514-7.5132,7.4672,7.4672,0,0,1,7.0472-7.3591c4.6106-.1667,9.2372-.1829,13.8466-.0023,4.5975.18,7.1666,3.5381,7.1771,9.1587q.0482,25.83.0123,51.6591c0,1.7469.0331,3.4946-.0081,5.2406-.1273,5.4015-3.0581,8.8113-7.5773,8.8574-4.6493.0474-7.6788-3.4-7.7045-9.081-.0609-13.476-.0213-26.9525-.0222-40.4288C196.7622,400.1085,196.7624,396.7649,196.7624,392.945Z" transform="translate(-128.9427 -223.5)" fill="#fff"/><path d="M202.7747,515.9857c-7.0764,0-13.6624.0207-20.2482-.0066-5.2417-.0217-8.4422-2.82-8.5042-7.3587-.0645-4.7141,3.167-7.5894,8.6324-7.6,10.3644-.0206,20.729-.0405,31.0932.0066,6.6393.03,10.0281,5.0893,7.3646,11.2054q-12.7589,29.297-25.7108,58.51c-2.0781,4.6992-6.214,6.4463-10.3091,4.6019-4.1172-1.8542-5.5623-6.0113-3.5-10.7507,6.5113-14.9611,13.1068-29.8856,19.6614-44.8278C201.7362,518.6673,202.1518,517.54,202.7747,515.9857Z" transform="translate(-128.9427 -223.5)" fill="#fff"/><path d="M442.6712,393.0639c-.5134,3.081-.9633,5.7813-1.42,8.52,3.2877.4215,6.58.4258,9.6163,1.3091C461,405.8406,467.3,412.6906,469.3,423.0157a24.9965,24.9965,0,0,1-11.5848,26.127c-9.1407,5.5353-18.4492,5.3963-27.61-.1633-3.1857-1.9332-4.7935-4.7267-4.0606-8.5113.6427-3.3188,2.8931-5.56,6.0793-5.7244,2.284-.118,4.773.97,6.9427,2,4.0208,1.9086,7.7513,1.72,11.2642-.8949a9.7682,9.7682,0,0,0,4.0464-10.2146c-.8693-4.4193-3.6536-7.7051-8.1355-8.212-3.326-.3761-6.8214.6281-10.2266,1.12-1.6983.2451-3.3955,1.1344-5.0377,1.0085-4.27-.3274-7.1472-3.8754-6.5118-8.4214,1.2594-9.01,2.76-17.9925,4.4307-26.9359.7752-4.1484,3.5023-6.0943,7.7538-6.1337,7.1226-.0661,14.2471-.08,21.3693.0056,4.6489.0558,7.712,3.038,7.7995,7.324.0921,4.5169-2.9019,7.5517-7.785,7.652C453.0471,393.1436,448.0575,393.0639,442.6712,393.0639Z" transform="translate(-128.9427 -223.5)" fill="#fff"/><path d="M319.3682,279.5175c15.3374,1.2787,24.64,9.2736,26.47,21.7612,2.1006,14.3384-8.588,27.7285-22.8606,28.6387-14.9192.9514-27.6175-10.8044-26.7879-25.6509,1.0687-19.1259,9.5376-34.845,23.9644-47.3379a7.4778,7.4778,0,0,1,10.7452.4355c2.977,3.2983,2.5561,7.4891-.9,10.9641C326.6056,271.7408,323.3607,275.3013,319.3682,279.5175Zm11.5531,25.1778a9.8787,9.8787,0,0,0-10.09-9.8233,9.9952,9.9952,0,0,0,.3291,19.9839A9.8727,9.8727,0,0,0,330.9213,304.6953Z" transform="translate(-128.9427 -223.5)" fill="#fff"/><path d="M304.2669,409.78c-5.15-10.7191-4.0377-19.6407,3.0844-26.2925a20.1568,20.1568,0,0,1,32.0073,23.29c-.8333,1.7451-1.5285,2.9071.1521,4.88,9.2044,10.8077,8.3912,25.8758-1.6226,34.9474a24.8389,24.8389,0,0,1-34.2147-.6269c-9.7821-9.5887-9.9752-24.4082-.4569-34.9984C303.5473,410.6118,303.8687,410.2352,304.2669,409.78Zm26.536,18.3566a9.7226,9.7226,0,0,0-9.8133-9.6594,9.772,9.772,0,1,0,.2123,19.5427A9.7541,9.7541,0,0,0,330.8029,428.1362Zm-9.6449-24.8041a5.09,5.09,0,1,0-.291-10.1738,5.0912,5.0912,0,0,0,.291,10.1738Z" transform="translate(-128.9427 -223.5)" fill="#fff"/></svg>