<svg xmlns="http://www.w3.org/2000/svg" viewBox="0 0 359.9503 360.0026"><title>IKONA2</title><g id="Layer_1" data-name="Layer 1"><path d="M346.7224,327.5907H290.3816c0,4.0138-.0922,7.9618.0884,11.8973.031.6753,1.1214,1.4816,1.8969,1.9149,6.4228,3.589,10.042,8.9148,9.951,16.3671-.087,7.1286-3.6681,12.1821-9.7178,15.79a5.0822,5.0822,0,0,0-2.15,3.6189c-.1824,8.9961.077,18.0034-.2217,26.9933-.0744,2.2385-1.0472,5.2734-2.6858,6.4936-7.904,5.8857-10.1914,13.3806-9.377,23.0129.84,9.9288.2365,19.9842.1444,29.9831a3.8582,3.8582,0,0,0,2.3731,4.0373c7.68,4.1086,11.2754,12.2822,9.1542,20.1788a18.0263,18.0263,0,0,1-34.9832-.0994,17.4576,17.4576,0,0,1,8.9671-19.9272c2.1915-1.1633,2.6131-2.4709,2.6-4.667-.0824-13.3742.0386-26.75-.1391-40.1224a8.29,8.29,0,0,0-2.1827-5.0977c-6.1234-6.42-12.42-12.6789-18.7775-18.87a9.3434,9.3434,0,0,1-2.99-7.2959c.0937-19.874.0485-39.7487.0485-59.6232v-4.3879h-24.015c0,5.7688-.0765,11.5961.0915,17.4164.0223.7755,1.1484,1.7545,1.9934,2.2332,6.2648,3.5489,9.8525,8.7572,9.87,16.0466.0174,7.2978-3.612,12.4447-9.7945,16.1223a5.1628,5.1628,0,0,0-2.0756,3.6637c-.2351,5.114-.0635,10.2455-.108,15.37-.0409,4.7147-2.1524,6.8359-6.8887,6.848q-19.4994.05-38.9988-.0235c-2.0615-.0111-3.2758.4372-4.3613,2.4742a17.5425,17.5425,0,0,1-19.871,9.1241,18.0514,18.0514,0,0,1,0-35.1066c7.7414-1.9759,15.6918,1.7,20.0076,9.0507.6311,1.0749,2.0341,2.3941,3.0979,2.41,11.4894.1733,22.9825.1081,35.0259.1081,0-4.0759.0917-8.0219-.0882-11.9555-.0309-.6746-1.2184-1.2982-1.8751-1.9419-2.6334-2.5819-5.5422-4.9484-7.792-7.83-1.2032-1.5407-2.0673-2.3687-4.0755-2.3444-8.8735.1075-17.756.2393-26.6191-.0835a11.9106,11.9106,0,0,1-6.8686-2.8017c-4.5961-4.0283-8.651-8.6684-13.1542-12.8118A8.7346,8.7346,0,0,0,140.77,351.6c-5.9661-.2622-11.9508-.1-18.158-.1V339.5274c4.3051,0,8.8023.4656,13.1674-.096,9.3592-1.2041,16.8777,1.3754,22.3417,9.2587,5.17,7.459,12.166,10.2316,21.1845,8.9426,4.2873-.6129,8.7369-.1861,13.1087-.0686,1.9367.0521,2.9107-.6189,4.1361-2.2422,2.1991-2.9132,5.1458-5.2569,7.732-7.8859.7794-.7923,1.97-1.7225,2-2.6216.1847-5.6007.0931-11.21.0931-17.3146H202.18q-38.999,0-77.9979-.003c-5.9547-.0015-7.9336-1.865-7.7786-7.8236,1.5653-60.147,26.7078-108.213,74.7911-144.0888,25.4432-18.9836,54.4-29.8845,85.9433-33.1117,81.9978-8.3893,157.1861,37.8047,187.3276,114.7594a171.3791,171.3791,0,0,1,11.88,62.8826c.0041,5.4006-2.0068,7.3519-7.4926,7.3845-3.1242.0186-6.2484.0287-9.3724.06a5.6808,5.6808,0,0,0-1.1219.3666c0,3.5537-.1688,7.2728.1121,10.9577.0754.9887,1.35,2.1656,2.3643,2.7582,6.871,4.0123,10.4577,10.9333,9.4217,18.5248a18.2428,18.2428,0,0,1-13.61,14.8469,17.4533,17.4533,0,0,1-19.7511-8.6178c-1.3059-2.4637-2.756-2.9842-5.2217-2.94-7.1225.1269-14.2512.1508-21.3723-.013a7.153,7.153,0,0,0-5.85,2.4879c-3.9534,4.172-8.1967,8.0708-12.1175,12.2716a10.1222,10.1222,0,0,1-8.2864,3.3587c-8.3708-.184-16.7492.0088-25.1224-.1051a5.0525,5.0525,0,0,0-5.0132,2.696,24.8144,24.8144,0,0,1-7.045,6.977c-2.0195,1.3182-2.62,2.52-2.5568,4.7236a127.2116,127.2116,0,0,1-.0776,14.2384c-.1909,2.277-1.0036,5.3163-2.6347,6.52-8.0766,5.9623-10.5124,13.6818-9.3681,23.3658.67,5.6707.2122,11.4874.0769,17.234-.0523,2.2232.4623,3.4966,2.6322,4.6452a17.45,17.45,0,0,1,8.8034,20.3054,17.812,17.812,0,0,1-18.106,13.3315,18.1109,18.1109,0,0,1-17-14.3513,17.7134,17.7134,0,0,1,9.1126-19.2658,4.3848,4.3848,0,0,0,2.6832-4.6156c-.1167-10.7474-.217-21.5015.0778-32.2421.0642-2.337,1.7725-4.6294,2.7319-6.9389a.6846.6846,0,0,1,.2613-.2647c8.2657-5.4744,10.3521-13.4036,8.8047-22.6458a5.7067,5.7067,0,0,0-2.1944-3.6181c-6.1651-3.7045-9.76-8.8638-9.706-16.1709.0524-7.1353,3.463-12.41,9.6915-15.7047,1.8785-.9937,2.6225-2.1345,2.2708-4.0663-1.7-9.3353,1.76-16.4343,9.2271-21.9543a66.5283,66.5283,0,0,0,5.6852-5.278ZM336.5609,272.775H256.164c-.632,13.8658-1.2863,28.2185-1.9368,42.49h84.2867C337.8487,300.7931,337.1965,286.6037,336.5609,272.775Zm-.7826-12.9853c-2.6357-15.0884-5.2607-29.6639-7.6595-44.2766-.4165-2.5374-1.5011-2.9338-3.7-2.833-7.6026.3485-15.2128.7845-22.8185.7546-11.1026-.0437-22.2032-.5141-33.3065-.6415-1.14-.013-3.1688.9077-3.31,1.6695-2.7917,15.0042-5.3651,30.049-8.0262,45.3338A464.9073,464.9073,0,0,0,335.7783,259.79ZM446.38,327.8183a10.0662,10.0662,0,0,0-1.4891-.2933c-25.9634-.0149-51.9269-.0447-77.89.0516a6.2092,6.2092,0,0,0-3.7951,1.7579c-4.6889,4.4854-8.9522,9.4529-13.8924,13.627-4.1652,3.5193-5.5877,7.49-5.0452,12.7031a5.0058,5.0058,0,0,0,2.3634,4.07,38.0257,38.0257,0,0,1,7.52,7.5331c1.1964,1.6008,2.1216,2.3287,4.0942,2.3016,7.6129-.1043,15.23.0582,22.84-.1265a7.4216,7.4216,0,0,0,4.4992-1.8393c4.5554-4.26,8.7153-8.9544,13.3825-13.0793a11.8706,11.8706,0,0,1,6.8293-2.864c8.6-.3347,17.2211-.18,25.8332-.1024,2.39.0216,4.1473-.175,5.25-2.8964.7958-1.9637,2.4517-4.245,4.2906-4.9945,5.4628-2.2263,5.6427-6.4122,5.2291-11.1485C446.2708,331.0422,446.38,329.545,446.38,327.8183ZM242.9809,315.3547c0-7.1676-.1437-13.907.04-20.6374.1873-6.86.5307-13.7255,1.1473-20.5577.2435-2.6982-.5507-3.4353-3.0774-3.7072-7.06-.76-14.1206-1.608-21.1291-2.7417-9.9344-1.6071-19.8224-3.5008-29.7411-5.2739-3.7591,7.8743-8.4731,43.465-7.2358,52.9179ZM348.6152,271.45c.6893,14.6713,1.3722,29.2066,2.058,43.803h59.4807c-.5467-18.1047-2.6861-35.6892-7.2084-52.61ZM176.9791,259.0941l-31.7816-10.43A164.7286,164.7286,0,0,0,128.5829,315.3h40.75C171.8869,296.5274,174.3992,278.0589,176.9791,259.0941ZM464.146,315.3334a164.6925,164.6925,0,0,0-16.6248-66.6659l-31.7731,10.4714c2.58,18.9679,5.0926,37.4381,7.6439,56.1945ZM252.5719,211.8064c-11.43-1.7265-22.9174-3.2156-34.2893-5.3252-3.5354-.6559-5.2751.0576-6.7645,3.0925-4.0045,8.16-8.3624,16.1518-12.1992,24.3877-2.3914,5.1332-4.0913,10.5885-6.4749,16.8855l52.2305,8.4788C247.6805,242.8088,250.1351,227.2509,252.5719,211.8064Zm147.2856,39.0654c-2.15-5.8124-3.6-10.4626-5.5674-14.8823-3.1894-7.1644-6.4854-14.3015-10.1627-21.2236-4.7136-8.8729-4.8914-8.7482-14.84-7.27-9.7214,1.4441-19.4524,2.8229-29.1317,4.2234,2.4476,15.5451,4.8979,31.1066,7.4976,47.6174ZM268.2213,200.7873h56.324c-4.2515-14.2164-8.3459-27.5571-16.6691-39.0381-7.8822-10.8727-15.1152-10.87-23.0122.0016C276.5288,173.2256,272.4006,186.5508,268.2213,200.7873Zm4.42,208.6673c2.1713-3.0786,5.2719-5.4971,5.49-8.1523.673-8.1944.3027-16.48.17-24.7275a3.9554,3.9554,0,0,0-1.6952-2.7937c-13.8155-8.34-13.8523-24.3021-.0575-32.4945a3.6857,3.6857,0,0,0,1.743-2.391c.19-3.6973.0819-7.41.0819-11.1323H254.356c0,20.7471-.01,41.2314.0373,61.7156a3.6327,3.6327,0,0,0,.8794,2.3133C260.8164,397.512,266.4316,403.1624,272.6413,409.4546Zm168.7678-171.5a9.7016,9.7016,0,0,0-.4656-1.7042A166.8036,166.8036,0,0,0,411,199c-.6609-.6171-1.8355-1.3609-2.5224-1.1667-5.6858,1.608-11.3129,3.4234-16.2687,4.962l20.0478,44.6519Zm-260.97,9.5082c6.89-15.2941,13.465-29.8895,20.1273-44.6782-4.44-1.3652-9.4539-2.7672-14.3588-4.4809a4.2173,4.2173,0,0,0-4.9773,1.0733,169.5135,169.5135,0,0,0-28.9734,36.14c-.3466.5854-.5688,1.2444-1.0832,2.3916Zm190.6649-52.5142c-13.9036-17.5242-29.9262-30.7913-51.5563-37.8717,8.0264,12.8825,12.7743,26.2241,16.4819,39.9675.563,2.0866,1.6362,2.4942,3.4958,2.2759,4.9577-.5821,9.9388-.9849,14.8815-1.6689C359.7859,196.9071,365.1321,195.9264,371.1041,194.9486Zm-97.9054-37.9c-21.6713,7.1843-37.7371,20.344-51.7868,38.231,11.5156,1.4361,21.9887,2.8,32.4861,3.94.8269.09,2.39-1.2154,2.6552-2.145C260.4584,183.3867,265.1254,170.0268,273.1987,157.0484ZM194.5881,187.055l.4805,1.4123a24.8991,24.8991,0,0,1,3.8378,1.1787c6.6716,3.2587,12.0188,2.4107,15.4851-4.7351a3.9018,3.9018,0,0,1,.7174-.8609q7.8039-8.3847,15.6128-16.7648l-.5506-.9581Zm203.8907,1.3025A162.3582,162.3582,0,0,0,362.4664,167.25c6.6461,7.6486,13.3873,15.4914,20.2732,23.2051a4.3022,4.3022,0,0,0,3.4522,1.1481C390.0644,190.7969,393.8588,189.6149,398.4788,188.3575ZM284.3972,351.5451a5.9667,5.9667,0,1,0,5.93,5.9985A6.2465,6.2465,0,0,0,284.3972,351.5451Zm168.1143,11.9332a5.9684,5.9684,0,1,0-6.11-5.8193A6.2621,6.2621,0,0,0,452.5115,363.4783Zm-246.1083-.2526a5.9686,5.9686,0,1,0,6.2461-5.6806A6.2747,6.2747,0,0,0,206.4032,363.2257ZM344.3276,375.52a5.9623,5.9623,0,1,0-5.9735,5.9584A6.2524,6.2524,0,0,0,344.3276,375.52ZM158.3268,399.5005a5.9627,5.9627,0,1,0-5.9535,5.9778A6.2493,6.2493,0,0,0,158.3268,399.5005ZM332.3276,477.69a5.9657,5.9657,0,1,0-6.1434,5.7888A6.2573,6.2573,0,0,0,332.3276,477.69Zm-54.0008,5.9483a5.9632,5.9632,0,1,0-6.0909,5.84A6.2456,6.2456,0,0,0,278.3268,483.6379Z" transform="translate(-116.3948 -141.4945)" fill="#fff"/><path d="M380.3551,423.5018c0,8.0388-.1007,15.6388.1175,23.23.03,1.04,1.46,2.3563,2.56,2.9992,7.3825,4.3142,10.9411,12.5068,8.7059,20.442a17.8106,17.8106,0,0,1-18.1045,13.32A18.1126,18.1126,0,0,1,356.638,469.147a17.723,17.723,0,0,1,9.0968-19.2666,4.3755,4.3755,0,0,0,2.698-4.604c-.1323-8.62-.0592-17.2422-.0509-25.8637.0058-6.0182,1.8229-7.8763,7.73-7.8822,10.7457-.0107,21.4918-.0531,32.2366.0394a4.1333,4.1333,0,0,0,4.3146-2.5516,17.5553,17.5553,0,0,1,19.9005-9.0388,18.0254,18.0254,0,0,1,.2541,34.9761c-7.8759,2.1441-15.9373-1.4912-20.3375-8.9718-.6285-1.0685-2.0438-2.3534-3.1178-2.3744C399.88,423.424,390.3931,423.5018,380.3551,423.5018Zm47.9958-.0235a5.9666,5.9666,0,1,0-5.9494-5.98A6.2585,6.2585,0,0,0,428.3509,423.4783ZM380.3268,465.66a5.9645,5.9645,0,1,0-6.1128,5.8186A6.2457,6.2457,0,0,0,380.3268,465.66Z" transform="translate(-116.3948 -141.4945)" fill="#fff"/><path d="M234.5065,459.5024c-5.1252-.1885-10.55-3.2891-13.8526-9.5366-1.069-2.0222-2.2589-2.7158-4.3439-2.4819a13.2463,13.2463,0,0,1-2.6211.005c-4.8246-.4246-8.5188.0557-11.611,5.1671-4.1147,6.8015-13.0188,8.5414-20.351,5.6193-7.4724-2.9779-11.8431-10.1-11.32-18.4445.47-7.502,6.3852-14.1839,14.1539-15.99a17.6446,17.6446,0,0,1,19.1614,8.5626c1.3343,2.4274,2.718,3.6361,5.4525,3.14a7.0421,7.0421,0,0,1,1.8706-.0083c4.8275.4406,8.4849-.09,11.6066-5.1652,4.417-7.18,14.15-8.7613,21.7263-5.036a18.1732,18.1732,0,0,1,9.6283,20.0675C251.9975,453.776,244.9015,459.4751,234.5065,459.5024ZM188.078,447.4781a5.9733,5.9733,0,1,0-5.6763-6.2525A6.2973,6.2973,0,0,0,188.078,447.4781Zm48.1368,0a5.9684,5.9684,0,1,0-5.8133-6.1158A6.2621,6.2621,0,0,0,236.2148,447.4782Z" transform="translate(-116.3948 -141.4945)" fill="#fff"/></g></svg>